<?xml version="1.0" encoding="utf-8"?>
<!-- Generator: Adobe Illustrator 24.0.1, SVG Export Plug-In . SVG Version: 6.00 Build 0)  -->
<svg version="1.1" id="Layer_2_1_" xmlns="http://www.w3.org/2000/svg" xmlns:xlink="http://www.w3.org/1999/xlink" x="0px" y="0px"
	 viewBox="0 0 400 400" style="enable-background:new 0 0 400 400;" xml:space="preserve">
<style type="text/css">
	.st0{fill:#FFFFFF;}
	.st1{fill-rule:evenodd;clip-rule:evenodd;}
</style>
<g>
	<path class="st0" d="M313.1,94.5C284.3,63.7,242.3,46,197.9,46c-3.8,0-7.6,0.1-11.4,0.4c-71.6,4.9-106.2,55.7-109.8,61.3
		c-5.3,6.7-50.7,68.1-20.3,152.9l0.6,1.8c0.3,0.9,29.9,91.6,135.9,91.6l0,0c5.7,0,11.6-0.3,17.5-0.8c79.1-6.9,138-65.4,143.2-142.2
		C356.6,167,342.2,125.6,313.1,94.5z"/>
	<g>
		<path class="st1" d="M305.5,101.3c-29.7-31.7-73.7-48-118.5-45c-71.2,4.8-102.8,57.8-102.8,57.8s56.4,17.1,64.2,19.5
			c5.3,1.6,40.5,10.3,56.4,19.1c3.3,1.8,6.6,5.5,9.8,8.9c2.4,2.5,4.6,4.9,6.9,6.8c4.2,3.4,8.3,6.4,12.2,9.2
			c9.8,7.1,18.2,13.2,22.2,22.5c3.4,8.1,3.5,16.4,0.4,24.2c-2.8,6.8-7.9,12.8-14.3,16.9c0.7-3.4,1.5-8.3-3.1-11.4
			c-2-1.3-12.6-3.8-19.8-4.5c-3.4-0.3-41.5-2.1-94.5,26.5c15.9-21.2,27.3-24.7,27.3-24.7c-0.4-2.6-85.6,32-85.6,32
			s29.4,94.2,143.2,84.2c74-6.5,129.2-60.7,134-132.9C346.2,169.1,332.7,130.4,305.5,101.3z M281.9,234.8
			c10.7-23.6,5.3-49.3-12.8-69.6c-5-5.6-11.3-9.5-17.4-13.2c-3.9-2.4-8-4.9-11.7-7.9c-1.7-1.4-3.1-3.3-4.6-5.3c-1.9-2.5-4-5.3-7-7.5
			c-16.8-12.1-36.5-16.6-56-22.4c-9.2-2.7-18.2-4.7-26.6-7.7c10.4-7.2,23.8-11.9,38.4-13.3c4.6-0.5,9.2-0.7,13.7-0.7
			c43.1,0,80.7,21.7,100.7,58c20,36.4,18.7,80.6-3.5,115.3c-22.7,35.7-63,54.6-108.6,50.9c-27.3-2.2-56.4-16.7-65.3-32
			c5.5-3.4,55.4-29.8,89.4-19.2c9.8,0-5.9,23.7-5.9,23.7S261.7,279.4,281.9,234.8z"/>
		<path class="st1" d="M197.6,163.2c-18.3,0.7-35.1-21.3-49.2-6.9c2.7,0.7,8.3-1.4,9.2,1.1C150.3,185.9,197.3,193.2,197.6,163.2z"/>
	</g>
</g>
</svg>
