<?xml version="1.0" encoding="utf-8"?>
<!-- Generator: Adobe Illustrator 24.0.1, SVG Export Plug-In . SVG Version: 6.00 Build 0)  -->
<svg version="1.1" id="Layer_2_1_" xmlns="http://www.w3.org/2000/svg" xmlns:xlink="http://www.w3.org/1999/xlink" x="0px" y="0px"
	 viewBox="0 0 400 400" style="enable-background:new 0 0 400 400;" xml:space="preserve">
<style type="text/css">
	.st0{fill-rule:evenodd;clip-rule:evenodd;}
	.st1{fill-rule:evenodd;clip-rule:evenodd;fill:#FFFFFE;}
</style>
<g>
	<path class="st0" d="M345.4,164.3c20.2,80.7-28.6,162.4-108.8,182.5c-80.4,20.1-161.9-29.1-182-109.7
		C34.4,156.2,83.1,74.5,163.5,54.5C243.8,34.4,325.3,83.6,345.4,164.3"/>
	<path class="st1" d="M333.7,167.2c18.6,74.2-26.2,149.2-100,167.7c-74,18.5-148.9-26.7-167.4-100.9S92.6,84.7,166.4,66.3
		S315.2,93,333.7,167.2"/>
	<path class="st0" d="M338.5,199.2c0,0.2-3.6,16.4-15.5,25.5c-0.4,0.4-1,0.7-1.6,1.1c0.1-10.4-1.1-21-3.5-31.7
		c17.6-16.8,16.6-35,12.6-47.3c-4.3-13.3-13-22.8-13.1-22.9l-5.2-5.6l4,6.6c0.2,0.3,17,28.7,4.9,52.1c-1.4,2.8-3.3,5.4-5.6,7.8
		c-5.7-19.2-14.1-37.3-25-53.7c-10.8-16.3-23.6-30.2-38-41.4C222.5,66.4,189,58,158.2,66l0.3,1.5c47.3-5,81.9,18.6,102.5,39.4
		c26.7,26.8,41.7,59.8,46.5,79.9c0.3,0.9,0.4,1.7,0.6,2.6c0,0.2,0.1,0.4,0.1,0.6c-10.7,5.6-25.5,6-44.1,1.3
		c-20.5-5.1-50.7-21.6-79.9-37.4c-18.4-10-35.8-19.4-49-25.1c-28.8-12.2-42.6-9.6-50.4-6.5c-3.2,1.1-5.1,2.6-5.8,4.3
		c-0.5,1.3-0.1,2.2-0.1,2.3l0.3,0.6l0.7-0.3c0.2-0.1,22.9-8,69.3,15.1c10.3,5.1,22.7,12.6,35.8,20.5c24,14.4,51.2,30.8,70.2,35.4
		c26.8,6.5,42.2,8.2,55.1,0c1.8,10.2,2.7,20.3,2.7,30.2c-19.7,9.7-56.7,21.5-91.8,24.5c-43.7,3.7-63.5,1.3-106-12.8
		c-41.7-13.9-52.4-32.8-52.5-33l-1.4,0.6c0.1,0.3,2.2,6.3,9,14.5c11.3,13.5,26.6,21.9,37.4,26.5c18.9,8.1,39,13.3,59.8,15.4
		c22.4,2.3,45.7,1.1,69.2-3.6c35.9-7.3,60.1-14.5,76.1-22.7c-0.6,9.4-2,17.9-4.2,26c-0.4,0.2-0.7,0.4-0.9,0.6
		c-2.4,1.5-4.8,2.8-7.4,4.1c-0.8,0.4-1.6,0.8-2.4,1.3l-2.3,1.4c-6.1,3.5-12.5,7.2-18.8,10.7c-16.4,8.9-29.9,16.1-42.5,22.8
		c-1.7,0.9-3.4,1.8-5.1,2.7c-2.2,1.2-4.4,2.3-6.7,3.5c-14.9,7.5-27.9,11.6-43.7,13.4c-12.5,1.5-25.2,0.2-39.8-4.2
		c-0.8-0.2-1.6-0.5-2.4-0.7c-3.4-1-6.9-1.9-9.7-3.6l-2.6-1.5l1.5,2.6c2.9,5.1,14.3,8.5,22.7,10.5c8.2,2,16.9,3.1,25.9,3.1
		c0.4,0,0.8,0,1.1,0c5.2,0,10.5-0.4,16.2-1.3c6.2-1,12.5-2.5,19.3-4.7c23.7-7.3,45.7-20.1,64.1-31.6c2.7-1.7,5.2-3.2,7.7-4.7
		c5.4-3.3,10.5-6.4,15.7-10c1.7-1.2,3.2-2.3,4.7-3.4c0.9-0.7,1.8-1.3,2.7-2c-9.5,25.7-27.5,44.9-49.6,52.8l0.4,1.5
		c10.2-1.7,21.4-8.4,31.7-18.9c10.8-11,19.5-25.2,25.4-41c0.2-0.2,0.5-0.3,0.7-0.5c0.5-0.3,1-0.7,1.5-1c2.8-1.9,4.3-1.7,4.7-1.4
		c0.2,0.3,0.4,0.6,0.9,0.6h0.6l0.1-0.5v-0.1c1-0.5,2.1-1.5,2-3.1c-0.1-0.7-0.5-1.2-1.1-1.5c-1.6-0.9-4.7-0.3-7.1,0.6
		c2.7-8.8,4.4-17.9,5-27c1.4-0.9,2.6-1.9,3.8-2.8l0.1-0.1c13-10.2,15-31.9,15.1-32.8L338.5,199.2"/>
	<path class="st1" d="M257.9,229.4c0-10.6,0-26.3-12.4-38.5c1.3-2.4,2.5-4.9,3.3-7.7c2.1-6.3,2.3-13.2,2.2-17.7l-0.1-29.1V136
		c-0.3-10.9-2-22.3-10.7-32.3c-7.9-9-19.7-13.6-34.2-13.6L166.8,90c-4.3,0-8.5,1.7-11.6,4.8c-3.1,3.1-4.8,7.3-4.8,11.7l0.4,191.4
		c0,5.7,2.9,10.9,7.7,13.9c2.7,1.6,5.7,2.5,8.9,2.5l39.8-0.1c14.4,0,26.4-4.2,35.8-12.4l0.1-0.1c13.1-11.9,14.5-25.9,14.9-39.3v-0.1
		L257.9,229.4"/>
	<path class="st0" d="M205.1,182.9c-3.2,0.9-4.8,1.2-11.8,1.4h-7c-1.2,0-1.5-0.5-1.5-1.5c0-0.6-0.1-59-0.1-59c0-0.9,0.3-1.5,1.3-1.6
		h11.6c5.2,0.2,10.9,0.3,14.6,2.6c1.7,1.1,2.7,2.3,3.3,4c0.5,1.7,1,4.8,1.3,10l0.1,22.8c-0.1,0.4-0.1,1-0.1,1.7
		C216.8,169.4,216.6,179.4,205.1,182.9 M218.2,278.2c-2.8,2-6.2,3.2-14.9,3.5c0,0-15,0-16.1,0c-1.4,0-1.9-0.8-1.9-2.1
		c0-11.2-0.2-72.7-0.2-73.2c0-0.6,0.2-1.3,1.3-1.3s7.5-0.1,7.5-0.1c8,0.4,16.3,1,21.7,4.5c3.1,1.9,5.2,4.6,6.6,8.2
		c1.2,3.7,1.4,7.8,1.4,11.6l0.1,27.1C223.7,268.7,222.9,274.5,218.2,278.2 M245.9,229.5c0-10.2,0-22.8-10.6-31.6
		c-2.2-1.9-4.8-3.5-8-4.8c4.9-3.3,8.3-7.9,10.1-13.7c1.7-5.1,1.6-11.5,1.5-14l-0.1-29.1c-0.2-8.1-1.1-17.3-7.6-24.7
		c-5.7-6.4-14.4-9.7-25.3-9.6l-39.1,0.1c-1.1,0-2.3,0.5-3.2,1.3c-0.9,0.9-1.3,2-1.3,3.1l0.3,191.5c0,1.6,0.8,3,2.1,3.8
		c0.7,0.5,1.6,0.7,2.5,0.7l39.8-0.1c4.2,0,17.2,0,28-9.3c9.6-8.8,10.6-19.1,10.8-30.7L245.9,229.5"/>
</g>
</svg>
