<?xml version="1.0" encoding="utf-8"?>
<!-- Generator: Adobe Illustrator 24.0.1, SVG Export Plug-In . SVG Version: 6.00 Build 0)  -->
<svg version="1.1" id="Layer_1" xmlns="http://www.w3.org/2000/svg" xmlns:xlink="http://www.w3.org/1999/xlink" x="0px" y="0px"
	 viewBox="0 0 400 400" style="enable-background:new 0 0 400 400;" xml:space="preserve">
<style type="text/css">
	.st0{fill-rule:evenodd;clip-rule:evenodd;fill:#FFFFFE;}
	.st1{fill-rule:evenodd;clip-rule:evenodd;}
	.st2{fill-rule:evenodd;clip-rule:evenodd;fill:#1A1919;}
	.st3{fill:none;stroke:#FFFFFE;stroke-width:0.268;stroke-linecap:round;}
</style>
<g>
	<path class="st0" d="M337.5,192.1c0-36.3-14.1-70.5-39.8-96.2c-22.1-22.1-50-35.6-80.9-39c-0.7-0.6-1.4-1.2-2.2-1.7
		c-3.8-2.5-7.9-3.7-11.9-3.7c-5.8,0-10.7,2.4-14.6,4.3c-0.4,0.2-0.7,0.3-1.1,0.5c-0.4,0.2-0.8,0.4-1.3,0.7c-11.1,1.3-22,4-32.4,7.9
		c-1.1-1.6-2.4-3-3.8-4.4c-6.8-6.8-15.9-10.6-25.5-10.6c-19.9,0-36.1,16.2-36.1,36.1c0,7.9,2.5,15.3,7.1,21.5
		c-9.2,11.6-16.4,24.5-21.5,38.3c-5.4,14.8-8.1,30.3-8.1,46.2c0,36.3,14.1,70.5,39.8,96.2c12.2,12.2,26.2,21.8,41.8,28.6
		c-0.5,5.7,0.2,9.9,1.3,12.4c-1.4,1.3-2.2,2.5-2.6,4.3c-3.4,5.3,4,10.9,7.6,13.7l0.5,0.4c4.7,3.6,8,4.4,11.5,4.4
		c0.9,0,1.8-0.1,2.8-0.1c0.5,0,1-0.1,1.6-0.1c5-0.2,10.3-4.2,16.1-12.3c1.3-0.2,2.5-0.3,3.4-0.3c1.3,0,1.9,0.2,2.1,0.3l0.3,1.3
		l1.5-0.2c2.4-0.4,5.4-1,9.3-2.6c4.5-1.9,7-4.3,7.5-7.2c0.2-1.1,0-2.1-0.3-2.9c20-1.2,39-6.6,56.5-16.2c0.3,0.4,0.6,0.8,0.9,1.3
		c1.2,1.8,2.4,8,3.1,16.4c0.4,5.1,1.3,8.5,3.7,16.2c1,3.2,2,5.1,3.8,5.1c2.2,0,2.9-3,3-5.5v-0.4c0.1-2.6,0.5-9.5,0.2-14.7
		c-0.3-5.5-0.4-13,0.5-15.9c1.2-3.8-0.7-5.5-1.5-6.2l-0.1-0.1c0-0.1,0-0.1,0-0.2c-0.1-0.6-0.3-1.7-0.9-3.9
		c6.6-4.6,12.8-9.8,18.5-15.5C323.4,262.6,337.5,228.4,337.5,192.1"/>
	<path class="st0" d="M335.8,192.1c0-35.9-14-69.6-39.3-95c-21.9-21.9-50-35.3-80.4-38.6c-0.7-0.7-1.5-1.3-2.4-1.9
		c-10.8-6.9-19.7-1.8-25.9,1.2c-0.4,0.2-1,0.5-1.6,0.8c-11.7,1.3-23,4.2-33.6,8.4c-1.3-1.9-2.7-3.6-4.3-5.3
		c-6.5-6.5-15.1-10.1-24.3-10.1C105.1,51.6,89.6,67,89.6,86c0,7.9,2.7,15.5,7.6,21.6c-18.7,23.1-30,52.5-30,84.5
		c0,35.9,14,69.6,39.3,95c12.4,12.4,26.8,22.1,42.4,28.7c-0.9,7.1,0.3,11.9,1.6,13.9c-2,1.7-2.8,2.7-3.1,4.6
		c-3.1,4.3,4.5,9.7,7.6,12c6.4,4.9,9.8,4.1,14.7,3.8c6.2-0.3,11.9-7.5,15.3-12.1c6.6-0.9,7.9,0.1,8.1,0.9c2.1-0.3,5-0.8,8.9-2.5
		c9-3.8,6.4-8.4,5.5-9.2c-0.2-0.2-0.4-0.5-0.6-0.9c21.3-0.8,41.7-6.6,59.9-16.8c0.6,0.7,1.3,1.5,2,2.5c2,2.9,3,12.3,3.4,17.2
		c0.4,4.9,1.2,8.2,3.6,15.9c2.4,7.7,3.3,2.1,3.4,0s0.5-9.5,0.2-14.9S279,317,280,313.7s-0.8-4.2-1.3-4.8c-0.5-0.6,0-0.8-1.4-5.1
		c-0.1-0.2-0.1-0.5-0.2-0.7c6.8-4.7,13.3-10,19.3-16C321.8,261.7,335.8,228,335.8,192.1"/>
	<path class="st1" d="M335.8,192.1c0-35.9-14-69.6-39.3-95c-21.9-21.9-50-35.3-80.4-38.6c-0.7-0.7-1.5-1.3-2.4-1.9
		c-10.8-6.9-19.7-1.8-25.9,1.2c-0.4,0.2-1,0.5-1.6,0.8c-11.7,1.3-23,4.2-33.6,8.4c-1.3-1.9-2.7-3.6-4.3-5.3
		c-6.5-6.5-15.1-10.1-24.3-10.1C105.1,51.6,89.6,67,89.6,86c0,7.9,2.7,15.5,7.6,21.6c-18.7,23.1-30,52.5-30,84.5
		c0,35.9,14,69.6,39.3,95c12.4,12.4,26.8,22.1,42.4,28.7c-0.9,7.1,0.3,11.9,1.6,13.9c-2,1.7-2.8,2.7-3.1,4.6
		c-3.1,4.3,4.5,9.7,7.6,12c6.4,4.9,9.8,4.1,14.7,3.8c6.2-0.3,11.9-7.5,15.3-12.1c6.6-0.9,7.9,0.1,8.1,0.9c2.1-0.3,5-0.8,8.9-2.5
		c9-3.8,6.4-8.4,5.5-9.2c-0.2-0.2-0.4-0.5-0.6-0.9c21.3-0.8,41.7-6.6,59.9-16.8c0.6,0.7,1.3,1.5,2,2.5c2,2.9,3,12.3,3.4,17.2
		c0.4,4.9,1.2,8.2,3.6,15.9c2.4,7.7,3.3,2.1,3.4,0s0.5-9.5,0.2-14.9S279,317,280,313.7s-0.8-4.2-1.3-4.8c-0.5-0.6,0-0.8-1.4-5.1
		c-0.1-0.2-0.1-0.5-0.2-0.7c6.8-4.7,13.3-10,19.3-16C321.8,261.7,335.8,228,335.8,192.1"/>
	<path class="st0" d="M230.7,103c2.9,1.5,6.2,4.6,4.9,10.5c-0.5,2.4-2.5,4.7-2.7,5.6c-0.3,1.6-3.6,4.2-4.6,6.3
		c-1,2.1-1.2,3.8-0.9,4.7l0,0c1.7,1.6,5.4,3.6,7.5,4.4c1.6,0.6,1.5,1,0.8,2.1c1.1,0.1,1.7,0.8,2.8,2.1c1.1,1.4,4.1,0.5,6-0.4
		s4.3-1.2,6.1,1c1.9,2.3,4.7,6.5,6,10.5c1.4,3.9,2.8,7.2,3.2,7.8c0.4,0.6-1.5,12-2,16.6s-0.9,6.5-1,7.3c-0.1,0.7,2.9-2.6,3,1.3
		c0.1,3.1,1.5,13.2,3.2,20.7c0.4,1.9,0.9,3.6,1.3,5c1.2,0.2,2.3,2.7,3,6.5s2.3,6.2,2.4,8.1c0.1,1.9,0.6,2.2,1.2,2.5s0.4,1.2-1.5,3.4
		c0.4,0.3,1,0.9,1.5,1.3c0.5-0.5,2-2.2,2-2.2s5.7,2.3,7,2.7c1.2,0.4,2.7-2.7,6.4-1c1,0.4,2.1,1.9,2.9,3.2
		c5.8-12.4,9.1-26.3,9.1-40.9c0-25.9-10.1-50.2-28.4-68.5c-11.2-11.2-24.6-19.3-39.2-23.9C230.7,101.1,230.7,102.5,230.7,103
		 M260.7,266.2c-1.4-0.7-2.4,0.3-3.1-5.4c-0.2-1.7-1.6-3.8-2.6-4.9c-1-1-1.2-3-0.6-4.7c0.8-2.6,1-5,0.9-7.1s0.3-4.7,3.2-5.9
		c-1-1.1-1.6-2.6-1.9-3.7c-4.3-1.4-5.1-1.5-6-3.6c-1.4-3.5-2.3-8.5-2.8-11.3c-0.2-1.4-0.4-2.6-0.4-3.7c-1.4-2.6-4.4-8.3-6.7-12.6
		c-0.9-1.6-1.6-3-2.2-4c-2.1-3.6,0-8.4,1-11.2s1.9-5.3,0.9-8.1c-0.9-2.8-0.9-3.4-1.1-4.6c-0.2-1.1-1.1-2.6-2.4,1.4
		c-1.2,3.9-3.6,9.8-5,15.8c-0.8,3.4-1.3,7.1-1.1,10.7c0.1,2.7,0.7,5.4,1.8,7.8c2.7,5.6,5.9,10.8,5.5,13.9c-0.4,3.1-1.1,3.2-1.1,3.7
		c-0.5,6-3.1,17.5-4.5,20.9c-1.3,3.3-6.6,15.4-7.8,20.4c-0.9,3.9-3.3,12.2-5.3,17.2c15.5-2.9,29.8-9.6,41.7-19
		C261.6,267.5,261.6,266.7,260.7,266.2 M145.3,130c1.1,1.5,2.6,2.9,4.6,3.9c5.1,2.6,6.1,4.5,6.1,8.9c0,4.5,0.8,13.6,2.3,15.2
		c0.9-0.9,2-2.3,2.2-2.7c1.5,2.7,4.4,7.7,9,10.8c0.3,0.2,0.2,1.4,0.9,1.6c1.6,0.4,11.6,2,11.9,4.1c2.1-2.1,5.4-7.3,6-9
		c0.6-1.8,4.3-7.4,7-10.5c0-1.2,0-2,0.1-2.3c-0.7,0.6-1.9,2.2-3.5,2.9c-1.7,0.7-7.5,3.2-11.6,5.3c-1.5,0.7-4,1.6-5.1-6
		c-1-7.6,0-11.5,0.7-13.3s2.1-3.3,4.7-2.6c2.6,0.7,6.7,2.3,7.9,2.3c0.2-0.8,0.9-2.4-1.9-2.7c-2-0.2-7.2-1.7-10.1-5.7
		c-1.2-1.6-2-3.7-2.1-6.2c-5.9,0.9-19.5,2.7-22.5,3.4s-5.6,1.3-6.5-5.5c-0.4-2.9-1.1-7,0.9-5.5c1.7-1.2,4-2.7,8-2.1
		c0.7,0.1,1.7,0.7,1.9,1.3c0.2,1-0.2,2.7-0.7,4.2c-0.9,2.8-2.6,4.8,3,3.5c5.9-1.4,13.4-2.5,15.4-2.9c0.3-2,1.9-5.1,3.9-7.4
		s2.3-4.2,2.4-4.9c0.1-0.7-0.6-0.9-1.6,0c-1.1,1-4.6,3.1-7.8,2.3c-1.2-0.3-2.8-2.7-3.6-4c0.7-1.4,2.4-3.9,4.5-6.4
		c-11.1,3.5-21.4,9.1-30.6,16.4c-0.1,1.2,0.1,3.8,0.9,6.8C142.5,125,143.5,127.7,145.3,130 M152.5,271.8c4.3-1.7,7.6-1.6,10.9,2.8
		c0.9,1.2,1.7,4.9,9.7,1.7c-4.3-5.1-6.8-11.1-9.1-19.2c-3.7-12.8-12-27.3-8.9-33.9c-1.8-1.7-3.8-8.1-6-7.4c-1.5,0.5-3.5,0.5-1.9-4.4
		c0.7-2.2,2-4.9,4.3-8c2.8-3.9,7.3-8.6,14.6-14.2c0.6-0.5,0.7-0.9,0.3-1.3c-0.7-0.7-1.5-1.6-2.2-2s-1.5-0.2-2.1,0.4
		c-0.6,0.6-1.7,1.4-2.3,1.8c-0.6,0.4-5.6-4.5-8.2-8c-2.6-3.5-5.3-4.7-6.1-5.1c1-1.1,3.4-3.6,2.5-3.3c-1.6,0.5-4.3,0.9-7.1-2.1
		c-3.4-3.6-2.1-5.5-2.8-6s-4.5,0.3-7.3-4c-2.8-4.4-3.9-6.3-1.7-9.3c1.1-1.6,1.6-2.3,1.2-4.3c-0.3-2,0-3.2,2.6-5.7s4.2-4.8,5.3-4.6
		c0.9,0.2-1.7-3.1-3.3-5.6c-0.4-0.7-0.8-1.3-0.9-1.7c-0.4-1-1.1-2.7-1.2-4.6c-18.2,18.3-28.3,42.6-28.3,68.4
		c0,25.9,10.1,50.2,28.4,68.5c4.3,4.3,8.9,8.1,13.8,11.5C148.9,269.8,151.4,270.7,152.5,271.8 M97.4,67.1
		c8.5,2.2,14.9,9.1,17.7,12.9c0.7,1,1.5,0.8,1.8,0.1c0.7-1.5,1.9-6.5,1.9-10.4c0-8.7,1.2-12.2,3.4-16.2
		C111.9,54.1,102.9,59.3,97.4,67.1 M92.2,93.8c16,1.5,21-7.5,22-8.8s-0.2-2.2-0.7-2.9c-2.8-3.9-8.9-10.7-17.5-12.9
		c-3,4.9-4.7,10.7-4.7,16.9C91.3,88.7,91.6,91.3,92.2,93.8"/>
	<path class="st0" d="M155.6,93.2c-6.7-2.8-14.8-0.2-20.5,4.8s-8.6,8.8-10.6,20.6c-0.2,0-0.5,0-0.7,0c-8.5,0-16.1-3.2-21.9-8.5
		c9.8-2.5,18-7,27.2-15.7s13.8-18.9,15.1-23.7c1.2-4.8-0.5-2-1.5,0.2c-1.4,3.4-6.2,12.5-15.7,21.3c-9.4,8.8-16.7,13.2-26.6,16.5
		c-3.3-3.4-5.8-7.5-7.4-12c3.3,0.2,13.8-1,19-5.3c6.9-5.6,7.7-12.4,8.6-21.9s2.3-12.4,4.6-16c17.3,0.8,31.1,15.1,31.1,32.5
		C156.4,88.5,156.2,90.9,155.6,93.2"/>
	<path class="st0" d="M154.7,96.5c-1.6-2.2-7.1-3.2-15.9,2.3c-0.8,0.5-1.4,0.9-0.4,1.9c1.9,1.9,4.7,5.4,6.6,10.2
		C149.5,107,152.8,102.1,154.7,96.5 M142.4,112.8c-1.9-4.6-3.4-7.9-5.2-10.2c-1-1.2-1.1-1.8-2.9-0.2c-4.9,4.3-6.8,10.9-7.8,16.1
		C132.4,118,137.9,116,142.4,112.8 M133.5,149.3c-1.3-0.4-2.4,1.1-3,2.4c-0.6,1.2-1.4,2.6,0.6,5.4c2,2.8,3.2,4.5,6.6,4.3
		c1.7-0.1,3.1-1.3,3.6-2.1c0.5-0.7,0.6,0.5-0.2,1.8c-0.8,1.2-1.5,4.2,0.1,6.1c1.6,2,4.8,3.6,9,1.1c4.3-2.5,6-5.5,6.7-6.9
		c0.7-1.3,0.7-2,0-2.8s-3.1-4.8-3.6-12.6c-0.3-4.7,0.5-7.7-2.4-9.3c-2.9-1.7-9.6-5.6-10.4-13.3c-0.3-2.9-0.1-7.4-3-5s-2.9,4-3.2,5.8
		s1.1,4.2,2.4,5.8c1.2,1.7,2.7,5.3,3.8,6.2s1.9,1.7,2.8,1.8c0.9,0.1,4.7,0.1,5.6,0.4c0.9,0.3,1.5,1.5-0.8,1.5s-5.8,0.6-7.4,0.8
		c-1.6,0.2-3,0.3-3.7,3.4c-0.7,3.1-1.8,6.7-1.9,7.9c-0.1,1.1-0.7,1.8-0.7,2.4c0,0.6,1.2,3.6,4,0.6s3.9-6,4.5-7.5
		c0.5-1.5,1.1-1.2,0.6,1c-0.5,2.3-0.7,8,0.4,10c1.2,2.1,3.5,4.3,6.5,2.8c0.6-0.3,1.7-0.8,2.5-0.7s-0.2,1.6-0.9,2.2
		c-0.7,0.6-3.1,3.3-7.3-0.5c-1-0.9-2.5-3-2.8-5.6c-0.1-0.8-1.2-1.1-1.8-0.4c-0.5,0.7-3.3,3.3-5.3,1.5c-2-1.9-2.8-2.9-1.7-6.9
		C133.6,150.2,134,149.4,133.5,149.3"/>
	<path class="st0" d="M135.6,143.4c-0.4,1.3-0.8,3.1-1,3.7c-0.2,0.6-1.1,2-2,0.2c-0.8-1.8-0.8-3.2,0.5-4.5c0.4-0.4,1-1.2,1.5-0.8
		C135,142.5,135.7,143.1,135.6,143.4 M140.3,138.7c-0.9,0.4-2.7,0.4-3.3,1.9c-0.4,0.9-2.1-0.1-1.2-1.2c0.8-1.1,1.5-1,2-1.4
		c0.5-0.3,0.7-1.2,1.8-0.7C140.5,137.7,140.7,138.5,140.3,138.7 M208.7,87.3c-2.9,0.3-5.6,2.1-8.3,3.9c-2.7,1.9-12.5,10.1-14.7,11.7
		c2.4,1.2,3,3.7,2.2,7.9c-0.2,0.9,0,1.2,0.6,0.6s3.5-3.7,3.4-6.2s-1.2-3.9-1.5-4.3c-0.2-0.3,0.8-1.6,2,1c1.1,2.6,0.8,6.2-2.6,10.3
		c-3.4,4-6.1,3.9-7.6,4.7c-1.5,0.7-2.9,1.9-1.6,4c1.3,2.2,3.9,1.3,5,0.6c1-0.7,2.5-1.6,5.8-1.2c3.3,0.3,4.4-1.8,2.2-4
		c-0.7-0.7-2.6-2.4-0.3-2.4c1.4,0,3,3,3.9,3.8s3,1.1,5.8,1.3c2.8,0.2,7.2,1.2,7.2,3.9c0,1.7-0.9,2.1-2.1,0.8
		c-0.5-0.5-1.1,0.3-1.7,0.8c-1.8,1.8-6.3,6.5-9.5,7.4c-3.2,0.8-4.4-0.1-8.7-2.4c-4.3-2.3-8.2-4.6-9.3-5.3c-1.1-0.7-3.5-2.4-2.4,0.9
		c1.1,3.3,3.9,6.7,9.5,8.6s6.4,2.5,7.7,3.1c1.2,0.6,0.5,1.2-1.1,1c-1.4-0.2-3-1.5-1.8,1.4c1.2,2.8,3.1,5.8,8.8,5.1s5.9-1.9,9.4-7.9
		c0.6-1,1.2-0.3,0.8,2.4c2.8-1.4,4.4-1.8,6-2.2c1.7-0.4,6-1.9,8.8-7.2c1.5-2.7,2.2-3.6,2-6.4c-0.1-1,1.5-3.1,3-4.6
		c1.6-1.5,5.8-7,3.6-10.9s-5.8-2-7.6,0.9s-3.7,6.1-3.8,11.1c-1.2-0.4-2.5,0-3.1,1c-0.3,0.5-4.9-0.1-6.4,0.3
		c-1.6,0.4-2.1-0.5-0.4-2.7c1.7-2.2,7.5-10.1,7.2-16c-0.1-1.8,0.1-2.1,0.4-3.4c0.4-1.7,0.5-1.7-1.6-2.9c-1.4-0.8-1.5-2.9-1.7-4.6
		c-0.3-1.8-0.6-1.8-2.6-1.3C212.3,90.6,209.8,89.2,208.7,87.3"/>
	<path class="st0" d="M196.5,119.8c-0.6,1.3-2.1,2.5-5.8,2.1c-1.8-0.2-3.6-0.2-3.9,1.2c-0.2,1-1,0.9-2.2,0.9
		c-1.2-0.1-2.5-0.4-2.5,0.1c-0.1,0.4,5.1,3.5,6.8,4.3c1.7,0.8,4.2,2.6,6.2,2.4c2.7-0.3,5-1.6,9-5.8c1.6-1.7,3-2.6,1.4-3.4
		c-1.1-0.5-2.1-0.6-3.5-0.6C200.7,120.9,197.7,120.7,196.5,119.8 M177.2,119.8c-1.4-0.1-1.6-1.1-0.6-2.6c0.9-1.6,1.8-3,3.1-3.9
		c0.2,0.7,0.6,1.5,1.2,1.9c-0.8,0.9-1.9,2-1.7,4.2L177.2,119.8"/>
	<path class="st2" d="M230.7,111.1c-1.2,0.9-1.9,1.1-2,2.6s-0.4,3.9-0.9,4.2c-0.7,0.3-0.6-1.3-0.8-0.8c-0.3,0.7-1.2,0.4-1.5-0.3
		c-0.1-0.3-2.7-0.3-0.6-3.3c1.9-2.7,3.3-4.2,4.7-4.8C230.9,108,233.2,109.3,230.7,111.1"/>
	<path class="st0" d="M281.5,234.4c-0.5-1.2,0.4-3.3,3-1.8s4.6,2.7,2.7,8.4s-3.2,9-3.9,11.4c-0.7,2.4-3.5,5.4-2.6,1.3
		c0.9-4,1.4-8.9,1-11.4c-0.7-4.6,0.7-4.3,0.3-6.4C281.7,235.3,281.7,234.9,281.5,234.4 M291.3,239.3c0.7,2.2,1.6,7.4,0.3,9.4
		c-1.2,2.1-5.1,7.8-6.5,9.2c-1.5,1.5-2.6,0.8-1.7-0.7c0.9-1.6,2.2-3.6,2.2-4.4c0-0.7-0.1-1.6,1.1-3.9c1.2-2.4,3.4-10.4,3.6-11
		C290.6,237.4,291.1,238.7,291.3,239.3 M264.5,258.5c-0.6-1.9-0.9-4.6-2-6.1c0.8-2.3,3.6-8.4,8.2-10.3c0.5-0.2,0.8-0.7,0.6-1.1
		c-0.2-0.4,0.6-0.7,1,0.7c0.4,1.5,1.1,5.6,1.1,5.6c0.2,0.9-0.2,1.7-0.4,2.9c-0.2,1.2-0.7,4-0.4,5.5c0.3,1.5,0.8,2.5,3.7,1.9
		c1.5-0.3,1.4-0.7,1.8-2c0.4-1.2,1.6-4.8,2-6.7c0.4-2,0.1-6.8-0.4-8c-0.4-1.2,0.2-5.5-0.2-6.3c-0.3-0.8-0.5-2.1-3.1-2.9
		c-2.6-0.8-3.3-1-5.1,0.7c-1.8,1.8-2.4,2.5-3.2,3.3c-0.8,0.8-2.9,0.1-1.1-1.6c1.8-1.7,3.4-3.3,3.9-3.8l-0.5-1.3h-0.9
		c-2.8,2.8-6.5,4.5-9,5c-0.9,0.2-2.7,0.3-1.5,2c0.3,0.4,0.4,1.6,1.1,1.1c0.7-0.4,1.9-2.3,2.9-1.5s-0.2,2.8-1.5,3.7
		c-1.2,0.9-2.6,1.9-3.5,2.4s-1.5,1-1.3,2.7c0.1,1.7,0.2,4.7-0.7,7c-0.9,2.3-0.4,2.9,0.4,4.5s2.2,2.9,2.6,5.4s0.6,3.1,2.3,2.9
		c1.7-0.2,2.3-0.9,2.9-2L264.5,258.5"/>
	<path class="st0" d="M265.1,263.3c-0.7,1.2-2,3.2-2,5s-1.8,3.6-1.6,4.5c0.2,0.8,2.5,3,3.8,5.3s3.1,5.7,3.1,11.4
		c0,5.7-1.9,13.5-2.1,14.5s-0.7,1.9,0.8,3.3c1.6,1.5,4.1,4.2,5,10.3c0.9,6.1,1.6,9.3,2,9.7c0.4,0.3,0.3,0.8,0.3,2s1,7.7,1.8,8.9
		c0.7,1.2,0.6-7.1,0.5-9.4c-0.1-2.4,0.1-13.8,0.5-15.5s0.8-3.5-0.6-5.6s-3.9-5.7-2.1-11.7c1.9-6,4.9-5.9,3.9-8.3
		c-0.9-2.4-2.6-4-3.8-5.4c-1.2-1.4-0.3-4.6-0.3-5.9c-0.1-2.5-2.1-2.9-2.3-5.7c-0.2-2.8-0.4-5.1,1.7-7.9s-0.7-2.7-1.7-4.5
		c-0.9-1.8-1.4-4.1-0.6-7.8c0.4-1.9,0.2-2.4-0.3-2.6c-0.5-0.2-2.7-0.6-2.7-0.6l-3.2,6.4c0.5,1.2,0.7,3.1,0.7,4.4L265.1,263.3
		 M235.1,137c-2.6,3.4-6.5,12-8.4,17.4s-6.1,18.3-3.1,26.8s8.9,3.1,10.3-0.1c1.3-3.2,3.4-8.7,4-10.2s0.9-2.3,2.1,1.1
		c1.1,3.4,2.8,11.6,2.8,12.4c0,0.7-1.1,2.8-2.4,6c-1.2,3.2-2,5.5-0.7,7.5c1.2,2,6.1,10.4,7.7,14c0.9,2.2,1.8,2.6,4.3,2
		s8.5-2.7,10.3-3.5c1.8-0.8,0.9-2.3,0.4-4c-0.8-2.7-3.9-17.6-3.9-19.6s0.5-4.6-2.1-1.7c-0.9,1-2.2,0-1.9-1.5s3.4-21.7,3.6-24.2
		c-1.8-3.8-7-16-8.4-18.2c-1.5-2.2-2-2.3-4.2-1.1c-2.2,1.1-7,2.9-8.8-1.2c-0.3-0.7-0.8-2.4,0.4-2.6l-0.9-0.3
		C236.2,136,235.4,136.6,235.1,137 M262.3,211.6c-1.9,1.1-8.5,3.9-11.2,4.4c-2.8,0.4-2.1,1.1-1.6,3.2c0.5,2.1,2.1,8.3,2.9,10.5
		c0.8,2.2,2,2.1,4.2,2.1c3.3-0.1,8.9-1.6,13-5.3c-1.1-1.3-3.1-7.8-3.7-10.6C265.2,213,265.2,210,262.3,211.6 M202.9,151.7
		c-0.2,0.4-0.9,1.7-2.6,1.7c-1.7,0-3-0.5-4.1,0.9c-1,1.5-6.7,8.4-8,12.7c1.2,2.6,2.9,7.3,4.2,10.6c4-3.4,17-16,19.4-18.5
		c0.9-0.9,1-1.8-0.3-2.7s-6.3-4.1-7.2-4.6C203.5,151.3,203.1,151.3,202.9,151.7 M170.2,170c-0.8,3.2-2.4,8.8-5,13.2
		c1,1.7,1.9,3.1,3.1,3.6c2.9-2.1,8.4-7.2,10-9c1.6-1.9,3.5-4.7,3.5-5.3s-0.7-0.8-1.7-0.6c-0.9,0.2-4.8-1.3-8.5-2.1
		C170.6,169.6,170.3,169.6,170.2,170 M167.9,166.9c-1.1-0.2-5.1-4.5-6.4-6.7c-1.3-2.3-1.6-2.1-2.1-0.4c-0.5,1.7-2.5,5.3-3.8,7.1
		s-4.9,6.3-5.8,7.4c-0.9,1,0,1.5,0.8,2.3s5.1,6,6,7.2c0.9,1.1,2,3.2,4.5,0.9s5.5-6.4,6.9-10.7c1.3-4.3,1.4-6.5,2.6-6.2l0.1-0.9
		l-0.3-0.5l-0.6-0.5c0.2,0.4,0.2,0.7-0.1,1.1C169.2,167.2,168.4,167,167.9,166.9 M231.4,71.4c-2.8,3.3-8.4,6.2-17.9,8.6
		c-9.4,2.4-18.5,9-22.3,12.2s-13.5,11.1-18.2,13.1c-1.2,0.5-3.9,2.3-0.5,2.7c2.5,0.3,4.3-1.1,9.7-5.1c5.4-3.9,9.6-6.8,13.7-10.8
		c3.8-3.7,10.8-7.3,18.3-9.3c7.5-2.1,17.3-5.3,20.1-8.4c1.3-1.5,1.5-2.2,0.2-3.4C233.3,69.7,232.5,70.1,231.4,71.4 M183.8,104.1
		c-0.8,0.4-1.1,0.9-2.1,3.9c-0.9,3-0.8,4.8-0.1,5.5c0.6,0.5,1.4,0.6,1.8,0.6c0.3,0,0.6,0.1,0.6-0.8c-0.1-0.9-0.1-4.6,2.7-6.3
		c0.5-0.3-0.1-2.5-1.9-2.2C184.2,104.9,184.8,103.5,183.8,104.1 M151.7,115.9c1.5,0,2.4,0,2.3,1.7c-0.1,1.7-0.8,3.9-0.9,5.5
		c-0.1,1.6-0.1,2.2,0.8,2.2c0.9,0-1.3,0.9-2.6,1.1c-1.2,0.2-3.2,0.9-4.2-4.4c-0.3-1.7-0.2-4.3-0.4-4.9
		C148.1,116.6,149.9,115.9,151.7,115.9 M179.3,120.4c0.4,2.1,1,2.1,0.5,2.4c-0.4,0.3-0.9-0.8-2.5-0.5s-14.7,2.3-15.6,2.4
		c-2.9,0.3-3.1-0.2-0.4-0.7c2.7-0.6,12.6-2.4,15.5-3L179.3,120.4 M163.5,279.1c1.3,0.8,4.6,1.8,10.1-0.5s11.6-0.7,12.6,3.2
		c0.9,3.9,1,9-0.7,11.2c-1.5,1.9-2.8,1.7-4.5,1.1c-3-0.9-10-4.2-11.9-5.1c-2-0.9-5.3-2-7.7-2c-0.9-2-0.8-5.4-0.2-6.6
		s0.6-2.5,1.1-2.2C162.8,278.6,163.5,279.1,163.5,279.1 M185.3,297.5c1.4,0,3.8,0.6,4.6,3c0.6,2,4.7,2.5,6.4,2.4
		c1.8-0.1,1.5,0.8,1.3,1.9c-0.1,1-0.4,4.2-0.4,5.4c0,1.2,0.3,5.6,0.5,6.4s-0.5,1.2-1.5,1.7c-0.9,0.4-4.4,1.5-6.5-0.1
		c-1.1-0.8-2.5-2-1.1-2.1s-1.7-11.8-2.5-13.9C185.3,300.1,182.9,297.5,185.3,297.5 M149.6,273c0.6,0.2,0.8,0.7,1.2,1.5
		c0.4,0.7,0.6,1.4-0.1,2.1c-1.1,1.2-2.5,7-2.3,11c-0.7-0.2-2.3-0.5-3.1-0.3c-0.3-2.3-0.1-9.4,0.9-11.7
		C147.3,273.2,148.4,272.6,149.6,273 M149.8,336.3c2.6,2.9,7.5,7.4,11.1,8.9c3.6,1.6,6,2.1,9.2,1.8c2.6-0.3,2.1,0.8,0,1.1
		c-2.1,0.3-6.8,0.3-10-1.4c-3.1-1.7-8.1-4.7-11.2-9.2C148.3,336.5,149,335.4,149.8,336.3 M203.9,329c-2.1,1-6,2.9-9.8,3.8
		c0.4,1.9,0.5,2.7,0.5,3.2c2.3,0,6.7-1.6,10.3-3.8c0.8-0.5,1.1-1.1,0.8-1.9C205.4,329.6,205,328.5,203.9,329 M179.3,320.5
		c-0.5-0.5,2.4-1.1,3.1-1.1c0.7,0.5,2.1,1.6,2.5,2.1c0.3,0.3,0.2,0.5-0.2,0.7c-0.3,0.2-2.1,0.7-3,0.7
		C180.8,322.1,179.6,320.8,179.3,320.5 M168.1,297.6c-0.8,0-5.5,0.4-6.4,0c-1-0.4-1.6-1.5-0.9-2c0.8-0.6,2.4,0.2,4,0.2
		s3.3-0.4,3.7-0.2c0.4,0.3,1,0.2,1,2.1L168.1,297.6"/>
	<path class="st1" d="M204.3,78.3c1.4,0.2,3,0.1,3.3-0.9c0.4-1,0-1.6-0.4-1.8c-0.5-0.2-0.7-0.2-0.5-1.1s0.9-0.8,0.8-2.3
		c-0.1-1.5-1.1-1.5-2.1-1.2s-1.3,0.8-2.3,2c-0.9,1.2-0.5-0.8-0.4-1.2c0.1-0.3,0.5-2.7-0.8-3.2c-0.7,0.4-1.4,0.7-2.1,1.1
		c-0.2,0.5-0.4,1-0.6,1.5c-0.5,1.3-1.2,0.3-1.6-0.3l0,0c-1.4,0.8-2.6,1.5-3.5,2.1c-0.1,0.1-0.2,0.1-0.3,0.2c0.1,0.8,1.1,1.9,1.7,2.2
		c0.7,0.5,0.3,1.3-0.6,1.3c-0.8,0-1.9-0.6-2.9,0.7c-1,1.2-0.4,2.4,0.6,2.4s1.8,0.4,2.2,1.5s0.7,1.6,2,1.8c1.3,0.2,2.1-0.9,2.5-1.5
		s0.8-1.5,1.4-1.3c0.9,0.3,0.7,1.2,0.5,2.1c1-0.6,2-1.1,3-1.6c-0.2-0.9-0.7-1.7-1.1-2.1C202.7,78.3,202.9,78.1,204.3,78.3
		 M215.8,63.2c-0.5,0.1-1,0.2-1.5,0.4c0.2,1.2,0.7,2.7,0.5,2.9c-0.3,0.3-1.5,0.5-2.4,0.7c-0.9,0.3-3.2,2.3-2,3.8
		c1.1,1.5,1.5,2.4,1.7,3.2c0.2,0.8,2.1,1.7,3.4,0.2c1.3-1.6,2.3-3.3,2.6-2.2c0.3,0.9,0.2,3.1,0,4.3c0.3-0.1,0.5-0.1,0.8-0.2
		C219.4,70.6,217.9,66.4,215.8,63.2 M187.3,91.1c-0.7-0.6-0.9-1.5-0.1-1.7c0.9-0.3,2.1-0.5,4.3-1.4s1-2.5,0.1-3
		c-1-0.4-1.1-1.3-1-2.3s-0.2-2.4-2.1-1.7c-1.9,0.7-1.2,2.6-1.8,3.2s-0.9,0.4-0.8-0.5c0.1-0.9-0.7-1.6-1.2-1.8
		c-0.4-0.2-1.2-0.4-1.8-0.4c-2,1.8-3.8,3.7-5.2,5.5c0.3,0.6,1,1.4,1.4,1.5c0.5,0.2,1.3,0.5,1.2,1.6c0,0.9-2,0.9-3.3,1
		c0.9,2.5,1.9,4.2,3.1,5.6c0.3-0.1,0.7-0.2,1.2-0.4c1.6-0.7,2.1-3.1,2.4-3.8c0.3-0.7,0.9-0.6,1.4,0.4c0.3,0.7,0.4,1.3,0.5,1.8
		c0.9-0.9,1.8-1.8,2.7-2.6C188.1,91.7,187.8,91.4,187.3,91.1 M214.9,153.1c0.3-0.1-0.5-3.7,0.2-3.9s1,2,2.4,1.8
		c1.5-0.3,1.8-1.7,1.6-3.3s0.7-0.7,1.5-1.9c0.7-1.1-0.8-2.7-2.6-1.6c-1.8,1.1-1.5-0.4-0.5-0.9c0.9-0.6,0.3-2.6-1.7-2
		c-1.4,0.5-2.1-0.4-2.8-0.8c-0.5,0.2-1,0.4-1.6,0.7c-0.1,0.4,0,0.9,0.1,1.4c0.1,0.7,0.5,2.4-0.6,1.7c-0.9-0.6-2.2-1-2.6,0.2
		c-0.4,1.2,0.4,1.3,0.3,2c-0.1,0.7-2,0.9-1.1,2.4s2.2,0.7,3.1,0.1c0.9-0.6,1.7,0.1,1.4,0.9c-0.2,0.6-0.7,2.6-0.8,4
		c0.4,0.3,0.8,0.6,1.3,0.9C212.9,154.1,213.9,153.3,214.9,153.1 M186.6,149.5c0.8-0.2,2.3,1.4,3.6,0.5c1.4-0.9-0.6-1.9-0.3-2.6
		c0.3-0.8,0.9-2.3-0.1-3c-0.9-0.7-1.9-0.1-2.9,1s-0.6-1-0.1-1.9c0.7-1.1,0-1.9-1.1-2.1c-1.1-0.2-1.5,1.4-2.3,0.7
		c-1.2-1.2-3.2-0.7-2.7,0.9c0.5,1.6,1,2.1,0,2.3s-1.9-2.4-3.1-0.3c-1.1,2.1,0.7,2.7,0.5,4.3s0.5,3.2,1.4,3.4s1.9-0.9,2.4-1.5
		s1.8-1.1,1.6,0.1c-0.1,0.8-0.2,2.5-0.2,3.5c1.9-0.9,4-1.9,5.1-2.3l0.1-0.1c-0.5-0.2-1.3-0.6-2-1
		C185.7,150.7,185.8,149.7,186.6,149.5 M163.6,196.8c2.4-0.7,2.5,1.1,2.2,2.7c-0.3,1.6-0.3,4.9-0.2,6.5l3.9,0.2
		c-0.2-1,0-4.1,0.1-5.8c0.1-1.8,1.9-4.5,2.5-1.8s3.3,2.8,5.2,1.7s3.2-3.6,5.2-7.2c2-3.5-0.6-4.5-2.2-4.3c-1.6,0.2-3.1,0.4,0.4-2.5
		c3.3-2.7-2.2-4.1-4.8-4.6c-4.2,4.4-9.3,9.4-13.9,13.3c-0.6,0.5-1.1,1-1.7,1.4C161,196.9,162,197.3,163.6,196.8 M159.5,222.9
		c2-0.6,3.2,3.6,6.1,1.1c2.9-2.5,0.8-4.6,0.7-6.6c-0.1-2.1,2.3-2.9,1.6-5.5c-1.1-4-4.8-0.2-7.1,2s-2.4,0.4-0.1-3.1
		c2.3-3.5-1.5-4.7-3.7-3.7c-2,0.8-3.9,0-5.1-1c-0.9,1.4-1.5,2.7-2.2,4.1c-2,4-0.6,4.1,0.8,4.1c1.5,0,4.6,6.1,5,7.3
		c0.1,0.4,1.2,2,2.6,4C158.1,224.5,158.3,223.3,159.5,222.9 M216.2,182.1c-1.9-0.4-4.3-0.7-4.6,3.1c-0.1,1.5,1.3,2.6,2.7,3.1
		s1.1,1.4-0.3,0.9c-1.5-0.5-2.6-0.8-3.6,2.2s0.8,3.4,1.8,3.6c0.9,0.2,1.7,0.4,1.5,1.7c-0.2,1.2-0.8,4.9,1.6,5.2
		c2.4,0.3,4.5-2.6,5.2-4c0.7-1.5,1.6-2.9,1.8-1.2s-0.1,2.5-0.9,4.4c-0.8,1.9-0.8,2.7,0.4,2.6c1.2-0.1,3.3,0,3.9-1.5
		c0.6-1.5,1.6-4.3,1.7-6.2c0.1-1.2,1.1-1.4,1.9-1.3c0.2-2.1,0.6-4.2,0.9-6c-4.1,0.6-7.5-4.4-8.7-8.7
		C219.9,181.4,217.9,182.4,216.2,182.1 M196.8,181.3c-0.7,1.2-2.8,4.8-1.9,5.9c0.9,1.1,2-1.1,2.8-0.3s2.7,1.8,2.7,1.1
		c0-0.6,0.2-1.9,0.5-3.5c0.3-1.7,1-2.6,1.8-1.2c0.7,1.3,1.8,2.5,4.4,1.9c2.6-0.6,2.3-3.3,1.8-5.3s1.4-2.9,2.3-3.4
		c0.9-0.5,3.3-2.4,1.6-4c-1.8-1.7-3.3,0.7-4.9,1c-1.6,0.3-0.9-1,2.3-3.5c2.8-2.1,0.5-4.3-1.2-5c-4.5,4.5-12.4,11.8-14.1,13.5
		c-0.6,0.6-1.2,1.3-1.7,2.1C197.3,178.5,197.5,180.1,196.8,181.3 M222.6,223.1c1.3,1.2,4.6,3,6.8,0.9c2.3-2.1-0.5-4.4-0.8-6
		c-0.3-1.7,1.7-2.7,0.6-5.4c-1.8-4.7-4.5,0.9-6,2.5c-1.6,1.6-1.3-1.1,0.1-2.5c0.7-0.7,3.9-2.7,2.1-4.9c-1.9-2.2-4.6-0.9-5.9,0
		c-1.4,0.9-2.4,2.1-4.5,1.5s-3.8-0.8-5.1,2.2c-1.2,3,1.1,2.2,3.1,4.4s0.7,2.3-0.8,1.8c-1.6-0.5-2.3-2.5-4.6-2.2s-2.3,3.9-1.6,4.9
		c0.7,0.9,2.2,1.5,1.1,3.2c-1,1.8,0.5,3.8,2.4,4.7c1.9,0.8,4.7-2.5,5.7-3.8s2.1-1,1.9,0c-0.2,0.9-0.7,3.2-0.7,5.2
		c1.6-0.5,3.1-1,4.6-1.4c0-1.1-0.2-2.8-0.7-4.5C219.8,221.2,221.2,221.8,222.6,223.1 M195.6,234.2c-2.5,0.7-2.9-0.4-4.6-1
		c-1.7-0.6-1.8,0.8-0.6,2.6c1.1,1.8,2.4,3.4,1,3.4c-1.3,0-2.4,0.2-2.6,1.2c-0.2,1-2.4-0.2-2.9-2.4s-1-6.3-2.2-4.3
		c-1.1,2.1-2.2,5.5-5.1,3.9c-2.9-1.6-0.9-3.6-2.4-5.1s-2.8-3.3-1.3-5.9c1.5-2.6,2.7-0.4,4-0.4s1.6-1.2,0.3-2.2
		c-1.2-0.9-2.8-5.4,2.9-5.1c2.2,0.1,4.6-0.6,6.4-2c1.9-1.4,6.7-0.6,4.8,2.8c-2,3.4-1.4,4.1-0.2,2.9c1.1-1.2,2.6-3.5,4.8-2.9
		s1.2,2.3-0.1,4.1c-1.3,1.9-0.5,3.1,0.5,3.8C199.4,228.6,201.3,232.5,195.6,234.2 M206.2,209.7c-1.9,0.1-4.2-0.4-4.2-0.4
		c-0.2,2-2.1,4.8-4,7.7c-0.2,0.3-1.3,0.3-1.9-0.1c-0.5-0.4-2-1.1-0.8-2.4c1.1-1.2,3-3.8,2.7-5c-0.3-1.1-1.1-2.2-2.4-0.6
		c-1.2,1.6-3.2,4.8-5.4,4.9c-2.2,0.1-4.4-1.9-3.3-3.8c1-2,1.3-3-0.1-4.8c-1.5-1.8-0.9-4,2.2-5.4c0.9-0.4,2.6,0,3.7,0.9
		c1.1,0.9,1.8,0,0.2-0.9s-2.8-2.1-3-4.2c-0.2-2,1-4,3.7-2.9s4.4,0.2,5.5-0.7s6-2.1,5.3,2.2c-0.5,3.1-2,3.2-2.4,4.9s0.8,0.6,1.6-0.6
		c0.7-1.2,2.4-6.3,5.8-2.5c0.8,0.9,0.5,2.5-0.5,4.3s-0.2,2.8,0.4,3.7C209.9,204.8,211.4,209.4,206.2,209.7"/>
	<path class="st0" d="M291.8,127.1l3.2-2.2l6.9,10.2l4-2.9l-7.1-10l3.1-2.2l7.5,10.6l4.1-2.9L302.3,112l-18.4,13l10.1,14.4l4-2.9
		L291.8,127.1 M305.1,162.5l6-2.8l-4.1-9l14.1-5.9l-2.6-5.6l-19.9,8.7L305.1,162.5 M308.7,172.1l0.6,5.5l13.4-1.6l0.5,5.8l6-0.4
		l-1.7-19.4l-6,0.4l0.5,8.1L308.7,172.1 M309.3,191l0.1,6.6l19.6-0.1l-0.1-6.6L309.3,191 M318.6,207c-3.3-0.6-7.2-0.1-9.9,2
		c-2.4,1.9-3.6,3.7-4.2,7.1c-0.4,2.1-0.1,5,0.6,7.4l5.2-1.7c-0.5-1.2-0.7-3-0.2-4.8c1.1-3.5,3.9-5.1,7.5-4.6c3.7,0.5,5.9,4,5.2,8.1
		c-0.3,1.6-1.1,3-2.9,4.1l3.2,3.9c2.6-1.6,4.6-4.8,5-7c0.7-3.7-0.2-6.3-1.9-9.3C324.4,209.1,321.6,207.5,318.6,207 M315,234.4
		c-2.7-0.7-6.5,2.3-8.3,4c-1,1-4.7,4.7-6.3,4.1c-1.5-0.5-1-2.8-0.5-4.3c0.7-2.2,1.9-4,3.6-5.2l-3.3-1.4c-1.6,1.3-3.3,3.4-4.1,5.6
		c-0.8,2.5-1.2,5.4-0.8,7.2c0.5,2.4,1.3,3.9,4,3.6c2.1-0.2,7.3-3.6,10.3-6.4c1.5-1.4,2.8-1.6,3.5-1.2c1.1,0.6,1,2.5,0.6,3.6
		c-0.5,1.6-1.3,4-2.5,4.8l4.4,3c1.8-1.8,2.8-4.6,3.3-7.1C320.1,238.6,316.8,234.9,315,234.4 M290.3,104.1c-0.4-3-2.1-6.5-3.8-8
		c-2.6-2.3-5.8-2.9-9.1-2.5c-3.4,0.4-6.5,2.6-8.3,5.1c-1.9,2.7-3,6.5-2.3,9.8c0.7,3,1.9,4.8,4.7,6.8c1.8,1.3,4.5,2.1,7,2.5l0.5-5.4
		c-1.3,0-3-0.6-4.5-1.8c-2.8-2.4-2.9-6.2-1.2-8.7c2.2-3.1,6.1-3.7,9.5-1.4c1.4,0.9,1.9,2.4,2.2,4.5L290.3,104.1 M89.5,217.2
		c0.1-1.5,0.1-4.2,1.7-4.5s2.6,1.2,2.9,2.7c0.5,2.3,1.1,4,0.2,5.9l4.2-0.4c0.7-1.9,0.5-4.5,0-6.7c-0.5-2.6-1.4-4.4-3.2-6
		c-1.8-1.6-3.2-2-5.8-1.5c-1.6,0.3-4.5,3.2-4.6,9c0,1.1-0.3,3.2-1.3,3.2c-1.3,0.1-2.2-1.4-2.4-2.6c-0.3-1.6,0.1-5.2,0.7-6.6h-4.4
		c-0.6,2.5-0.9,6-0.3,8.5c1.2,5.6,4.6,7.5,7.4,7.2C87.5,225,89.1,221.9,89.5,217.2 M80.8,193.4l15.5-0.2l-0.1-4.9l-15.5,0.2
		l-0.1-6.6l-5,0.1l0.2,18.5l5-0.1V193.4 M108.8,144.8l-12-6.9v-0.1l15.8-0.3l3.8-5.8l-19.5-11.3l-3,4.6l13.3,8.4L89,133.9l-2.5,4.9
		l19.2,11.2L108.8,144.8 M89.4,156.1c3.4,0,6.2,2.8,6.2,6.2c0,3.5-2.8,6.2-6.2,6.2c-3.5,0-6.3-2.8-6.3-6.2
		C83.1,158.9,85.9,156.1,89.4,156.1z M89.4,174.3c6.6,0,12-5.4,12-12s-5.4-12-12-12s-12,5.4-12,12C77.4,169,82.8,174.3,89.4,174.3z
		 M97.1,247.5c-3.5,0-6.2-2.8-6.2-6.3s2.8-6.2,6.3-6.2c3.4,0,6.2,2.8,6.2,6.2C103.4,244.7,100.6,247.5,97.1,247.5L97.1,247.5z
		 M109.1,241.3c0-6.6-5.4-12-12-12s-12,5.4-12,12s5.4,12,12,12S109.1,247.9,109.1,241.3z M119.6,269.2l-0.4-0.5
		c-1.3-1.6-5.8-6.3-3.9-8.1c1.7-1.6,5.9,3.8,7.1,5.2l0.5,0.6L119.6,269.2L119.6,269.2z M112.3,275.9c-1.6-1.9-6.3-5.6-4.3-7.5
		c1.9-1.8,6.7,4,7.2,4.7L112.3,275.9z M111.5,255c-1.8,1.6-2.7,5.5-1,8.1c-1.9-0.9-5.7-1.2-7.5,0.3c-4.3,3.8,0.9,9.2,5.2,13.5l6,5.9
		l15.9-13.2l-6.5-7.5C121.5,259.2,115.3,251.7,111.5,255z M182.5,317c0.7-0.3,1.6-0.7,2-0.4c0.4,0.3,2.9,2.1,4.5,3.4
		s2.1,1.8,0.8,2.5c-1.2,0.7-2.4,1.5-2.2,0.8c0.2-0.6,0.5-1.6-0.3-2.4s-2.9-2.4-3.7-3.1C183,317.3,182.5,317,182.5,317 M176.6,318.7
		c-0.5,0.5-0.6,1.2,0,1.9c0.6,0.6,4.1,3.5,4.7,4.1c0.6,0.6,1.4,0.8,2.3,0.6c0.9-0.2-1.1,1.1-1.9,1.3c-0.8,0.2-1.7,0.2-2.5-0.6
		c-0.8-0.8-5.5-5.2-6.4-6.1s0.3-0.9,1.1-1C174.7,318.8,175.5,318.8,176.6,318.7 M170.8,292.1c0.3,0.9,0.4,1.8-1,1.6
		c-1.5-0.2-7.6-0.8-9.3-0.8c-0.4,0-0.3-1-0.9-0.6c-0.6,0.4-0.4,1.3-0.4,2.4c0,1-0.1,1.7-0.1,2.4c0.1,1.1,0.7,2.6,3.5,2.7
		c2.8,0.2,5.4-0.2,6.3-0.7c0.8-0.6-0.1-1.5-0.8-1.5c-0.8,0-5.4,0.4-6.4,0s-1.6-1.5-0.9-2c0.8-0.6,2.4,0.2,4,0.2s3.3-0.4,3.7-0.2
		c0.4,0.3,1,0.2,1,2.1c0,0.4,1,0.6,1.5,0.6s0.7,0.8,0.6,1.8c-0.1,1,0.1,1.2-1.8,1.2c-1.9,0-9.9-0.1-11.1-0.1c-0.5,0-0.5-0.4-0.6-1.3
		s-0.4-7.4-0.5-7.9s1.2-0.6,2.3-0.4s2.4,0.4,4.2,0.5s4.5,0.4,4.5,0.4s1.4,0.2,1.5-0.3C170.3,291.9,170.7,291.8,170.8,292.1
		 M199.3,71.2c0.2-0.5,0.4-1.1,0.6-1.5c-0.8,0.4-1.5,0.8-2.2,1.2C198.1,71.5,198.8,72.5,199.3,71.2 M218,72.2
		c-0.3-1.1-1.3,0.6-2.6,2.2s-3.2,0.6-3.4-0.2c-0.2-0.8-0.6-1.7-1.7-3.2c-1.1-1.5,1.1-3.6,2-3.8c0.9-0.3,2.1-0.5,2.4-0.7
		c0.3-0.2-0.2-1.7-0.5-2.9c-3.7,1.1-8.3,3-12.3,5c1.2,0.5,0.9,2.8,0.7,3.2c-0.2,0.4-0.6,2.4,0.4,1.2c0.9-1.2,1.3-1.7,2.3-2
		s2.1-0.3,2.1,1.2c0.1,1.5-0.6,1.3-0.8,2.3c-0.2,0.9,0,0.9,0.5,1.1s0.8,0.8,0.4,1.8c-0.4,1-1.9,1.1-3.3,0.9
		c-1.4-0.2-1.6,0.1-1.1,0.5c0.4,0.4,0.9,1.2,1.1,2.1c3.4-1.6,7.5-3,13.8-4.3C218.2,75.4,218.3,73.1,218,72.2 M185.2,92.7
		c-0.5-0.9-1.1-1.1-1.4-0.4c-0.3,0.7-0.8,3.2-2.4,3.8c-0.5,0.2-0.9,0.3-1.2,0.4c0.6,0.6,1.2,1.1,1.9,1.6c1.3-1.3,2.5-2.6,3.6-3.7
		C185.7,94,185.5,93.4,185.2,92.7 M200.7,80.3c-0.6-0.2-1,0.7-1.4,1.3c-0.4,0.6-1.1,1.7-2.5,1.5s-1.7-0.6-2-1.8
		c-0.4-1.1-1.2-1.5-2.2-1.5s-1.7-1.2-0.6-2.4c1-1.2,2.1-0.7,2.9-0.7c0.8,0,1.2-0.9,0.6-1.3c-0.5-0.4-1.5-1.4-1.6-2.2
		c-3,1.9-7.2,5-10.9,8.3c0.7,0.1,1.5,0.3,1.8,0.4c0.5,0.2,1.3,0.8,1.2,1.8c-0.1,0.9,0.2,1.1,0.8,0.5s-0.1-2.5,1.8-3.2
		c1.9-0.7,2.2,0.7,2.1,1.7c-0.1,1,0,1.9,1,2.3s2.1,2-0.1,3c-2.2,0.9-3.4,1.1-4.3,1.4c-0.9,0.3-0.7,1.1,0.1,1.7
		c0.4,0.3,0.8,0.7,1,0.9c2.7-2.5,5.3-4.6,8.3-6.6c1.6-1.1,3.1-2,4.6-2.9C201.5,81.5,201.6,80.6,200.7,80.3 M180.4,90
		c0.1-1-0.7-1.4-1.2-1.6c-0.4-0.1-1.1-0.9-1.4-1.5c-0.5,0.7-1,1.4-1.3,2.1c0.2,0.7,0.5,1.3,0.7,2C178.4,91,180.3,90.9,180.4,90
		 M224.2,138.5c-3.4-0.2-7.4,0.5-11.3,2c0.7,0.4,1.4,1.3,2.8,0.8c2-0.7,2.7,1.4,1.7,2c-0.9,0.6-1.2,2,0.5,0.9s3.3,0.5,2.6,1.6
		s-1.7,0.3-1.5,1.9c0.2,1.6-0.2,3.1-1.6,3.3c-1.5,0.3-1.8-1.9-2.4-1.8c-0.7,0.2,0.2,3.8-0.2,3.9c-1,0.2-2,1.1-2.5,1.6l0.1,0.1
		c5.7,4.1,7.2,1.9,8-0.1s2.7-7.8,3.2-10.9C224,142,224.4,140.1,224.2,138.5 M211.8,149.8c0.3-0.8-0.5-1.5-1.4-0.9s-2.2,1.4-3.1-0.1
		c-0.9-1.5,1-1.7,1.1-2.4s-0.6-0.8-0.3-2c0.4-1.2,1.6-0.8,2.6-0.2c1.1,0.7,0.8-1,0.6-1.7c-0.1-0.5-0.2-1-0.1-1.4
		c-1.1,0.5-2.2,1.1-3.3,1.7c-5.3,3.3-5.5,6-4.3,7.1c1.1,0.9,3.4,1.4,7.3,3.9C211.1,152.4,211.6,150.4,211.8,149.8 M194.9,146.7
		c-2.2-1.1-4.4-3.5-5.8-6.3c0,0,0.1-0.4-0.5-0.4s-2.9-0.2-6.7-1.6c-3.8-1.3-4.4-0.5-4.9,1.1c-0.5,1.7-0.9,4.7-1,9.7s2.1,8.1,3.4,7.6
		c0.7-0.3,2.4-1.1,4.2-2c0-1,0.1-2.7,0.2-3.5c0.2-1.2-1.1-0.7-1.6-0.1c-0.5,0.6-1.5,1.7-2.4,1.5s-1.6-1.8-1.4-3.4
		c0.2-1.6-1.7-2.2-0.5-4.3c1.1-2.1,2.1,0.5,3.1,0.3s0.5-0.7,0-2.3s1.5-2.1,2.7-0.9c0.8,0.7,1.1-0.9,2.3-0.7c1.1,0.2,1.8,1,1.1,2.1
		c-0.5,0.9-0.9,3,0.1,1.9s2-1.8,2.9-1c0.9,0.7,0.3,2.2,0.1,3c-0.3,0.8,1.7,1.7,0.3,2.6c-1.3,0.9-2.9-0.7-3.6-0.5
		c-0.8,0.2-0.9,1.1,0.1,1.9c0.7,0.5,1.4,0.8,1.9,1.1c2.2-0.7,4.7-2.2,5.5-2.7l1.3,0.1C195.6,148.1,195.5,147,194.9,146.7
		 M187.2,169.5c-0.8-1.9-1.1-0.4-3.4,3.2c-1.2,1.8-4.1,5.3-7.8,9.1c2.6,0.5,8.1,1.9,4.8,4.6c-3.5,2.9-2,2.7-0.4,2.5s4.2,0.7,2.2,4.3
		c-2,3.5-3.3,6-5.2,7.2c-1.9,1.1-4.6,1-5.2-1.7c-0.6-2.7-2.4,0-2.5,1.8s-0.3,4.8-0.1,5.8l-3.9-0.2c-0.1-1.7-0.1-5,0.2-6.5
		c0.3-1.6,0.2-3.4-2.2-2.7c-1.6,0.5-2.6,0.1-3.2-0.2c-4.6,4.1-7,7-8.6,9.5c1.2,1.1,3.1,1.9,5.1,1c2.3-0.9,6,0.2,3.7,3.7
		s-2.2,5.3,0.1,3.1s6-5.9,7.1-2c0.7,2.6-1.7,3.4-1.6,5.5c0.1,2.1,2.2,4.2-0.7,6.6c-2.9,2.5-4.2-1.8-6.1-1.1
		c-1.2,0.4-1.4,1.5-1.4,2.4c2.6,3.7,6.3,8.8,7.7,11c2.1,3.4,2.1,7.6,2.9,7c0.8-0.6,2.8-2.5,3.4-3c0.6-0.5,1.2-1.1,0.9-2.3
		c-0.3-1.1-1.5-7.3-1.1-11.5c0.4-4.9,2.7-10.2,4.4-13.3c1.6-2.9,6.4-12.4,7.6-14.8c1.1-2.5,3.2-5.4,3.7-7.7s2.5-7.6,3.3-10.1
		C190.7,178.6,189.4,174.4,187.2,169.5 M202.8,146.3c-0.6,1.7-1.5,3.7-1.9,4.8c-0.4,1-2.3,0.6-2.2-0.1c0.3-1.6-1.9-0.5-1.7-1.8
		c0.2-1-0.2-2.7,0.9-2.7C199.1,146.6,201.3,146.3,202.8,146.3"/>
	<path class="st0" d="M199.3,71.2c0.2-0.5,0.4-1.1,0.6-1.5c-0.8,0.4-1.5,0.8-2.2,1.2C198.1,71.5,198.8,72.5,199.3,71.2 M206.2,209.7
		c-1.9,0.1-4.2-0.4-4.2-0.4c-0.2,2-2.1,4.8-4,7.7c-0.2,0.3-1.3,0.3-1.9-0.1c-0.5-0.4-2-1.1-0.8-2.4c1.1-1.2,3-3.8,2.7-5
		c-0.3-1.1-1.1-2.2-2.4-0.6c-1.2,1.6-3.2,4.8-5.4,4.9c-2.2,0.1-4.4-1.9-3.3-3.8c1-2,1.3-3-0.1-4.8c-1.5-1.8-0.9-4,2.2-5.4
		c0.9-0.4,2.6,0,3.7,0.9c1.1,0.9,1.8,0,0.2-0.9s-2.8-2.1-3-4.2c-0.2-2,1-4,3.7-2.9s4.4,0.2,5.5-0.7s6-2.1,5.3,2.2
		c-0.5,3.1-2,3.2-2.4,4.9s0.8,0.6,1.6-0.6c0.7-1.2,2.4-6.3,5.8-2.5c0.8,0.9,0.5,2.5-0.5,4.3s-0.2,2.8,0.4,3.7
		C209.9,204.8,211.4,209.4,206.2,209.7L206.2,209.7z M195.6,234.2c-2.5,0.7-2.9-0.4-4.6-1c-1.7-0.6-1.8,0.8-0.6,2.6
		c1.1,1.8,2.4,3.4,1,3.4c-1.3,0-2.4,0.2-2.6,1.2c-0.2,1-2.4-0.2-2.9-2.4s-1-6.3-2.2-4.3c-1.1,2.1-2.2,5.5-5.1,3.9
		c-2.9-1.6-0.9-3.6-2.4-5.1s-2.8-3.3-1.3-5.9c1.5-2.6,2.7-0.4,4-0.4s1.6-1.2,0.3-2.2c-1.2-0.9-2.8-5.4,2.9-5.1
		c2.2,0.1,4.6-0.6,6.4-2c1.9-1.4,6.7-0.6,4.8,2.8c-2,3.4-1.4,4.1-0.2,2.9c1.1-1.2,2.6-3.5,4.8-2.9s1.2,2.3-0.1,4.1
		c-1.3,1.9-0.5,3.1,0.5,3.8C199.4,228.6,201.3,232.5,195.6,234.2L195.6,234.2z M232.4,215.6c-2.7-4.5-3.2-6.2-3.6-10.8
		c-0.3-2.9,0-6.6,0.4-10.2c-0.8-0.1-1.9,0.1-1.9,1.3c-0.1,2-1,4.8-1.7,6.2c-0.6,1.5-2.7,1.4-3.9,1.5s-1.2-0.7-0.4-2.6
		c0.8-1.9,1.1-2.7,0.9-4.4c-0.2-1.7-1-0.2-1.8,1.2c-0.7,1.5-2.8,4.4-5.2,4c-2.4-0.3-1.8-3.9-1.6-5.2c0.2-1.2-0.5-1.5-1.5-1.7
		c-0.9-0.2-2.8-0.6-1.8-3.6s2.2-2.7,3.6-2.2c1.5,0.5,1.7-0.4,0.3-0.9s-2.8-1.7-2.7-3.1c0.3-3.8,2.7-3.5,4.6-3.1
		c1.6,0.4,3.7-0.6,5.1-2.1c0-0.1-0.1-0.2-0.1-0.3c-2.8-10.6,2.5-23.6,3.9-27.2c1.5-3.6,7.1-13.9,9-16.9c-1-0.5-3.8-1.9-5.3-2.7
		s-2.3-1.1-2.7-0.6c-0.4,0.6-0.9,0.9-1.7,1.9c-1.5,2.1-0.2,1.8,0.2,1.8s2.2,2.3,2.5,2.8s0,0.9-0.7,2.6c-1,2.2-1.6,7.2-2.4,10.2
		c-2.5,9.1-6.4,8.2-8.2,7.1c-1.8-1.1-2.3,0.6-4,3.1c-0.4,0.6-1.5,1.7-2.9,3.1c1.7,0.8,4,2.9,1.2,5.1c-3.2,2.5-3.8,3.8-2.3,3.5
		c1.6-0.3,3.1-2.7,4.9-1c1.8,1.7-0.6,3.5-1.6,4c-0.9,0.5-2.8,1.5-2.3,3.4c0.5,2,0.8,4.7-1.8,5.3s-3.6-0.5-4.4-1.9
		c-0.7-1.3-1.5-0.4-1.8,1.2c-0.3,1.7-0.5,2.9-0.5,3.5s-1.9-0.3-2.7-1.1s-1.9,1.5-2.8,0.3c-0.9-1.1,1.1-4.7,1.9-5.9
		c0.7-1.2,0.4-2.8-3.7-0.9c-1.3,2.2-2.4,5.5-4.1,10.5c-2.3,7-7.5,16.4-9.6,19.9c-5.6,9-6.6,17.5-5.8,22.8s1.6,4.9,2.7,4.9
		c1.1,0,3.9,3.5,5.8,5.7c1.9,2.2,2.6,1.2,3.5,0.5c3-2.3,9-6.2,17.5-10.3c3.6-1.7,8.5-3.6,13.2-5.1c0.1-2,0.6-4.3,0.7-5.2
		c0.2-1-0.8-1.3-1.9,0c-1,1.3-3.8,4.7-5.7,3.8c-1.9-0.8-3.4-2.9-2.4-4.7s-0.4-2.3-1.1-3.2c-0.7-0.9-0.7-4.6,1.6-4.9
		c2.3-0.3,3,1.7,4.6,2.2s2.8,0.4,0.8-1.8s-4.4-1.3-3.1-4.4c1.2-3,3-2.8,5.1-2.2s3.1-0.5,4.5-1.5c1.3-0.9,4-2.2,5.9,0
		s-1.3,4.2-2.1,4.9c-1.4,1.4-1.7,4-0.1,2.5c1.6-1.6,4.2-7.2,6-2.5c1,2.7-0.9,3.7-0.6,5.4c0.3,1.7,3.1,3.9,0.8,6s-5.5,0.3-6.8-0.9
		s-2.8-1.9-2.2,0.4c0.5,1.7,0.7,3.4,0.7,4.5c4.5-1.3,8.5-2,10.5-1.8c3,0.3,5.2,1.1,5.1-1.6C236.6,221.9,235.1,220,232.4,215.6
		L232.4,215.6z"/>
	<path class="st0" d="M175.2,87c3.6-4.5,11.4-12.5,21.7-18.3s15.2-7,17.5-7.8c-2.1-3.6-9.7-7.4-18.5-4.5
		c-8.5,2.8-13.9,5.7-18.7,10.9C172.4,72.6,172.7,81.2,175.2,87 M235.8,229.1c0,3.4-1.5,11.7-3.5,15.4c-2.1,3.6-6,11.8-7.8,19.5
		s-5.3,24.4-9.1,27.9c-3.8,3.4-5.7,3.9-6.6,4.6c-0.8,0.6-1.7,2.1-3.1,2.7c-1.5,0.6-3.6,0.3-5.7,1.2c-2.1,0.9-7.1,1.8-9.1-2
		c-1.2-2.3-2.9-2.3-4.4-2.4s-1.4-0.7-0.1-2c1.2-1.2,3.5-9.1,0.7-14.7c-0.4-0.8-1.5-1.5-2.3-2.1s-0.7-0.9-0.3-1.6
		c0.4-0.6,0.8-1,1.2-1.2s1-0.3,1.8,0.7c0.7,1,4.7,7.6,5.5,9.4s1.9,0.6,1.5-0.4s-1.2-2.8-1.6-3.3c1.1-3.5,2.3-8.9,2.3-12.5
		c0-3.5-0.8-7.1-1.5-8.3c2.8,0.1,8.9,0,11.3-0.7c2.4-0.7,0.4-0.9-0.5-0.8s-7.7,0.1-12.6-0.5c-8.5-1-16.9-5.8-19.5-9.2
		c-0.4-0.5-2.9-0.3-0.8,1.4c2.1,1.7,7.4,6.6,15.2,8c1.8,0.3,4.6,0.8,5,7.3c0.4,6.4-0.2,10.6-0.2,11.2s-0.4,0.8-0.9,0.1
		c-0.5-0.7-2.3-3.1-3.2-3.6s-1.6-0.4-2.4,0.2c-0.8,0.6-2.1,1.9-2.6,2.5c-1.7-0.7-5.2-0.5-7.1-0.1c-2.1-1.5-5.7-8.3-9.6-19.3
		c-3.8-11-9.2-25.2-9.3-26.3c-0.2-1.7,0.3-4.6,1.7-2.2c1.4,2.4,3.8,5.7,4.9,7c1,1.2,2.9,6.3,3.3,8.5c0.4,2.2,0.7,4.4,3.6,1.2
		c1.7-1.8,3.1-3,4-3.6c0.8-0.6,1.9-1.4,3.6,0.9c1.8,2.4,3.8,4.5,4.9,5.2c1,0.7,1.7,0.6,4.6-1.7c2.9-2.3,13.2-8.6,20.4-11.3
		s13.6-5.1,18.5-5.7C230.7,227.9,233.1,228.2,235.8,229.1 M155.8,272.8c1,0,3.4,0.7,4.6,1.8c1.1,1,1.5,1.6,0.8,2.2
		c-0.6,0.6-2.3,2.8-2.4,5.5c-0.1,2.7,0.4,5.6,1.1,6.2c0.7,0.6,3.2,0,4.3,1.2c-2.4,0-5.4-0.3-6.3-0.3c-0.9,0-2.1,0-1.9,2.8
		c0.2,2.8,0.5,7.5,0.6,8.9s0.3,2.1,2.7,2.1s6.2,0.2,7.9,0.2c0.3,4,0.3,16.2,0.1,18.5c-3.6,0.9-8.3,2.9-10.6,4.2
		c-1.3-0.8-2.9-4.7-3.2-12.4c-0.1-2.6,0.9-7,1.8-9c0.8-2.1-0.5-1.3-0.8-0.5c-0.3,0.7-1.4,3.6-1.7,5.8c-0.3,2.2-0.8,5.4,0,10.1
		s1.2,6.1,1.5,7c-0.7,0.5-1.5,0.9-1.9,1.3c-0.6-1.5-2.2-2.9-1.8-9s1.1-8.8,2-11.9c0.8-3,1.9-8.9,1.3-11.7c-0.5-2.8-3.2-4.4-3.3-9.2
		c-0.1-4.8,1-9.3,3.2-12.6C154.5,273,154.8,272.8,155.8,272.8"/>
	<path class="st0" d="M194.2,321.6c1.8-0.2,3.9-0.8,4.6-1.6c0.6-0.7,1.1-0.9,2.4,0.7c1.3,1.7,2.3,3.2,2.6,4.9c0.3,1.7,0,2.7-1.4,3
		c-1.3,0.3-5.8,2.3-8.7,2.8s-8.6,3.1-10.6,5.1s-6.8,7-8.5,7.5c-1.8,0.5-7.1,1.8-9.7,0.7c-2.6-1-10-5.3-12.7-8.6
		c-2.5-3.1,0.6-4.6,2.8-6.1c2.2-1.6,9.9-5.2,12.8-6.2c2.9-1,3.4-1.5,2.1-2c-1.3-0.5-0.7-3.4,0.3-2.2c1,1.2,6.2,6,7.2,6.9
		c1.7,1.6,2.8,3.5,8.3,0.8C191.1,324.6,193.6,322.8,194.2,321.6 M176.5,96.9c1.3,0.2,2.4,0.8,2.7,1.5c0.3,0.6-0.5,1.9-2.1,2.9
		c-1.4,1-6.3,3.4-7.1,3.8C169.3,104.1,170.9,101.3,176.5,96.9"/>
	<path class="st3" d="M176.5,96.9c1.3,0.2,2.4,0.8,2.7,1.5c0.3,0.6-0.5,1.9-2.1,2.9c-1.4,1-6.3,3.4-7.1,3.8
		C169.3,104.1,170.9,101.3,176.5,96.9L176.5,96.9z"/>
	<path class="st2" d="M208.8,113.4c-1.8,0-4.4-0.6-6.3-1.9c-1.9-1.3-2.6-1.9-2.2-3.9c0.2-1.2,0.3-1.8,0.4-2.3
		c0.1-0.3,0.1-0.5,0.1-0.8c0.2-0.9,0.1-1.5-0.2-1.8c-0.1-0.2-0.3-0.3-0.6-0.3c-0.4,0-0.9,0.3-1.6,0.8c-1.1-0.8-2.1-1.7-2.9-2.4
		c-0.6-0.5-1-0.9-1.3-1.1c-0.2-0.1-0.5-0.4-0.5-0.7c0-0.2,0.1-0.4,0.3-0.7c0.1-0.2,0.3-0.2,0.6-0.2h0.1h0.1c0.2,0,0.5,0,0.8-0.3
		c0.2-0.3,0.3-0.7,0.2-1.4c0,0,0.1-0.1,0.6-0.1c0.1,0,0.3,0,0.4,0c0.1,0,0.3,0,0.4,0c0.3,0,0.4,0,0.6-0.1c0.2-0.1,0.3-0.3,0.3-0.5
		c0.1-0.2,0.1-0.3,0.4-0.3c0.2,0,0.5,0,0.8,0.1c0.1,0,0.1,0,0.2,0c0.3,0,0.5-0.3,0.6-0.5l0.1-0.1c0.1-0.2,0.3-0.3,0.5-0.3
		c0.1,0,0.1,0,0.2,0c0.3,0,0.5,0.1,0.7,0.2c0.3,0.1,0.6,0.1,0.8,0.1c0.6,0,0.8-0.5,0.9-0.8c0.2-0.7,0.3-0.9,0.6-0.9
		c0.2,0,0.6,0.2,1.1,0.5c0.4,0.3,0.8,0.4,1.1,0.4c0.5,0,0.8-0.3,0.9-0.8c0,0,0,0,0.1,0c0.3,0,0.9,0.2,1.4,0.5l0.3,0.2
		c1,0.6,3,1.7,5.3,4.4c0.5,0.6,0.7,1.1,0.6,1.2l0,0h-0.1c-0.4,0.1-0.9,0.1-1,1c-0.1,0.5-0.2,0.8-0.3,0.8c0,0-0.1-0.1-0.2-0.3
		c-0.1-0.3-0.3-0.6-0.6-0.6c-0.1,0-0.1,0-0.2,0c0,0-0.1-0.1-0.1-0.3c-0.1-0.1-0.2-0.6-0.6-0.6c-0.2,0-0.3,0.1-0.4,0.2h-0.1
		c-0.1-0.2-0.2-0.5-0.6-0.5c-0.1,0-0.2,0-0.2,0h-0.1c0,0,0,0-0.1-0.1c-0.1-0.2-0.2-0.3-0.4-0.3c-0.1,0-0.3,0-0.5,0.1
		s-0.3,0.1-0.4,0.1c-0.1,0-0.1,0-0.1-0.1c-0.1-0.3-0.4-0.3-0.5-0.3c-0.2,0-0.4,0.1-0.5,0.2s-0.3,0.1-0.4,0.1c0,0-0.1,0-0.2-0.1
		c-0.1-0.1-0.2-0.3-0.5-0.3c-0.2,0-0.4,0.2-0.5,0.4l-0.1,0.1c-0.1,0.2-0.2,0.2-0.3,0.2h-0.1c-0.1-0.1-0.3-0.1-0.4-0.1
		c-0.4,0-0.5,0.3-0.6,0.4s-0.1,0.1-0.1,0.1s-0.1,0-0.2-0.1c-0.1-0.1-0.2-0.1-0.4-0.1c-0.4,0-0.6,0.4-0.7,0.6
		c-0.1,0.2-0.2,0.3-0.2,0.3s0,0-0.1,0c-0.2,0-0.3-0.1-0.4-0.1c-0.6,0-0.7,0.5-0.8,1c0,0.1,0,0.2,0,0.3c-0.1,0.8-0.5,4.3-0.5,5.2
		c0.1,0.8,1.1,0.8,1.5,0.8c0.8,0,1.8-0.1,3.1-0.3c2.6-0.4,7.3-1.8,9.7-3.8c0.6-0.5,1.1-0.6,1.3-0.6s0.2,0,0.2,0.1s-0.3,0.8-0.9,1.3
		c-0.1,0.1-0.1,0.1-0.2,0.2c-0.8,0.7-2.5,2.2-6.1,2.9c-3.4,0.7-6.6,1.3-7.6,1.3c-0.1,0-0.2,0-0.2,0c-0.1,0-0.1,0-0.2,0
		c-0.2,0-0.3,0.1-0.4,0.2c-0.1,0.2,0,0.4,0.3,0.6c0.3,0.3,0.8,0.5,1.3,0.5c0.1,0,0.3,0,0.4,0c0.1,0,0.5,0.4,0.8,0.6
		c0.7,0.7,1.9,1.7,3.3,1.7c1.9,0,4.5-2,5.3-2.6c0.4-0.3,1.2-0.7,1.6-0.8c-0.1,0.1-0.2,0.2-0.4,0.4l-0.1,0.1
		c-1.7,1.7-3.5,3.5-5.2,3.5C208.9,113.4,208.8,113.4,208.8,113.4"/>
</g>
</svg>
