<?xml version="1.0" encoding="utf-8"?>
<!-- Generator: Adobe Illustrator 24.0.1, SVG Export Plug-In . SVG Version: 6.00 Build 0)  -->
<svg version="1.1" id="Layer_2_1_" xmlns="http://www.w3.org/2000/svg" xmlns:xlink="http://www.w3.org/1999/xlink" x="0px" y="0px"
	 viewBox="0 0 400 400" style="enable-background:new 0 0 400 400;" xml:space="preserve">
<style type="text/css">
	.st0{fill-rule:evenodd;clip-rule:evenodd;}
	.st1{fill-rule:evenodd;clip-rule:evenodd;fill:#FFFFFE;}
</style>
<g>
	<path class="st0" d="M111.8,202.1H87.1v26.8l-14.8,7.3l14.8,7.7v23.8l16.4,10c6-0.8,13.7-1.7,22.7-2.6l63.3,36.5l11.5,53.1
		c0.1-0.1,11.7-53.1,11.7-53.1l63.2-36.5c8.9,0.9,16.6,1.8,22.6,2.6l16.4-10v-23.8l14.9-7.6l-14.9-7.4v-26.8h-24.6
		c0,0,3.8-3.7,8.7-12c2-3.5,3.9-7.8,6.3-13c18-5.5,31.2-16.9,36.9-28.1c15.4-28.2,27-62.6,27-62.6s-6.6,3.2-14.7,7.1
		c6.5-19.9,10.4-36.7,10.4-36.7s-71,47-126.3,91.1l-4.8-2.9c0-0.5,0.1-4.5,0.1-4.8c0,0,0.5-4.7-7.7-7.5c-0.5-0.2-1-0.3-1.5-0.5
		c4-3,10.2-7.6,14.8-10.7c7.2-5,6.4-10.4,6.4-10.4l-26.2,19.5c-20.3-6.6-37.2,0-37.2,0l-26.2-19.5c0,0-0.9,5.5,6.4,10.4
		c4.5,3.1,10.8,7.7,14.8,10.7c-0.5,0.2-1,0.3-1.5,0.5c-8.3,2.8-7.7,7.5-7.7,7.5c0,0.3,0.1,4.4,0.1,4.8l-4.8,2.9
		c-55.4-44.1-126.4-91-126.4-91s3.9,16.9,10.4,36.7C39.1,89.3,33,86.4,33,86.4s11.6,34.5,27,62.6c5.7,11.2,18.9,22.7,36.9,28.1
		c0,0,3,7,5.7,12C105.8,195.3,111.8,202.1,111.8,202.1"/>
	<path class="st1" d="M126.1,203.5c0,0-12.2-8.7-19.1-24.7l4.9,1.4c15.9,4.2,46.3,8.4,46.3,8.4c-14.6,0.3-27,1.5-34.1,2.3
		c-1.5-1.8-3.2-4.1-3.8-5.9c0,0,0.5,5.6,1.8,9.1C123.7,199.3,126.1,203.5,126.1,203.5z M201,187.1c-4.2-1.6-15-7-21.4-20.9
		c5.3,4.5,12,6,17.4,0.8c-6.6-2.8-7.4-14.6-8.7-17.7c-2.6-6.2-6.6-9.4-9.9-10.7c1.6-0.5,3.1-1,4.5-1.5c3.1,1.7,8.2,5.5,9.8,13.2
		c0,0,0.7-8.7-3.7-14.9c8.4-2,16.9-1.7,23.8,0c-4.3,6.1-3.7,14.9-3.7,14.9c1.6-7.7,6.8-11.5,9.9-13.2c1.4,0.4,2.9,0.9,4.5,1.5
		c-3.2,1.3-7.3,4.5-9.9,10.7c-1.3,3.1-2.1,14.8-8.7,17.7C206.5,175.9,204.7,184.2,201,187.1z M279.9,194.2c1.3-3.5,1.8-9.1,1.8-9.1
		c-0.6,1.7-2.3,4.1-3.8,5.9c-7.1-0.8-19.5-1.9-34.1-2.3c0,0,30.4-4.2,46.3-8.4l4.9-1.4c-6.9,16-19.1,24.7-19.1,24.7
		C275.9,203.5,278.3,199.3,279.9,194.2 M163.1,279l-31-17.9c-2.2,0.2-4.4,0.4-6.5,0.6l43,24.8C166.5,284.3,164.7,281.8,163.1,279
		 M238.9,279l31-17.9c2.2,0.2,4.4,0.4,6.5,0.6l-43,24.8C235.5,284.3,237.3,281.8,238.9,279 M187.2,283.2c-13.7-3-19.3-9.7-19.3-9.7
		c2.8,5.7,7,10.6,12.2,14.2C180.1,287.7,185.9,286,187.2,283.2 M178.8,268.6c-1-0.9-1.9-1.9-2.9-2.9c-4.4,1.5-6.8,3.2-8.2,4.4
		c3,2.9,8.8,6.7,19.2,8.9C185.7,275.3,182.5,272.1,178.8,268.6"/>
	<path class="st1" d="M200.7,300.8c-4.5,0.1-7.8,1.8-8.9,2.2c-1.1-2.1-2.5-4.3-3.7-6.2c3.9,0.5,7.3-0.3,7.3-0.3
		c-1.6-0.5-5.8-2-11.4-5.6l0,0c0.5-0.2,1-0.4,1.5-0.7l0,0c1.5-0.7,2.9-1.7,4.1-2.9c1.4-1.4,2.3-3.2,2.3-5.4c0-6.8-4.6-9.1-9.7-14.2
		c-1-1-2.1-2.1-3.3-3.2c4.7-1.3,11.1-2.3,19.7-2.4l2.1,28.8h0.3l2.1-28.8c8.6,0.2,15,1.1,19.7,2.4c-1.1,1.1-2.2,2.2-3.3,3.2
		c-5.1,5.1-9.7,7.4-9.7,14.2c0,2.2,1,4,2.3,5.4c1.2,1.2,2.6,2.1,4.1,2.9l0,0c0.5,0.2,1,0.5,1.5,0.7l0,0c-5.5,3.6-9.8,5.1-11.4,5.6
		c0,0,3.4,0.7,7.3,0.3c-1.3,1.9-2.6,4.1-3.7,6.2c-1.1-0.4-4.3-2.2-8.8-2.2H200.7"/>
	<path class="st1" d="M221.9,287.7c5.2-3.6,9.4-8.5,12.2-14.2c0,0-5.7,6.7-19.3,9.7C216.1,286,221.9,287.7,221.9,287.7 M215.1,278.9
		c10.4-2.2,16.1-6,19.2-8.9c-1.3-1.2-3.8-2.9-8.2-4.4c-1,1-2,2-2.9,2.9C219.5,272.1,216.3,275.3,215.1,278.9 M191.7,167.7
		c0,0-5-3.3-5.8-10.4C185.9,157.4,179.4,168.3,191.7,167.7 M210.6,167.7c0,0,5-3.3,5.8-10.4C216.4,157.4,223,168.3,210.6,167.7
		 M206.9,311.4c-0.9-0.9-2.2-2-6.2-2c-3.8,0-5.1,1-6.2,1.9l6.4,25.5L206.9,311.4 M249.6,199.4v9.3h-3.1v-9.3h-2.6v-2.7h8.3v2.7
		H249.6 M235,199.4v9.3h-3.1v-9.3h-2.6v-2.7h8.3v2.7H235 M185.7,201.8h3.3v-2.4h-3.3V201.8z M190.9,204.5h1.1V198l-1.3-1.3h-7.9v12
		h3v-4.3h2.2l1.7,4.3h2.9L190.9,204.5L190.9,204.5z M267.6,199.4v-2.7h-8.8v12h8.8V206h-5.7v-2h5.7v-2.7h-5.7v-2L267.6,199.4
		 M202.6,206v-9.3h-3.1v12h7.5V206H202.6 M215.8,206h3.4v-6.6h-3.4V206z M220.8,196.7h-8v10.7l1.3,1.4h8v-10.7L220.8,196.7
		L220.8,196.7z M169.2,202.1h3.4v-2.7h-3.4V202.1z M175.7,208.7V198l-1.3-1.3h-8.1v12h3v-3.9h3.4v3.9H175.7L175.7,208.7z
		 M156.6,196.7v5.4h-3.4v-5.4h-3v12h3v-3.9h3.4v3.9h3v-12H156.6 M336.7,111.5c5.8-13.7,10.3-22.4,14.6-34.9
		c-51.4,31.1-96.9,66.2-120.5,85.4c-0.2,0.8-0.5,1.5-0.8,2.3c-1,2.6-2,5-3.2,7.2l98-53.4l-76.5,55.3l3.5-0.6l40.4-3.9
		c0,0,27.3-2.6,42.5-23.1c7.1-11,19.3-43.1,19.3-43.1L336.7,111.5 M102.5,239.4l9.4-4.1v21.4c2.7-0.4,5.5-0.7,8.3-1v-47H112
		c0-0.1,0,16.8,0,16.9l-9.4,4v-20.9h-8.3V233c0,0-6.9,3.3-6.8,3.4l6.8,3.4v19.7c2.7-0.5,5.5-0.9,8.3-1.4L102.5,239.4 M167.2,223.7
		h9.4c0,2.3,0,5.3,0,7.4c-3.1,0-6.2,0.1-9.4,0.2V223.7z M167.2,239.3c2.1-0.1,4.1-0.1,6.2-0.2c1.5,4,3.1,8.5,4.6,12.5
		c2.7-0.1,5.5-0.1,8.3-0.2c-1.5-4-3.1-8.5-4.6-12.4c1.1,0,2.1,0,3.2,0v-19.2l-3.7-3.6h-25.4l3.1,3.7v32.6c2.7-0.2,5.5-0.3,8.3-0.4
		L167.2,239.3L167.2,239.3z M199.6,223.7h9.5v27.6c2.9,0,5.8,0.1,8.7,0.1v-31.6L214,216h-26l3.1,3.7v31.5c2.8,0,5.6-0.1,8.5-0.1
		V223.7 M248.8,244.7c-5.4-0.3-10.7-0.5-16.1-0.7c0-2,0-3.9,0-5.9c5.4,0.1,10.7,0.3,16.1,0.6v-8.3c-5.4-0.2-10.7-0.3-16.1-0.4
		c0-1.6,0-4.3,0-6.3h16.1v-7.6h-27.9l3.1,3.7v31.8c8.5,0.2,16.8,0.6,24.8,1.1L248.8,244.7 M269.7,223.7h7.1v-7.6h-23.5v7.6h7.3v29.9
		c3,0.2,6.1,0.5,9,0.8v-30.7 M144.4,245.1c-3.2,0.2-6.3,0.4-9.5,0.6v-22h9.5V245.1L144.4,245.1z M152.7,219.8l-3.8-3.7h-25.5l3,3.6
		v31l3.3,3.9c7.3-0.7,15.1-1.4,23-1.9V219.8L152.7,219.8z M306.9,239.6c2.6-1.1,5.1-2.3,7.7-3.5c-8.3-3.8-16.6-7.3-24.8-10.5v-9.4
		h8.8v3.4h8.4v-10.8h-28.6l3.2,3.7v19.4l17.1,7.4v10.9c0,0-4-0.5-8.8-1.1v-3.5l-8.3-1v11.1c9.1,1.1,17.6,2.3,25.4,3.7
		C306.9,253.4,306.9,244,306.9,239.6 M140.4,205v1h-2.7v-6.6h2.7v1h3v-3.7h-8.7v10.7l1.3,1.4h7.3V205H140.4"/>
	<path class="st1" d="M175.2,171.5c-1.2-2.2-3.7-8.7-4-9.5c-23.6-19.1-69.1-54.3-120.5-85.4c4.3,12.5,8.8,21.2,14.6,34.9l-17.4-8.8
		c0,0,12.2,32.1,19.3,43.1c15.2,20.4,42.5,23.1,42.5,23.1l40.4,3.9l3.5,0.6l-76.5-55.3L175.2,171.5"/>
	<path class="st1" d="M111.8,202.1H87.1v26.8l-14.8,7.3l14.8,7.7v23.8l16.4,10c6-0.8,13.7-1.7,22.7-2.6l63.3,36.5l11.5,53.1
		c0.1-0.1,11.7-53.1,11.7-53.1l63.2-36.5c8.9,0.9,16.6,1.8,22.6,2.6l16.4-10v-23.8l14.9-7.6l-14.9-7.4v-26.8h-24.6
		c0,0,3.8-3.7,8.7-12c2-3.5,3.9-7.8,6.3-13c18-5.5,31.2-16.9,36.9-28.1c15.4-28.2,27-62.6,27-62.6s-6.6,3.2-14.7,7.1
		c6.5-19.9,10.4-36.7,10.4-36.7s-71,47-126.3,91.1l-4.8-2.9c0-0.5,0.1-4.5,0.1-4.8c0,0,0.5-4.7-7.7-7.5c-0.5-0.2-1-0.3-1.5-0.5
		c4-3,10.2-7.6,14.8-10.7c7.2-5,6.4-10.4,6.4-10.4l-26.2,19.5c-20.3-6.6-37.2,0-37.2,0l-26.2-19.5c0,0-0.9,5.5,6.4,10.4
		c4.5,3.1,10.8,7.7,14.8,10.7c-0.5,0.2-1,0.3-1.5,0.5c-8.3,2.8-7.7,7.5-7.7,7.5c0,0.3,0.1,4.4,0.1,4.8l-4.8,2.9
		c-55.4-44.1-126.4-91-126.4-91s3.9,16.9,10.4,36.7C39.1,89.3,33,86.4,33,86.4s11.6,34.5,27,62.6c5.7,11.2,18.9,22.7,36.9,28.1
		c0,0,3,7,5.7,12C105.8,195.3,111.8,202.1,111.8,202.1L111.8,202.1z M367.1,102.1c-7.8,20.8-18.1,42.2-23.3,51
		c-8.7,14.9-26,23.7-36.2,27c0,0-4.9,11.9-10,18.4h20.7v28.2l19.7,9.4l-19.7,9.9v23.6l-19.1,11.7c0,0-15.2-1.9-22.6-2.6l-60.6,35
		c-12.1,54.8-15,70.8-15,70.8s-2.8-15.1-15-70.8l-60.6-35c-7.4,0.8-22.6,2.6-22.6,2.6l-19.1-11.7V246L64,236.1l19.7-9.4v-28.2h20.7
		c-5-6.2-10-18.5-10-18.5c-6.1-2-11.9-4.8-17-8.1c-8.2-5.2-14.9-11.8-19.1-18.9c-8.3-14.5-18-36.5-23.3-51c-3.6-8.8-8-22.4-8-22.4
		s11.3,5.4,14.7,7.1c-5.4-16.2-10-37.7-10-37.7s77.6,51,132,94.6l0.9-0.5c0-0.9,0-1.8,0-2.8c0-0.5,0-1.6,0.5-2.9c0.6-1.8,2-4,5.2-6
		c-4-2.9-11.2-7.9-11.8-8.6c-5.3-4.6-6.1-9.7-5.8-12.3l0.9-5.8l29.5,22c16.1-4.6,27.4-2.3,35.8,0l29.5-22l0.9,5.8
		c0.4,2.5-0.5,7.7-5.7,12.3c-0.6,0.7-7.8,5.7-11.8,8.6c3.2,1.9,4.6,4.2,5.2,6c0.5,1.3,0.5,2.4,0.5,2.9c0,0.9,0,1.9,0,2.8l0.9,0.5
		C293.9,99,370.2,49,370.2,49s-3.8,17.7-10,37.7c2.9-1.4,14.7-7.1,14.7-7.1C371.7,90.4,367.1,102.1,367.1,102.1L367.1,102.1z"/>
</g>
</svg>
