<?xml version="1.0" encoding="utf-8"?>
<!-- Generator: Adobe Illustrator 24.0.1, SVG Export Plug-In . SVG Version: 6.00 Build 0)  -->
<svg version="1.1" id="Layer_2_1_" xmlns="http://www.w3.org/2000/svg" xmlns:xlink="http://www.w3.org/1999/xlink" x="0px" y="0px"
	 viewBox="0 0 400 400" style="enable-background:new 0 0 400 400;" xml:space="preserve">
<style type="text/css">
	.st0{fill:#FFFFFF;}
</style>
<g>
	<path d="M352.9,117.8c-1.2-21.5-10.9-40.8-16.6-52.4l-0.7-1.4l-2.5-5l0.5,5.6c0.7,7.7,2.4,34.1-5.4,49
		c-9.7,20.3-38.4,18.3-47.8,17.7l-0.7,0c-15.5-1-65.8-2.8-81.2-2.7c-20.4,0.1-42.9,1.7-61,3.1c-8.9,0.7-16.5,1.2-21.7,1.4
		c-0.4,0-1,0.1-1.9,0.2c-25.3,2.4-41.4-5.1-47.6-22.2c-3.8-10.5-3.7-31.2-3.7-41.2l0-3l0-4.2c0,0-2,3.7-2,3.7
		C56,75,47.1,91.4,44.1,118.6c-1.7,32.1,15,43.6,27.7,49.4c13.2,6.1,26.8,7,31.2,7.3l0.3,0l-0.1,0c0.9,0.2,2,0.2,3.1,0.3
		c1.4,0.1,2.8,0.1,4.4,0.4c-2.4,0.5-5.6,1-8.3,1.5c-2.9,0.5-5.7,1-7.2,1.3c-3,0.6-15.8,3.6-22.6,6c-5.8,2-12.1,5-12.2,5l-1.1,0.5
		l0.7,1c0.1,0.1,2.2,3,4.4,5.2c4.5,4.4,17,12.3,32.1,10.4c12.1-1.5,18.5-4.3,21-5.6c0.8,2.6,2.7,8.6,4.5,13.3
		c5.4,13.5,17.8,39.2,22.5,48.2c3.8,7.2,7.5,13.7,10,17.9l0.9,1.5c-0.8,2.8-2.7,4.5-4.2,5.8c-0.4,0.3-0.7,0.6-1,0.9l-0.3,0.3l0,0.4
		c-0.1,2.5-0.7,24.9,14.5,41.3l0.2,0.2l0.2,0.1c7.6,2.9,17.5,5.9,33.4,5.9c16.3,0,29.9-3.9,34.7-6.3l0.2-0.1l0.1-0.2
		c10.6-12.6,15.4-31.5,15.6-38.3l0-0.4l-0.3-0.3c-0.3-0.3-0.5-0.5-0.8-0.8c-1.6-1.6-3.7-3.6-4.9-8.2c1.3-2.2,3.8-7.5,5.9-11.8
		c1.1-2.4,2.2-4.5,2.7-5.6c4.5-8.7,17.6-36.9,22.8-50.2c3.3-8.4,5.1-12.6,5.9-14.3c2.3,1.2,8.5,4,20.2,5.2
		c15.2,1.6,29.7-8.6,33.7-14.2c0.7-0.9,1.8-2.3,1.8-2.3l0.9-1.1l-1.3-0.6c-0.1,0-0.6-0.3-2.9-1l-8.4-2.8l-8.4-2.8
		c-2.3-0.8-12.6-3-20-4.6l-5.7-1.2l1.8-0.3C309.4,171.6,355.5,163.5,352.9,117.8z"/>
	<g>
		<path class="st0" d="M240.2,221.4l-0.5,0.2c-3.8,1.7-7.6,3.3-11.7,4.1c-2.6,0.7-5.3,1-8,1c-8.3,0-16.2-3.4-21.1-10.9l-0.2-0.2
			l-0.2,0.2c-1,0.9-1.6,1.9-2.6,2.9c-5.2,6-12.8,8.3-20.5,8.3c-6,0-12.1-1.4-17.2-3.5l-0.5-0.2l0.2,0.5c3.9,10.4,6.3,21.9,6.3,33.4
			c0,5.2-0.5,10.4-1.5,15.5c-0.7,3.6-1.9,7.3-2.9,10.8l-0.2,0.5l0.5-0.3c11-5.8,24.5-8.8,37.9-8.8c12.7,0,25.4,2.7,36,8
			c1.7,0.7,3.4,1.9,5,2.4l0.5,0.2l-0.2-0.5c-3.1-9.1-4.9-18.8-4.9-28.9c0-0.1,0-0.3,0-0.4c0-0.7,0-1.3,0-1.9c0-11.1,2.3-22,5.6-31.8
			L240.2,221.4z"/>
	</g>
	<g>
		<path class="st0" d="M132.3,232.1c-1.2-1.5-2.1-3.1-2.5-4.9l0,0l-0.1-0.6l0.5,0.3c2,1.3,4.2,1.8,6.4,1.8l0,0
			c4.6,0,9.5-2.3,13.1-4.8l0,0l0.2-0.1l0.1,0.1l0.1,0.1l-0.2,0.2l0.2-0.2l0.1,0.1l0,0.1c-0.5,4.7-2.2,10.1-7.2,11.9l0,0
			c-0.7,0.2-1.5,0.3-2.2,0.3l0,0C137.4,236.5,134.5,234.6,132.3,232.1L132.3,232.1z"/>
	</g>
	<g>
		<path class="st0" d="M249.5,230.3c-1.1-1.6-1.7-3.3-2-5.3l0,0l-0.1-0.6l0.5,0.4c2.5,2,5.6,2.8,8.8,2.8l0,0c3.7,0,7.6-1.2,10.5-3.1
			l0,0l0.6-0.4l-0.2,0.7c-1.5,4.3-5.2,8.6-9.6,9.6l0,0c-0.4,0.1-0.8,0.1-1.2,0.1l0,0C253.8,234.6,251.2,233,249.5,230.3L249.5,230.3
			z"/>
	</g>
	<g>
		<path class="st0" d="M255.2,236.6c0.6,0.1,1.2,0.2,1.8,0.2l0,0c1.7,0,3.4-0.5,5.1-1l0,0l0.5-0.2l-0.2,0.5
			c-6.2,15.5-13.7,30.4-21.4,45.3l0,0l-0.3,0.5l-0.2-0.5l0,0c-1.6-4.3-2-8.8-2-13.4l0,0c0-3.4,0.2-6.9,0.5-10.3l0,0
			c1.1-10,3.5-19.6,6.5-28.8l0,0l0.2-0.6l0.3,0.5C247.8,232.3,251.2,236,255.2,236.6L255.2,236.6"/>
	</g>
	<g>
		<path class="st0" d="M157.5,281.5c-9.3-14.2-16.4-29.3-23.3-44.6l0,0l-0.3-0.7l0.6,0.3c1.9,1,4.3,1.8,6.7,1.8l0,0
			c1.6,0,3.1-0.4,4.4-1.2l0,0c3-2.1,4.8-5.4,5.9-8.7l0,0l0.2-0.5l0.3,0.5c5.1,10.4,7.6,23,7.6,35.5l0,0c0,5.9-0.6,11.8-1.6,17.4l0,0
			l0,0.1l0,0.1l-0.3,0.3L157.5,281.5L157.5,281.5z"/>
	</g>
	<g>
		<path class="st0" d="M165.7,329.2L165.7,329.2L165.7,329.2c-9.6-10.5-13.2-23.9-13.7-38.1l0,0l0-0.1l0.1-0.1
			c12.5-9.1,29.2-13.9,45.7-13.9l0,0c10.8,0,21.5,2.1,30.9,6.4l0,0c6,2.7,11.7,5.6,17,9.8l0,0l-0.2,0.2l0.2-0.2l0.1,0.1l0,0.1
			c-1.6,13.4-6.4,25.3-14.8,35.6l0,0l0,0l-0.1,0c-10,3.9-21.9,6-33.6,6l0,0C186.2,335.1,175.2,333.2,165.7,329.2L165.7,329.2z"/>
	</g>
	<g>
		<g>
			<path class="st0" d="M333,188.8c0,0-5.9-2.3-7.4-2.8c-16.1-6.1-36.9-9.8-54.5-10.2c-1.7-19.6-3.9-31.9-7.8-43l-0.1-0.2l-0.2,0
				c-9.1-0.5-49.4-2.1-64.9-2.1s-55.1,2.5-64.2,3l-0.2,0l-0.1,0.2c-3.7,10.6-7.8,23.7-9.8,43.1c-17.8,1.1-41.8,6.2-57.9,12.3
				c-1.2,0.4-2,0.9-2.6,1.2c-0.3,0.2-0.5,0.3-0.7,0.4c0,0-0.1,0-0.1,0.1l-0.5-0.6l0.2,0.9c0,0,0,0.1,0.1,0.1
				c2.5,2.8,11.6,13.7,28.4,14.1c0.3,0,0.6,0,0.9,0c5.5,0,14.8-1.1,21.1-3.8c1.5-0.7,4.5-1.9,5.3-2.2c0.3,0.6,1.2,2.3,1.6,3.5
				c1.8,5,4,12.3,5.6,15.4c2.3,4.7,6.2,8.4,12.4,8.6c0.1,0,0.2,0,0.2,0c5.6,0,9.5-4.5,10.1-5.4l0.3-0.4l-0.5,0
				c-15.6-0.8-22-9.1-23-21.6l0-0.2l-0.2,0c-1.8-0.3-3-0.6-3.7-1c-0.7-0.4-1-0.9-1.3-1.8c-0.1-0.4-0.2-0.8-0.2-1.3
				c0-1.5,0.6-3.2,1.8-5.1c1.2-1.6,3-3.2,6.5-3.2c1.5,0,3.2,0.3,5.4,1c4.9,1.5,8.7,4.7,11.5,7c3.2,2.8,12.6,12.6,18.3,16.1
				c3.4,2,8.4,3.9,13.6,3.9c4.1,0,8.4-1.2,11.7-4.5c7.3-7.1,8.1-13.2,9.1-17l0.1-0.3l-0.3,0c-12.5-0.4-24.4-1.6-35.3-3.1
				c-1.3-0.2-1.6-0.7-1.6-1.2c0-0.5,0.6-1.2,1.6-1.2c0.2,0,0.4,0,0.6,0.1c0,0,20.6,2.7,35.1,2.8h0.2l0-0.2c0.1-1.7,0.1-4.6,0.2-8
				l0-0.2l-0.2,0c-8.6-0.2-22.9-1.1-36.5-3.8c-1.2-0.2-1.6-1-1.6-1.5c0-0.6,0.4-1.1,1.3-1.1c0.2,0,0.4,0,0.6,0.1
				c2,0.5,24.2,3.7,36.3,3.7c0,0,0.1,0,0.1,0l0.2,0l0-0.2c0-2.6,0.1-6.2,0.1-9.7v-0.2h-0.2c-0.2,0-0.5,0-0.8,0
				c-7.8,0-19.1-0.8-35.2-3.2c-1.3-0.2-1.8-0.8-1.8-1.3c0-0.5,0.5-1,1.5-1c0.1,0,0.2,0,0.3,0c0,0,19.6,2.9,34.9,2.9c0.4,0,0.7,0,1,0
				h0.2v-0.2c0-2.4,0-5.1,0-7.9c0,0,0,0,0,0c0-1.5,0.7-2.1,1.2-2.1c0.5,0,1.1,0.5,1.1,1.9c0,1.1,0.1,4,0.1,7.8c0,0.1,0,0.1,0,0.2
				v0.2l0.2,0c14.8-0.5,27.8-2.2,33.9-3.3c0.4-0.1,0.7-0.1,0.9-0.1c1.2,0,1.5,0.5,1.5,1c0,0.5-0.4,1-1,1.1c-2,0.4-19.1,3.7-35.4,4
				l-0.2,0v0.2c0,2.9,0.1,6.6,0.2,9.7l0,0.2l0.2,0c10.9-0.4,23.6-0.8,34.5-3.2c0.5-0.1,0.9-0.2,1.3-0.2c1.3,0,1.7,0.5,1.7,0.9
				c0,0.5-0.6,1.3-2.2,1.5c-10.7,1.8-26.1,3.6-35.3,3.7h-0.2l0,0.2c0.1,2.7,0.1,5.9,0.2,8l0,0.2l0.2,0c17.5-0.4,34-2.9,36.8-3.4
				c0.2,0,0.4-0.1,0.6-0.1c1.1,0,1.6,0.6,1.6,1.2c0,0.5-0.5,1.2-1.8,1.4c-3.1,0.4-23.6,3.1-36.7,3.4l-0.3,0l0.1,0.3
				c1.3,4.4,1.6,10.9,8,16.5c3.2,2.7,7.4,3.9,11.8,3.9c4.3,0,8.7-1.2,12.4-3.3c5.8-3.3,14.9-13.3,18.1-16.1c2.7-2.4,8.8-8,17-8
				c0.1,0,0.2,0,0.3,0c4.2,0.1,6.3,1.2,7.3,2.4c1.1,1.2,1.2,2.5,1.5,3.3c0.2,0.5,0.3,1.2,0.3,1.9c0,1-0.3,2-1.3,2.7
				c-1.4,0.9-2.8,0.7-4.3,1.3l-0.1,0.1l0,0.1c-1.1,6.8-3.2,14.6-8.6,18.7c-2.9,2.2-6.6,3.4-9.6,4.1c-3,0.7-5.3,0.8-5.3,0.8l-0.5,0
				l0.3,0.4c0,0,1.3,1.4,1.7,1.8c1,0.9,3.6,2.2,7.2,2.2c0.4,0,0.8,0,1.2,0c3.9-0.3,8.3-3.3,10.2-5.2c2.9-3.7,5.5-11.5,7.5-16.4
				c0.7-1.8,2.3-4.9,2.9-6.4c1.6,0.8,2.5,1.2,5.6,2.5c6.3,2.5,14.3,3.6,19.7,3.6c0.3,0,0.6,0,0.9,0c8.8-0.2,18.7-5.5,24.7-11.1
				c1-1,3-3.4,3-3.4l0.2-0.3L333,188.8z"/>
		</g>
	</g>
	<g>
		<g>
			<path d="M207.5,296.6c-0.9,1.6-1.3,3.3-1.3,5.2l0,0c0,2.9,1.1,6,2.8,8.2l0,0c0.1,0.1,0.2,0.2,0.4,0.2l0,0c0.2,0,0.4-0.1,0.6-0.3
				l0,0c0,0,0-0.1,0-0.2l0,0c0-1.7-1.1-3.3-1.1-5.2l0,0c0-0.4,0.1-0.9,0.2-1.4l0,0l0.2-0.5l0.3,0.5c1.7,2.8,4.5,4.6,7.3,5.6l0,0
				c1.1,0.3,2.3,0.4,3.3,0.4l0,0c3.8,0,7.4-1.7,9.9-4.8l0,0c1.2-1.7,2.1-3.8,2.1-5.9l0,0c0-1-0.2-1.9-0.7-2.9l0,0l0,0
				c-1.8-3.5-5.5-5.6-9.2-6.2l0,0c-0.6-0.1-1.3-0.1-1.9-0.1l0,0C215.1,289.3,210.1,291.7,207.5,296.6L207.5,296.6z"/>
		</g>
		<g>
			<path d="M186.6,311.3c0.3,0,0.7-0.3,0.9-0.8l0,0c1.4-2.2,2.4-5.1,2.4-7.9l0,0c0-1.8-0.4-3.6-1.4-5.2l0,0l0.2-0.1l-0.2,0.1
				c-1.5-2.8-4.5-5.1-7.3-6l0,0c-1.6-0.5-3.4-0.8-5.1-0.8l0,0c-4.1,0-8.1,1.6-10.7,5l0,0c-1,1.3-1.5,2.9-1.5,4.6l0,0
				c0,0.9,0.1,1.7,0.4,2.5l0,0c1.4,3.8,4.9,6.7,8.7,7.5l0,0c0.9,0.2,1.7,0.2,2.5,0.2l0,0c4.4,0,8.3-2.2,11-5.9l0,0l0.3-0.4l0.2,0.4
				c0.1,0.3,0.2,0.7,0.2,1l0,0c0,0.8-0.2,1.6-0.3,2.2l0,0c-0.1,1.1-1,2-1,2.7l0,0c0,0.2,0.1,0.5,0.3,0.8l0,0
				C186.4,311.3,186.5,311.3,186.6,311.3L186.6,311.3z"/>
		</g>
		<g>
			<path d="M166.7,325.9c9.6-4,21.1-6.4,32.5-6.4l0,0c8.6,0,17.2,1.3,24.9,4.3l0,0c1.9,0.8,4,1.5,5.9,2.1l0,0
				c0.5-0.6,0.7-0.8,1.1-1.3l0,0c-9.4-4.6-20.4-6.7-31.4-6.7l0,0c-11.8,0-23.7,2.4-33.7,6.9l0,0
				C166.1,325.2,166.3,325.5,166.7,325.9L166.7,325.9z"/>
		</g>
		<g>
			<path d="M175.1,254.8c5.7,7.2,14.3,10.3,23.1,10.3l0,0c3.2,0,6.5-0.4,9.6-1.2l0,0c14.6-4.1,23.5-20,26.5-34l0,0
				c-0.4-0.4-0.8-0.5-1.4-0.7l0,0c-1.8,8.2-5.3,16.3-10.5,23.1l0,0c-6.2,7.5-15.3,11.4-24.4,11.4l0,0c-3.2,0-6.4-0.5-9.4-1.4l0,0
				c-13.4-4.2-20.4-18.9-21.7-32.2l0,0c-0.5,0-0.9,0-1.4,0.3l0,0C166.6,239.6,169.3,247.8,175.1,254.8L175.1,254.8z"/>
		</g>
	</g>
	<g>
		<path class="st0" d="M66.2,117c7.7,14.8,23.2,19.6,38.9,18.8c8.8-0.1,17.3-1,26-1.5l0,0.6c-4.4,12.5-7.3,25.2-9.1,38.3
			c-22.8,0.8-46.2-1-63-16.2c-11.4-11.6-14.3-27.5-11.8-43.2c2.7-3.2,5.5-5.9,8.4-9.2C59.2,108.4,65.2,111.5,66.2,117z"/>
		<path class="st0" d="M349.7,110.3c0.6,2.3,0.7,4.4,0.9,6.9c1.1,17.5-6.5,33.7-21.5,42.6c-16.4,9.9-35.3,13.3-55.4,13.8
			c-0.3-1.8-0.6-4.1-0.8-6.1c-1.6-11.5-3.8-23.2-7-34.3c21.5-0.2,47.7,5.4,61.9-14.3c1.9-2.7,3.8-5.3,5.4-8.3
			c3.2-1.4,6.2-3.4,9.3-5.1C345.1,106.8,347.1,108.9,349.7,110.3z"/>
		<path class="st0" d="M267.9,199.1c0.1,6.7-2.1,13.7-8.1,16.9c-2.8,1.5-6.1,2.1-9.3,2c-0.1-0.6-0.3-1.3-0.1-2
			c4.9,0.1,9.6-1.6,12.2-5.7c1.8-3,2.5-6.4,2.5-10.1C266.1,199.7,267,199.3,267.9,199.1z"/>
		<g>
			<path class="st0" d="M146.6,217.4c-0.9,0.2-1.3,0.4-3,0c-7.9,0-16.2-6.3-15.7-17.1c0.9-0.4,2-0.2,3,0.1c0,6.1,2.5,14.4,15.4,14.4
				C147.2,216.2,146.3,216.4,146.6,217.4z"/>
		</g>
	</g>
</g>
</svg>
