<?xml version="1.0" encoding="utf-8"?>
<!-- Generator: Adobe Illustrator 24.0.1, SVG Export Plug-In . SVG Version: 6.00 Build 0)  -->
<svg version="1.1" id="Layer_1" xmlns="http://www.w3.org/2000/svg" xmlns:xlink="http://www.w3.org/1999/xlink" x="0px" y="0px"
	 viewBox="0 0 400 400" style="enable-background:new 0 0 400 400;" xml:space="preserve">
<style type="text/css">
	.st0{fill-rule:evenodd;clip-rule:evenodd;}
	.st1{fill-rule:evenodd;clip-rule:evenodd;fill:#FFFFFE;}
</style>
<g>
	<path class="st0" d="M270.3,124.5c-4.4-0.5-13.6,1.9-28.1,8c-21.5,9-46.9,28.1-63.1,45.5c-17.3,18.6-51.8,61.6-51.3,81.6
		c0,0.7,0.5,3.3,3.4,4.4l1.3,0.4c10.4,2.4,25.2,0.8,57.2-9.2c0,0,48.9-14.8,109.6-41.4l17.5-9.8l-9,45.2l-1.1,0.9
		C261.8,289.2,192,326,133,328.8c-13.6,0.7-29.6-0.1-43.6-5.7c-18.5-7.4-29.9-18.6-34.8-32.7c-2-4.1-19-43,28.5-102.6l-30.9,7.6
		l24.9-38.3c50.3-41.6,198.3-128,267.5-62.2l5.4,5.5v22.1c0,0-110.3,64.3-109.7,63.3c1-1.8,24-47.2,24-47.2
		C267.2,132.8,269.1,128.3,270.3,124.5"/>
	<path class="st1" d="M339,100.7l-67.5,41.4c29-56.8-23.2-43.4-58-22.9c-19.8,10.4-42.6,31.5-49.7,39.1
		C105.7,220,65.1,302.5,192.1,263c0,0,49.3-14.9,110.7-41.9c-173.4,146.6-337.1,85.2-176.1-68.8c-14.7,3.4-29.5,6.6-43.9,10.5
		C134.4,120.3,275.8,40.6,339,100.7"/>
</g>
</svg>
