<?xml version="1.0" encoding="utf-8"?>
<!-- Generator: Adobe Illustrator 24.0.1, SVG Export Plug-In . SVG Version: 6.00 Build 0)  -->
<svg version="1.1" id="Layer_1" xmlns="http://www.w3.org/2000/svg" xmlns:xlink="http://www.w3.org/1999/xlink" x="0px" y="0px"
	 viewBox="0 0 400 400" style="enable-background:new 0 0 400 400;" xml:space="preserve">
<style type="text/css">
	.st0{fill-rule:evenodd;clip-rule:evenodd;fill:#FFFFFE;}
	.st1{fill-rule:evenodd;clip-rule:evenodd;}
	.st2{fill-rule:evenodd;clip-rule:evenodd;fill:#1A1919;}
</style>
<g>
	<path class="st0" d="M60.4,248.5c-2.1-3.1-10.4-16.6-10.4-38.7c0-8.2,1.1-17.5,4.1-27.9c0-0.1,0.1-0.3,0.2-0.6
		c0.6-1.9,4-12.2,4.5-13.5c0.2-0.7,1.7-6.7,2.4-8.9c0.1-0.3,0.2-0.5,0.3-0.7v-0.1h-0.1c0.3-1.9,0.6-3.8,0.9-5.6
		c0.1-0.9,0.3-1.9,0.4-2.7v-0.1v-0.1c0.1-0.3,0.2-0.5,0.3-0.7c3.7-15.2,10.6-24.1,14.5-28.1l0,0l0,0c0.7-0.7,3-2.8,5.4-4.3
		c0.5-0.7,2.3-3,4.4-5.6c2.5-3,5.3-6.4,7.5-8.3c0.9-2.2,6.3-13.7,21.3-19.2c6.6-4.5,13.6-8.5,20.9-11.9c1.9-2,22.8-23.5,52.2-23.5
		c0.6,0,1.2,0,1.8,0l2.7,0.1l-7.4,10c4.9-0.5,9.8-0.7,14.9-0.7c20.2,0,39.5,3.9,57,11.1l0,0l0,0c0.7,0.3,1.8,0.9,3,1.6
		s2.4,1.6,3.2,2.6c0.3,0,3.4,0.2,6.9,1.8l0,0l0,0c19,10,35.5,23.8,48.5,40.5l0.1,0.1v0.1c0.1,0.2,0.7,1.2,1.1,3.8l0,0h0.1l0.1,0.1
		c0,0,0.5,0.3,1.2,0.7c0.7,0.4,1.4,1,2,1.6l0.1,0.1l0.1,0.1c15.9,23.1,25.2,50.8,25.2,80.7c0,28.3-8.3,54.8-22.8,77.1l-0.1,0.1
		l-0.1,0.1c-0.2,0.2-1,1.1-3.1,2.2l0,0v0.1v0.1c0,0-0.1,0.7-0.3,1.5c-0.2,0.8-0.5,1.8-1,2.7l0,0l0,0c-26.9,36.9-71.2,61-121.2,61
		C135.8,347.2,80.2,305.9,60.4,248.5"/>
	<path class="st1" d="M323.7,122.4c-0.9-0.9-2.9-2.1-2.9-2.1c-0.7-0.3-0.9-1-0.9-1c-0.4-2.5-0.9-3.4-0.9-3.4
		c-12.8-16.5-29.2-30.2-48-40.1c-3.3-1.5-6.4-1.7-6.4-1.7c-0.7,0-1-0.5-1-0.5c-1.1-1.6-4.5-3.3-5.7-3.9c-17.4-7.1-36.5-11-56.5-11
		c-6.1,0-12.1,0.4-17.9,1.1l7.7-10.4c-30.9-0.9-53,23.2-53,23.2l0,0c-7.4,3.4-14.5,7.5-21.2,12l0,0c-16.1,5.8-20.8,18.8-20.8,18.8
		c-4.1,3.4-12.2,14.1-12.2,14.1c-2.3,1.3-4.7,3.5-5.4,4.2c-3.7,3.9-10.5,12.6-14.1,27.5c-0.1,0.3-0.2,0.5-0.3,0.7
		c-0.1,0.8-0.3,1.8-0.4,2.7c-0.4,1.8-0.7,3.6-0.9,5.5l0.1-0.2c-0.1,0.4-0.1,0.6-0.1,0.6c-0.4,0.3-2.7,9.5-2.7,9.5
		c-0.4,1.2-4.6,13.8-4.6,13.8l0,0v0.1c-11.1,38.7,3.6,62.1,6.1,65.7c19.6,56.9,74.7,97.9,139.7,97.9c49.6,0,93.4-23.9,120.1-60.5
		l0,0c0.8-1.2,1.2-3.6,1.2-3.6c0-0.8,0.6-1.2,0.6-1.2c2-1.1,2.8-1.9,2.9-2c14.3-22.1,22.5-48.3,22.5-76.3
		C348.6,172.7,339.4,145.2,323.7,122.4"/>
	<path class="st0" d="M200.9,170.8c-0.8-7.1-5.5-39.5-25.4-82.7c0,0,20.8,11.3,33.5,34.8c0,0,6.2-7.3,7.9-23.6
		c0,0,10.3,34.6-8.2,74.3c-0.1,0.2-0.3,0.3-0.2-0.1c0,0,8.8-29.9,8.1-55.4c0,0-5.4,17.1-8.7,20.4c0,0-6.1-21.2-14.9-28
		c0,0,9.6,35.7,8,60.3C201.2,170.9,201,171.8,200.9,170.8 M226.7,139.1c-0.2,4.8-1.8,33.4-11.4,39.8c0,0-1.8,1.3,0.1,0.4
		c0,0,21.8-8.1,11.6-40.1C227,139.1,226.7,138.6,226.7,139.1 M202.7,292.8c0,0-1.8,2.1,0.5,0.4l22.2-17L214,236.6l5.2-49.6
		c0,0,0.5-4.7-0.4-0.1l-9.2,47.6l10.9,39.5L202.7,292.8 M220.5,89.3c0,0,11.4-6.3,26.5-1.3c0,0,0.5,0.2,0,0.2
		c-2.8,0-15.4-0.5-22.3,10.7C224.5,98.9,222.4,91.7,220.5,89.3"/>
	<path class="st0" d="M204.7,70.8c0,0-3.5-0.3-1.6,0.9c0,0,9.1,6.9,14.7,14c0,0,17.7-8.3,37.2,2.9c0,0-19.6,9.1-23.4,19.2
		c0,0,22,20,67.6,13.6c0,0,8-0.9,5.1-4.1C304.4,117.3,269.8,70.8,204.7,70.8 M243.4,125.7c0,0,1.6,4.4,1.4,8.2c0,0-6-8.2-17.3-8.2
		c0,0,93.4,43,95.3,118c0.3,11.2,13.7-15.3,11.1-54.6c-1.8-27.8-12.9-50.9-21.8-60.8c0,0-1.1-2.7-5.9-2.3
		C306.1,126,265.6,134.2,243.4,125.7"/>
	<path class="st0" d="M243.3,155.3c0,0-2.7-2.8,0.1-0.7c0,0,71,33.6,73.4,102.1c0,0,0.5,5.2-2.3,7.6c0,0-16.6,21.1-41.2,29.1
		c0,0-3.9,1.5-3-2.6c0,0,18.4-71.2-30.3-118.6c0,0-2.2-1.5,0.6-0.7c0,0,8,2.4,13,8.7C253.6,180.2,252.7,166.2,243.3,155.3"/>
	<path class="st0" d="M223.2,209.6l-3.1,27.6l11.2,41.3l-22.1,17.7c0,0,20,6.3,50.5-0.4c0,0,2.5-0.6,3.3-3c0,0,14.7-68.9-28.8-110.1
		c0,0,16.3,16.3-1.5,53.5C232.7,236.2,232.7,212.4,223.2,209.6"/>
	<path class="st0" d="M242.4,311.1c-71.5,3.7-89-30.8-89-30.8s-0.4-0.6-1-1.5c1.3,0.5,23,8,43.3-10.9l-4.4-39.6l-5.4,13.4
		c-0.2-0.5-0.4-1.3-0.5-1.6s-15.7-78.9-16.3-81.2c2.5,2.4,11.7,10.8,19.8,14.8c0,0,2.2,1.3,0.8,0.1c0,0-32-27.5-28.2-61.5
		c0,0,5.6,14.1,17.1,20.1c0.7,0.3,1.3,0.7,2,0.9c0.1,0,0.1,0.1,0.2,0.1l-13.1-47.7c0,0-0.2-0.7-0.4-0.7l-0.1-0.4
		c0,0-1.5-12.9,12.4-28.5c0,0,1.8-1.2-1-0.4c0,0-22.1,5-35.5,23.7c0,0-1.6,5.9-1.8,13.3c0,0,0,0-0.1,0.1c-0.1,0-0.2,0.1-0.7,0.6
		c-0.3,0.3-0.7,0.7-1,1.1c-3.8,3.8-12.7,13.5-19.2,27c-11,21.3-16.9,50.9,10.3,78c0,0,0,0,0-0.1l0.1,0.1c0,0-16.5-1-25.9-14
		c0.5,2.6,4.8,20,11.7,31.1l0,0c-8.1-2.2-14.7-12-15.7-14c-0.3-0.5-0.3,0-0.3,0c2.8,10.2,5.3,13.9,5.3,13.9l0,0
		c1.3,2.5,9.8,18.7,29.8,41c0,0-0.1,0-0.3,0c-25.9-2.4-35.1-11.9-35.1-11.9c-0.4-0.4-0.3,0.1-0.2,0.3c2.3,5.9,6.5,11.8,7.1,12.6
		c2,3.3,46.7,76.9,133,53.8c0,0,2.1-0.3,3.5-0.8c0.3-0.1,0.4-0.2,0.4-0.3C244.1,311.1,242.4,311.1,242.4,311.1"/>
	<path class="st1" d="M170.3,62.6c0-0.1,0.1-0.1,0.1-0.2l0,0c-0.8,0.2-15.1,4.4-19.3,26.2c0,0,0,0.4,0.2,0c1.3-2.1,5.8-8.9,9.9-6.9
		c0,0,0-0.2,0.1-0.4C161.4,79.6,162.7,72,170.3,62.6 M159.3,259.3c-3.1-6.2-22.9-49.5-22.9-49.5c-6.1,2-13.8-3.1-13.8-3.1l0,0
		c9.7,25.9,32.7,48.5,36.4,52.6c0,0,0,0,0,0.1c0.6,0.7,0.6,0.4,0.6,0.4S159.5,259.6,159.3,259.3 M168.7,255.5l4.2,9.3
		c0,0,2.4-24.8,11.9,5.1C184.8,269.9,180.6,227.5,168.7,255.5 M139.7,118.4c-17.9,40.9,22.4,57.7,22.9,57.9l0,0l-3.4-14.8
		c-1-0.3-1.9-0.7-2.8-1.1c-0.3-0.1-0.6-0.3-0.9-0.4c-0.4-0.2-0.8-0.4-1.1-0.5c-17.6-9.3-15.9-31.7-14.8-39c0-0.1,0-0.1,0-0.1
		c0-0.2,0.1-0.4,0.1-0.6c0.1-0.7,0.2-1.2,0.2-1.4c0-0.1,0.1-0.2,0.1-0.2l0,0C140,117.6,139.8,118.2,139.7,118.4 M167.3,238
		l-3.3-58.6l17.7,64.5C181.7,243.9,176,230.4,167.3,238"/>
	<g>
		<path class="st2" d="M153.2,110.7c-2.4,24.1,7.4,37.4,8.5,39.2c-6.1,0.8-20.5-6.9-11.8-22.4C149.3,125.7,150.7,114.8,153.2,110.7"
			/>
		<path class="st0" d="M132.6,89c0,0-47.1,41.7-34.2,93.6c0,0-11.4-20.9-5.1-42.2c0,0-31.6,38.8,15.2,98.9c0,0-15-7.3-27.3-31.1
			c0,0-5.4,69.6,73,110c0,0,56,30.5,122.5-4.4c0,0-54.7,41.9-129,7.1C95,296.1,80,253.1,77.2,243.2C65.9,231,65,216.8,66.3,204.6
			c0,0-2.5,14.7,9.6,26.1c-0.8-4.8-1.9-15.1-0.1-29.1c0,0-11.3-41.3,1.8-56.5c0,0-3.6,11.2-0.9,23c0.3-1.4,0.5-19.4,18.6-37.5
			c0,0,3.6-16.2,10.4-23.3c0,0-2.8,7.2-3.3,14.2C102.4,121.6,113.2,100.2,132.6,89"/>
	</g>
</g>
</svg>
