<?xml version="1.0" encoding="utf-8"?>
<!-- Generator: Adobe Illustrator 24.0.1, SVG Export Plug-In . SVG Version: 6.00 Build 0)  -->
<svg version="1.1" id="Layer_1" xmlns="http://www.w3.org/2000/svg" xmlns:xlink="http://www.w3.org/1999/xlink" x="0px" y="0px"
	 viewBox="0 0 400 400" style="enable-background:new 0 0 400 400;" xml:space="preserve">
<style type="text/css">
	.st0{fill-rule:evenodd;clip-rule:evenodd;}
	.st1{fill-rule:evenodd;clip-rule:evenodd;fill:#FFFFFE;}
</style>
<g>
	<path class="st0" d="M200,50c40,0,77.6,15.6,106,44c28.3,28.3,44,66,44,106c0,82.8-67.2,150-150,150c-40.1,0-77.7-15.6-106.1-44
		C65.7,277.7,50,240,50,200c0-39.9,15.7-77.6,43.9-106C122.3,65.6,160,50,200,50"/>
	<path class="st1" d="M200,338.1c76.1,0,137.9-61.9,137.9-138.1c0-76-61.9-138-137.9-138c-76.1,0-138,61.9-138,138
		C62,276.2,123.9,338.1,200,338.1"/>
	<path class="st0" d="M72.2,200c0-70.4,57.3-127.7,127.8-127.7S327.7,129.6,327.7,200c0,70.5-57.3,127.8-127.7,127.8
		S72.2,270.5,72.2,200"/>
	<path class="st1" d="M300.6,146.5l2.9-1.6l-9.2-14.2l-2.6,1.9c-15.6-19.7-43.3-41.7-69.7-45c19.9,9.1,42.2,32.2,55.9,50.1
		L263.5,148l1.7,2.6l-64.8,42.1l-64.8-42.1l1.7-2.6L123,137.6c13.7-17.9,36-41,55.9-50.1c-26.4,3.3-54.1,25.2-69.6,44.9l-2.7-1.9
		l-9.2,14.2l2.9,1.7l-0.1,0.1c-11.4,22.4-19.8,57-11.6,82.4c-0.2-21.9,11.5-52,22.1-72l15.5,8.7l1.6-2.4l60.1,37.8l-79.3,51.5
		l-0.1-0.2l-10.6,2.9l0.1,0.3c-0.5,2,0.5,5.6,2.7,9.1c2.3,3.6,5.1,6,7.2,6.4l0.2,0.3l7.1-8.5l-0.1-0.2l158-99.4l1.5,2.4l15.5-8.7
		c10.5,20,22.3,50.1,22.2,72C320.6,203.5,312.1,168.9,300.6,146.5"/>
	<path class="st1" d="M292.5,252.3l-0.1,0.2l-73-47.4l-12.8,7.6l79.3,49.9l-0.1,0.2l7,8.5l0.2-0.3c2.1-0.4,5-2.8,7.2-6.4
		c2.2-3.5,3.2-7.2,2.7-9.1l0.1-0.3L292.5,252.3 M251.1,147L213,100.3l-5.5,7.2l-7.6-18.1l0,0l0,0l0,0l0,0l-46.3,56.4l20.4-5.2
		l25.9,32.5l0,0l0,0l0,0l0,0l25.5-32.7L251.1,147 M172.7,300.5c6.6-6.3,14.9-10.1,23.9-11V277H162
		C162.9,286.1,166.7,294.3,172.7,300.5 M196.6,312.2v-14.8c-6.7,0.8-12.9,3.6-18,8.3C183.9,309.1,190,311.5,196.6,312.2
		 M204.3,235.3v14.8c6.7-0.8,13-3.6,18-8.2C217,238.3,210.9,235.9,204.3,235.3 M228.2,246.9c-6.6,6.2-14.9,10.1-23.9,10.9v11.4h34.5
		C237.8,260.6,233.9,252.8,228.2,246.9 M196.6,250.1v-14.8c-6.6,0.7-12.7,3-18,6.6C183.7,246.5,189.9,249.3,196.6,250.1 M204.3,277
		v12.6c9,0.8,17.4,4.7,23.9,11c6-6.2,10-14.4,10.7-23.5h-34.6 M162.1,269.3h34.5v-11.4c-9-0.8-17.3-4.7-23.9-10.9
		C167,252.8,163.1,260.6,162.1,269.3 M204.3,312.2c6.6-0.7,12.7-3,18-6.6c-5-4.6-11.3-7.5-18-8.3V312.2"/>
</g>
</svg>
