<?xml version="1.0" encoding="utf-8"?>
<!-- Generator: Adobe Illustrator 24.0.1, SVG Export Plug-In . SVG Version: 6.00 Build 0)  -->
<svg version="1.1" id="Layer_1" xmlns="http://www.w3.org/2000/svg" xmlns:xlink="http://www.w3.org/1999/xlink" x="0px" y="0px"
	 viewBox="0 0 400 400" style="enable-background:new 0 0 400 400;" xml:space="preserve">
<style type="text/css">
	.st0{fill-rule:evenodd;clip-rule:evenodd;fill:#FFFFFE;}
	.st1{fill-rule:evenodd;clip-rule:evenodd;}
</style>
<g>
	<path class="st0" d="M200,50c-82.7,0-150,67.3-150,150s67.3,150,150,150s150-67.3,150-150S282.7,50,200,50"/>
	<path class="st1" d="M200,74.4c53.2,0,98.8,33.3,117,80.1c-22.3-30.6-66.4-51.4-117-51.4S105.3,124,83,154.5
		C101.2,107.7,146.8,74.4,200,74.4 M200,290.2c-63.5,0-116.2-33.8-124.9-77.5c-0.3-2.9-0.4-5.9-0.5-8.8h24.5v-7.8H74.5
		c0.1-3,0.3-5.9,0.5-8.8c8.7-43.7,61.4-77.5,124.9-77.5s116.2,33.8,124.9,77.5c0.3,2.9,0.5,5.9,0.5,8.8h-24.5v7.8h24.5
		c-0.1,3-0.3,5.9-0.5,8.8C316.2,256.5,263.5,290.2,200,290.2 M200,325.6c-53.2,0-98.8-33.3-117-80.1c22.3,30.6,66.4,51.4,117,51.4
		s94.7-20.9,117-51.4C298.8,292.3,253.2,325.6,200,325.6 M200,54.4c-80.3,0-145.6,65.3-145.6,145.6S119.7,345.6,200,345.6
		S345.6,280.3,345.6,200S280.3,54.4,200,54.4"/>
	<path class="st1" d="M205.4,160.1h1.6h0.3c2.5,0,3.4,0.1,3.3,4.4c0,3.5,0,3.7-0.1,5.4v0.3c0,0.5-0.2,1-0.5,1.4
		c-0.2,0.2-0.5,0.3-0.8,0.3h-3.8V160.1L205.4,160.1z M205.3,177.4h1.6c1.6,0,4.2,0.5,4.2,3.3c0,1.3,0.1,5.6,0.2,7.2v0.6
		c0,0.2,0.1,2.3,0.2,2.7c0.7,2.5,2.6,3.9,5.6,4.3h2.8v-15.1c0-1.3-0.7-3.1-1.7-4.4l-0.2-0.3c1.5-1.7,2.1-3.4,2.1-6v-1.5
		c0-11.7-0.5-14-5.9-14.6h-18.3v41.3h9.4L205.3,177.4L205.3,177.4z M263.8,153.6h-9.2v41.3h9.2V153.6 M175.6,194.9h9.5V160
		c0.1,0,0.2,0,0.3,0c1.7,0,3-0.5,4-1.5c1.7-1.8,1.6-4.5,1.6-4.6v-0.3h-21.5v6.5h6.1L175.6,194.9 M274.8,194.9h9.5V160
		c0.1,0,0.2,0,0.3,0c1.7,0,3.1-0.5,4-1.5c1.7-1.8,1.6-4.5,1.6-4.6v-0.3h-21.5v6.5h6.1V194.9 M164.5,188.3h-9.9v-10h6.8v-9h-6.8V160
		h9.9v-6.3h-19.1V195h19.1V188.3 M130.2,188.3H125v-28.2c3.2-0.1,3.9,0.2,4,0.2c1.2,0.5,1.2,2.7,1.2,2.8
		C130.5,166.3,130.2,185.7,130.2,188.3 M133.4,153.6h-23.5v0.3c0,0.1-0.3,2.5,1.2,4.3c1,1.2,2.5,1.8,4.4,1.9v34.8H133
		c4,0,6.7-3.4,6.7-8.4v-19.2C139.7,156.7,139.7,153.8,133.4,153.6 M234.8,165c0-1.6,0-3.2,0.3-4.7c0.5-0.1,0.9-0.1,1.3-0.1h0.2
		c3,0,3.2,0.8,3.2,6.6V184c0,1.1,0,2-0.2,3c-0.7,0.1-1.2,0.2-1.7,0.2c-1.1,0-1.9-0.2-2.4-0.7c-0.7-0.7-0.7-2-0.7-3.5L234.8,165
		L234.8,165z M249.3,187.5v-25.6c0-8.4-5.3-8.4-11.5-8.4c-2.4,0-4.4,0.1-6,0.6c-4.5,1.1-6.7,4.1-6.7,9.2v24.5
		c0,6.3,4.5,7.6,11.3,7.6C244.6,195.5,249.3,192.6,249.3,187.5L249.3,187.5z M143.8,245.8h9.4v-42.3h-9.4V245.8 M179.8,203.5h-0.3
		c-2.6,0-12.3-0.1-14.1,0h-0.5c-2.8,0-4.6,1.4-5.1,3.8c-0.1,0.4-0.1,0.7-0.1,0.7c0,0.1-0.7,8,0.1,10.3c1.3,3.6,4.2,5,6.9,5.8
		c0.1,0,0.2,0.1,0.3,0.1c0.2,0,0.3,0.1,0.5,0.2c0.3,0.1,0.5,0.3,0.6,0.5v15.2h-7.8v5.6h10.2l0,0c3.5-0.2,6-1.7,6.9-4.4
		c0.1-0.3,0.1-0.5,0.2-0.7v-0.3c0-0.3,0.1-0.7,0-1.1c0-1.4,0.1-14.2-0.1-17.1c-0.1-1.1-0.6-2-1.6-2.8c-0.4-0.3-0.9-0.6-1.5-1
		c-0.6-0.3-1.2-0.6-1.7-0.9c-2.2-1.1-4.7-2.3-4.7-5.1v-2.4h7.4c1.5,0,2.7-0.7,3.5-2.1c0.6-1.1,0.8-2.1,0.8-2.2c0.1-0.7,0-1.3,0-1.8
		L179.8,203.5 M219.8,215c0-0.6,0-1.3,0-2c0.1-1.1,0.1-2,0.3-2.6l0.2-0.2c0.4-0.1,0.8-0.1,1.3-0.1h0.2c3.2,0,3.3,1,3.3,6.8v17.7
		c0,0.5,0,1,0,1.6c0,0.5-0.1,1-0.2,1.4l-0.2,0.2c-0.6,0.1-1.1,0.1-1.7,0.1c-1.2,0-2-0.3-2.5-0.8c-0.7-0.8-0.8-2.1-0.7-3.5v-17.9
		L219.8,215L219.8,215z M222.9,203.5c-2.1,0-4.3,0.1-6.1,0.6c-4.6,1.1-6.9,4.2-6.9,9.4v25.2c0,6.5,4.6,7.8,11.5,7.8
		c8.4,0,13.2-3,13.2-8.1v-26.2C234.7,203.5,229.2,203.5,222.9,203.5L222.9,203.5z M256.5,221.5c-4.5-16.3-11.7-18.1-14.7-18.1
		c-0.8,0-1.2,0.1-1.3,0.1l-0.2,0.1v42.3h9.6v-17l6.6,16.8l0.1,0.2h9.7v-42.3h-9.7L256.5,221.5 M128.5,221.9v0.4l-0.8,0.1h-4.5V210
		h1.7c0.6,0,1.2,0,1.6,0.1c1.1,0.1,1.7,0.7,2,1.8c0.1,0.4,0.2,0.9,0.2,1.4s0,1,0,1.4C128.5,214.7,128.6,219.9,128.5,221.9
		 M132.3,203.5h-24.1v0.3c0,0-0.2,5,5.4,6.2v35.8h9.7v-18h8.2c4.3,0,6.8-2.8,6.8-7.8v-1.5C138.3,206.5,137.8,204.1,132.3,203.5
		 M280.2,203.5c-3.1,0-3.1,0-3.1,0H277c-2.8,0-4.6,1.3-5.1,3.8c-0.1,0.4-0.1,0.7-0.1,0.8c-0.1,1.9-0.6,8.2,0.1,10.2
		c1.3,3.6,4.2,5,6.9,5.8c0.1,0,0.2,0.1,0.3,0.1c0.2,0,0.3,0.1,0.5,0.2c0.3,0.1,0.5,0.3,0.6,0.5l0.1,15.2h-7.5h-0.3v5.6h10.3l0,0
		c3.5-0.2,6-1.7,6.9-4.4c0.1-0.4,0.2-0.7,0.2-0.8v-1.2c0-4,0.1-14.7-0.1-17.2c-0.1-1.1-0.6-2-1.6-2.8c-0.5-0.4-1-0.7-1.5-1
		c-0.6-0.3-1.2-0.6-1.7-0.9c-2.2-1.1-4.7-2.3-4.7-5.1v-2.4h7.4c1.5,0,2.6-0.7,3.5-2c0.4-0.6,0.7-1.4,0.8-2.3l0,0l-0.1-2.1
		L280.2,203.5 M184.9,203.5v6.7h6.3v35.7h9.7v-35.7c0.1,0,0.2,0,0.4,0c1.7,0,3.1-0.5,4.1-1.6c1.8-1.8,1.6-4.6,1.6-4.8v-0.3
		L184.9,203.5"/>
</g>
</svg>
