<?xml version="1.0" encoding="utf-8"?>
<!-- Generator: Adobe Illustrator 24.0.1, SVG Export Plug-In . SVG Version: 6.00 Build 0)  -->
<svg version="1.1" id="Layer_1" xmlns="http://www.w3.org/2000/svg" xmlns:xlink="http://www.w3.org/1999/xlink" x="0px" y="0px"
	 viewBox="0 0 400 400" style="enable-background:new 0 0 400 400;" xml:space="preserve">
<style type="text/css">
	.st0{fill-rule:evenodd;clip-rule:evenodd;}
	.st1{fill-rule:evenodd;clip-rule:evenodd;fill:#FFFFFE;}
</style>
<g>
	<path class="st0" d="M350,200c0,82.8-67.2,150-150,150S50,282.8,50,200S117.2,50,200,50S350,117.2,350,200"/>
	<path class="st1" d="M200,331.3c-16.4,0-32.3-3-47.1-8.7c-0.6-9-1.2-19.7-1.8-31.4l-12-4.1v29.3c-1.9-1-3.8-2.1-5.7-3.1v-27.8
		l5.6,0.2v0.2h6.1l11.1,0.4l138.1,4.9c-0.6,0.6-1.1,1.1-1.7,1.7C268,317.6,235.1,331.3,200,331.3L200,331.3z M99.3,284.2l20.6,0.7
		c-0.4,6.4-0.9,12.4-1.4,18c-4-3.1-7.8-6.5-11.4-10.1C104.4,290,101.8,287.2,99.3,284.2L99.3,284.2z M122.7,219.8
		c-0.4,16.7-1,33.8-1.9,49.9l-11.3,0.4L122.7,219.8z M123.5,162.5c0,11.6-0.2,25.5-0.5,40.5l-17.6,67.2l-12.2,0.4L123.5,162.5
		L123.5,162.5z M77.9,248.2c-3-7.7-5.3-15.6-6.8-23.8c4.9-3.9,11.7-10.1,19.8-19.9L77.9,248.2L77.9,248.2z M80.2,253.9l17.1-57.6
		c6.9-9.2,14.5-20.8,22.6-35.2L89.2,270.5C85.8,265.2,82.8,259.6,80.2,253.9L80.2,253.9z M139.1,167.7v8.1H133v7.5h6.1v8.1H133v7.5
		h6.1V214H133v7.5h6.1v15.6H133v7.5h6.1v24.5l-5.6,0.2V155.1h5.6v5.1H133v7.5L139.1,167.7L139.1,167.7z M301.5,263.6l-3.5-7.8
		c5.8,2.3,11.6,4.6,17.5,6.7l-0.4,0.7L301.5,263.6L301.5,263.6z M306,277.4c-0.9,1.2-1.8,2.4-2.7,3.6l-152.6-3l-0.1-1.5L306,277.4
		L306,277.4z M160.5,268.4l-10.3,0.3c-0.6-15.1-1.2-31-1.7-46.3L160.5,268.4L160.5,268.4z M176.4,267.8l-11.9,0.4l-16.6-63.5
		c-0.5-16.4-1-31.5-1.3-43.7L176.4,267.8L176.4,267.8z M194.1,267.2l-13.7,0.5l-30.3-108.1c2.7,2.9,5.4,5.8,8.2,8.6
		c2.9,2.9,5.9,5.8,9,8.6L194.1,267.2L194.1,267.2z M210.6,266.7l-12.5,0.4l-25.4-85.5c1.8,1.6,3.6,3.1,5.4,4.6
		c3.2,2.7,6.5,5.3,9.8,7.8L210.6,266.7L210.6,266.7z M227.6,266.1l-12.9,0.4l-21.3-68.4c4.9,3.7,9.9,7.2,15,10.7L227.6,266.1
		L227.6,266.1z M244,265.6l-12.4,0.4l-18-53.6c2.7,1.8,5.5,3.6,8.3,5.3l5.7,3.5l0.8,0.5L244,265.6L244,265.6z M261.9,265l-13.8,0.5
		l-14.4-40.8c0.9,0.5,1.8,1.1,2.7,1.6l2.9,1.6c2,1.1,3.9,2.2,5.9,3.3l4.6,2.4L261.9,265L261.9,265z M276.3,246.5
		c5.4,2.5,10.9,4.9,16.5,7.2l4.5,10.1l-13.6,0.5L276.3,246.5L276.3,246.5z M279.6,264.4l-13.5,0.5l-11-28.6l2.1,1.1l6,3
		c2,1,4.1,1.9,6.1,2.9c0.6,0.3,1.2,0.5,1.7,0.8L279.6,264.4L279.6,264.4z M107.2,107.2C132,82.4,164.9,68.8,200,68.8
		s68,13.7,92.8,38.4c24.8,24.8,38.4,57.8,38.4,92.8c0,18.9-4,37.1-11.5,53.8c-15.9-5.4-31.6-11.4-46.9-18.2c-2-0.9-4-1.8-6-2.7
		l-6-2.8l-3-1.4l-3-1.5l-5.9-3c-2-1-3.9-2-5.9-3.1l-2.9-1.5c-1-0.5-1.9-1.1-2.9-1.6l-5.8-3.2l-5.7-3.3
		c-15.2-8.9-29.9-18.8-43.7-29.8c-6.9-5.5-13.6-11.2-20-17.3c-3.2-3-6.3-6.2-9.3-9.4c-0.7-0.8-1.5-1.6-2.2-2.4
		c-0.7-0.8-1.5-1.6-2.2-2.5c-0.7-0.8-1.4-1.7-2.1-2.5l-0.1-0.1c-0.3-9.6-0.4-15.4-0.4-15.4l-6.6-1.5v8.8h-5.6v-9.2l-7,1.7l0.1,3.4
		l-3.3,1.8c0.1,2.8,0.2,6.4,0.2,10.6c-2.7,4.7-31.8,54.9-53.5,70.4c-0.8-5.9-1.2-11.9-1.2-17.9C68.7,164.9,82.4,132,107.2,107.2
		L107.2,107.2z M298.1,101.9C271.9,75.7,237,61.3,200,61.3c-37.1,0-71.9,14.4-98.1,40.6s-40.6,61-40.6,98.1s14.4,71.9,40.6,98.1
		s61,40.6,98.1,40.6s71.9-14.4,98.1-40.6s40.6-61.1,40.6-98.1S324.3,128.1,298.1,101.9L298.1,101.9z"/>
</g>
</svg>
