<?xml version="1.0" encoding="utf-8"?>
<!-- Generator: Adobe Illustrator 24.0.1, SVG Export Plug-In . SVG Version: 6.00 Build 0)  -->
<svg version="1.1" id="Layer_1" xmlns="http://www.w3.org/2000/svg" xmlns:xlink="http://www.w3.org/1999/xlink" x="0px" y="0px"
	 viewBox="0 0 400 400" style="enable-background:new 0 0 400 400;" xml:space="preserve">
<style type="text/css">
	.st0{filter:url(#Adobe_OpacityMaskFilter);}
	.st1{fill-rule:evenodd;clip-rule:evenodd;fill:#FFFFFF;}
	.st2{mask:url(#prefix__b_2_);fill-rule:evenodd;clip-rule:evenodd;}
</style>
<g>
	<defs>
		<filter id="Adobe_OpacityMaskFilter" filterUnits="userSpaceOnUse" x="61" y="16" width="280" height="370.4">
			<feColorMatrix  type="matrix" values="1 0 0 0 0  0 1 0 0 0  0 0 1 0 0  0 0 0 1 0"/>
		</filter>
	</defs>
	<mask maskUnits="userSpaceOnUse" x="61" y="16" width="280" height="370.4" id="prefix__b_2_">
		<g class="st0">
			<path id="prefix__a_2_" class="st1" d="M61,16h280v370.3H61V16z"/>
		</g>
	</mask>
	<path class="st2" d="M247.8,228.7L247.8,228.7l0.4-38.7l0,0c35.4,4.6,64.4,9.6,64.5,18.1C312.8,217.7,286.3,225.3,247.8,228.7z
		 M220.9,162.5l-0.6,67.8v0h0c-6.5,0.2-13.1,0.3-19.9,0.3c-7.1,0-13.9-0.1-20.6-0.4l0,0l0.3-8.4c-0.1-4-0.2-8.2-0.2-12.5
		c0-19.4,1-42.1,1.3-66.1v0h0c17.4,1.8,39.8,6.5,39.8,18.9V162.5L220.9,162.5z M179.1,78.4L179.1,78.4L179.1,78.4
		c24.6,2.3,46.3,8.2,48.1,21.5c0.2,1.7,0.3,3.4,0.3,5c0,24.6-26.8,33-46.4,35.9l0,0v0c0-3.6,0.1-7.2,0.1-10.8
		C181.1,112.9,180.7,95.5,179.1,78.4L179.1,78.4z M153,189.9c0,10.3-0.2,21.6-0.5,34l0.1,4.7v0h0c-38-3.4-63.8-11-63.8-20.6
		C88.8,199.3,120.8,194.7,153,189.9L153,189.9L153,189.9L153,189.9z M261.8,189.4c-4.4,0-9,0.1-13.5,0.3h0l0.4-33.5
		c0-15.2-15.3-18.1-27.2-18.1c-4.4,0-8.3,0.4-10.8,0.7h0l0-0.1h0v0h0c10.8-1.9,46.3-10.7,46.3-42.5c0-1,0-2-0.1-3
		c-1.3-19.3-22.1-30.4-57.5-30.4c-6.1,0-12.6,0.3-19.5,1c-0.8,0.1-1.5,0.2-2.3,0.2l0,0l0,0c-2.2-16.8-5.6-33-10.8-48
		c-6.5,20.3-10.3,36.2-12.5,51.2c-14.6,2.4-27.1,5.3-35.9,7.6c-7.5,2-12.4,3.5-13.6,3.9c2.7-0.2,20.7-1.7,42.1-1.7c2,0,4.1,0,6.2,0
		h0l0,0c-0.9,9.7-1.3,19.3-1.3,29.7c0,20.5,1.2,44.2,1.2,78.3c0,1.5,0,3.1,0,4.6v0h0c-3.9-0.1-7.7-0.2-11.5-0.2
		c-22.1,0-42.2,2.3-56.8,6.2c-14.6,4-23.7,9.6-23.7,16.2v0.3c0.4,12.8,38.5,24.6,92,29.1l2.2,71.9l3.7-48.5c0.1-3,1.2-4.5,2.4-4.5
		c1.2,0,2.4,1.5,2.4,4.2l1.6,64.1l3.9-52c0,0,0-0.1,0-0.1c0-3.5,1.2-5.2,2.5-5.2c1.2,0,2.4,1.6,2.4,4.6v0.3l1.8,66.3l3.2-99.5h0
		c6.9,0.3,13.9,0.4,21,0.4c6.8,0,13.4-0.1,20-0.3h0l3.2,101.7l2.7-52.8c0-3.4,1.2-5.1,2.4-5.1c1.2,0,2.3,1.6,2.3,4.6v0l2.7,74.4
		l2.8-64.1c0.1-3.2,1.4-4.7,2.7-4.7c1.4,0,2.7,1.6,2.8,4.7l2.3,84.7l3.4-144.9l0-0.1c54.1-4.5,93.3-16.3,93.3-29
		C340.4,199.6,305.5,189.4,261.8,189.4L261.8,189.4z"/>
</g>
</svg>
