<?xml version="1.0" encoding="utf-8"?>
<!-- Generator: Adobe Illustrator 24.0.1, SVG Export Plug-In . SVG Version: 6.00 Build 0)  -->
<svg version="1.1" id="Layer_1" xmlns="http://www.w3.org/2000/svg" xmlns:xlink="http://www.w3.org/1999/xlink" x="0px" y="0px"
	 viewBox="0 0 400 400" style="enable-background:new 0 0 400 400;" xml:space="preserve">
<style type="text/css">
	.st0{fill-rule:evenodd;clip-rule:evenodd;fill:#FFFFFE;}
	.st1{fill-rule:evenodd;clip-rule:evenodd;}
</style>
<g>
	<path class="st0" d="M319,100.7c-20.1-24.2-49-37.6-81.4-37.7H108.1L48,336.2l110.6,0.1l15.9-66.1c14.9,0,53.9,0,53.9,0
		c37,0.3,67.4-12.3,87.9-36.3C353.4,193.4,346.8,134.4,319,100.7"/>
	<path class="st1" d="M168.8,263l-15.9,66.1h-96l57-258.9l123.7,0.1c30.8,0.1,57.2,12.5,75.8,35c27.4,33.1,30.1,88.1-2.7,123.9
		c-20.1,23.6-49.7,34-82.4,33.7L168.8,263"/>
	<path class="st0" d="M101.1,127.7h54.2c6.2,0,12.9,5.2,10,13.2c-1.8,4.9-3.1,10.6-3.8,15.9c-0.5,4.2,4.2,6.8,6.8,6.8l110.5,0.1
		c2.1,0,3.2-0.6,3.2-1.6s-0.1-4.7-0.5-7.2s-0.8-2.9-2.8-2.9c-13.8,0-19.4-6.2-33.8-15.5c-14.4-9.3-35.6-14.7-53.8-14.7l-88.7-0.1
		L101.1,127.7 M168.1,199.3c-1.9-4.1-3.7-9-4.8-13.4c-1.4-5.7-6.2-10.4-14.5-10.4H90.6L92,169l188.5,0.1c1.9,0,1.5,0.8,1.4,2.9
		c-0.1,2.1-0.6,5.9-0.9,8.2s-2.2,1.7-4,1.8c-4.2,0.1-12.1,1.1-16.7,4.5c-7.8,5.9-24.5,16.2-33.8,19.2c-10,3.2-47.6,14.7-58.6-6.5"/>
	<path class="st0" d="M80.2,222.9l98.4,0.1c4.3,0,8.1,1,11,3.4c8.3,6.9,19.1,11.8,30.6,15.2c5.1,1.5,14-0.4,21.9-4.9
		c19.7-11.1,32.4-32.3,36.5-46c1.1-3.6-1-3.3-3.7-3.1c-8.3,0.6-17,8.1-28.5,15.4c-11.5,7.3-34.8,14.2-57,14.2l-107.9-0.1L80.2,222.9
		 M224.6,91.1c1.4-0.2,6.4-0.5,9.1,0.5c18.7,7.4,36.4,26.8,43.8,47.5c1.4,4,1.8,6.5,0,6.7c-8.6,0.9-12.6-3.3-22.6-10.1
		c-10.1-6.8-19.4-11.5-32.2-15.6c-12.6-4-35.5-4.6-38.5-4.7s-2.6-1.3-1.3-2.6C194,101.9,208.7,94,224.6,91.1 M314.3,162
		c0.1,0.8-0.8,1.7-1.8,1.7h-21.6c-2.8,0-2.8-1.3-2.9-2.9c-0.1-1.6-0.5-4.7-0.6-6.6c-0.1-1.8-0.8-3.9,1.7-4.9
		c6-2.5,11.7-8.4,14.3-13.4c0.9-1.7,2.2-4.5,3.6-2.1C312.1,141.8,313.7,151.9,314.3,162 M306.6,200.7c-0.4,0.7-1.8,1.3-2.2,0.1
		c-3.1-8.4-10.6-14.2-15.8-17.1c-1.6-0.9-1.7-1.9-1.5-3.4s0.9-6.4,1-8.5c0.1-1.6,0.7-2.8,2-2.8h22.5c0.8,0,1.8,0.7,1.8,1.3
		C314.4,181.1,311.1,191.6,306.6,200.7"/>
	<path class="st0" d="M248.2,242.9c-1.6,0.2-5-0.3,0.4-3.5c16.3-9.5,30.9-31.8,34.7-44.6c1.5-4.9,1.6-5.1,3.5-4.6
		c2.5,0.7,6.4,4.1,9.4,8.3s4.3,12.2,2.6,14.6C287.2,228.9,268.5,239.9,248.2,242.9 M289.7,142.1c-3.8,2-4.5,1.7-5.3-1.2
		c-7.1-24.9-28-43.3-36.6-48.8c-1.6-1-1.2-1.7,0-1.6c20.5,2.7,40.5,13.9,50.6,29.2C304.2,128.5,293.4,140.1,289.7,142.1"/>
</g>
</svg>
