<?xml version="1.0" encoding="utf-8"?>
<!-- Generator: Adobe Illustrator 24.0.1, SVG Export Plug-In . SVG Version: 6.00 Build 0)  -->
<svg version="1.1" id="Layer_1" xmlns="http://www.w3.org/2000/svg" xmlns:xlink="http://www.w3.org/1999/xlink" x="0px" y="0px"
	 viewBox="0 0 400 400" style="enable-background:new 0 0 400 400;" xml:space="preserve">
<style type="text/css">
	.st0{fill-rule:evenodd;clip-rule:evenodd;fill:#FFFFFE;}
	.st1{fill-rule:evenodd;clip-rule:evenodd;}
</style>
<g>
	<path class="st0" d="M42,199.5C42,112.5,112.5,42,199.5,42S357,112.5,357,199.5S286.5,357,199.5,357S42,286.5,42,199.5"/>
	<path class="st1" d="M303.9,279.8c-16.6-21.5-26-47-27.2-73.9h54.4C329.9,232.8,320.5,258.3,303.9,279.8L303.9,279.8z M205.8,331.2
		v-37.8h-12.7v37.8c-34.3-1.6-66.1-16.3-89.7-41.5c19.3-24.1,30.2-53.1,31.5-83.8v-12.7c-1.3-30.8-12.2-59.7-31.5-83.8
		c23.6-25.2,55.4-39.9,89.7-41.5v37.4h12.7V67.8c34.3,1.6,66.1,16.3,89.7,41.5c-19.3,24.1-30.2,53.1-31.5,83.8v12.7
		c1.3,30.8,12.2,59.7,31.5,83.8C271.9,314.8,240.1,329.5,205.8,331.2L205.8,331.2z M95.1,279.8c-16.5-21.4-25.9-47-27.2-73.9h54.4
		C121,232.8,111.6,258.3,95.1,279.8z M95.1,119.2c16.6,21.5,26,47,27.2,73.9H67.8C69.1,166.2,78.5,140.7,95.1,119.2L95.1,119.2z
		 M303.9,119.2c16.5,21.4,25.9,47,27.2,73.9h-54.4C278,166.2,287.4,140.7,303.9,119.2L303.9,119.2z M199.5,55
		C119.8,55,55,119.8,55,199.5S119.8,344,199.5,344S344,279.2,344,199.5S279.2,55,199.5,55L199.5,55z"/>
	<path class="st1" d="M167.3,139v120.6h64.4V243h-47.2V139H167.3"/>
	<path class="st1" d="M253.6,179.4v-49.7c0-7.4-3-10.5-10.3-10.5h-87.7c-7.3,0-10.2,3-10.2,10.5v139.6c0,7.4,3,10.5,10.2,10.5h87.7
		c7.3,0,10.3-3,10.3-10.5v-49.7h-17.4v45h-73.6V134.5h73.6v44.9H253.6"/>
	<path class="st1" d="M206.5,190.8h8.4v-35.3h-8.4V190.8z M231.7,238.3V139h-41.8l-0.4,99.3h16.8l0.3-31h8.5l-0.1,31H231.7
		L231.7,238.3z"/>
</g>
</svg>
