<?xml version="1.0" encoding="utf-8"?>
<!-- Generator: Adobe Illustrator 24.0.1, SVG Export Plug-In . SVG Version: 6.00 Build 0)  -->
<svg version="1.1" id="Layer_3" xmlns="http://www.w3.org/2000/svg" xmlns:xlink="http://www.w3.org/1999/xlink" x="0px" y="0px"
	 viewBox="0 0 400 400" style="enable-background:new 0 0 400 400;" xml:space="preserve">
<style type="text/css">
	.st0{fill-rule:evenodd;clip-rule:evenodd;fill:#FFFFFE;}
	.st1{fill-rule:evenodd;clip-rule:evenodd;}
</style>
<g>
	<path class="st0" d="M92.8,135c0,0,33-54,100.7-54c67.6,0,99.1,52.4,99.1,52.4h91.8l-3.7,22.5c0,0-2.6,8.9-6.8,10h6.3
		c0,0,2.1,7.9-10.5,35.1h26.7c0,0,1,47.7-56.6,70.3c0,0-29.9,9.4-45.1-6.8c0,0-30.4,56.6-101.2,56.6S90.7,262.9,90.7,262.9H8.4
		l13.1-23.6h-8.9l10.5-19.4h17.8l3.1-7.3h-8.4L56,174.8h11.5l4.7-11.5h-10L77.6,135H92.8"/>
	<path class="st1" d="M206,201.6h-4.6c-0.3,0-0.6,0.3-0.6,0.6s0.3,0.6,0.6,0.6h4.6c1.6,0,3,0.2,2.6,0.9l-12,22.9
		c-1.5,2.7-4.7,2-5.1-0.2l-6-30.7l20.9-16.2c2.1-1.8,6.1-4.7,8.1-4.7h4.6c2.8,0,3.8,1.3,3.1,2.9l-0.8,1.6c-0.5,0.9-2.2,1-3.6,1h-2.6
		c-0.3,0-0.6,0.3-0.6,0.6s0.3,0.6,0.6,0.6h2.6c1.1,0,2.5,0,2,0.9l-9.7,18.5C209.8,201.5,207.7,201.6,206,201.6L206,201.6z
		 M242.2,213c-9.8,11.9-15.3,15.9-25.3,15.9c-3.4,0-5.1-0.8-4.2-2.4l11.8-23.7h4.5c5,0,4.3,4.2,3,10c-0.3,0.8,0.4,0.9,1,0.2
		l11.2-19.7c0.6-1.2-0.9-1.5-1.6-0.5c-5.6,7.6-11.5,7.1-14,7.1h-2l12.6-24h5.1c6.4,0.4,9.4,5.8,7.5,18.9h2.7l9.3-18.3
		c0.8-1.5-0.8-2.9-2.6-2.9h-62.8c-3.6,0-3.8,2.8-0.3,2.8c2.8,0,2.7,4.1,0.1,6l-26.7,21.2l5.4,25c0.4,1.9,1.6,2.8,3.7,2.8h52
		c2.1,0,3-0.9,3.7-1.8l9.4-16.2C246.9,210.9,243.9,211.1,242.2,213L242.2,213z"/>
	<path class="st1" d="M127.3,206.2h-16.5l20.9-27.6L127.3,206.2L127.3,206.2z M123.4,223.3c-0.5,2.8-3.3,4.7-6.9,5.7l-3.7,0.9l3-5.5
		c0.8-1.5-1-2.4-2.9-0.1c-12.9,15-16.9,22.1-36.8,22.2h-5.3c-1.6,0-3.4-0.6-2.3-2.2l7-13.1h26.6c3.6,0,2.7-2.7,0.6-2.8
		c-1.4,0-2.9-0.9-4-2.6c-0.3-0.5-1-2.4,0.1-3.8l10.2-13.5h17L123.4,223.3L123.4,223.3z M162.9,228.5c-1.4,0-2.3-1-2.6-1.9
		c-0.4-1.3-0.4-3.7,0.1-4.8l24.2-43c0.4-0.8,1.4-2.5,2.6-2.4c2.1,0,3.1-2.8-0.6-2.8h-19.4c-3.6,0-3.7,2.8-0.2,2.8
		c1.4,0,2,1.4,1.6,2.2l-5.4,9.7c-0.7,1.1-2.2,1.1-3.7,1.1h-4.6c-0.3,0-0.6,0.3-0.6,0.6s0.3,0.6,0.6,0.6h4.6c1.2,0,2.2,0.4,1.5,1.8
		L143.1,225c-1.3,1.8-3.9,2.2-3.7-1.2l6.4-47.7c0.2-1.5-0.1-2.5-1.7-2.5h-9.6c-1.1,0-1.9,0.6-2.4,1.3l-3.4,4.3
		c-0.4,0.4-1.4,0.4-2.5,0.4h-8c-0.3,0-0.6,0.3-0.6,0.6s0.3,0.6,0.6,0.6h6.6c1.2,0,2.5,0.3,2,0.8l-9.2,11.6c-0.3,0.3-1.2,0.4-1.7,0.4
		h-2.6c-0.3,0-0.6,0.3-0.6,0.6s0.3,0.6,0.6,0.6h2.2c0.7,0,0.7,0.3,0.4,0.6l-8.7,10.9c-0.4,0.4-1.3,0.5-2.2,0.5h-7.7
		c-0.3,0-0.6,0.3-0.6,0.6s0.3,0.6,0.6,0.6h6.6c1,0,1.8,0.2,1.2,0.9l-12.3,15.5c-2.3,3-13.5,4.5-15.7,4.5l41.7-78
		c0.4-0.9,1.9-2.3,3.6-2.3h8.9c4.2,0,4.1-2.8,0.4-2.8H87.1c-3.6,0-3.8,2.8,0.4,2.8h8.2c2.3,0,3.1,1.4,2.5,2.6l-1.2,2.1
		c-0.4,0.7-1,1-3.2,1H79.2c-0.3,0-0.6,0.3-0.6,0.6s0.3,0.6,0.6,0.6h14.5c0.8,0,2,0.2,1.2,1.6l-2,3.8c-0.4,0.6-1.2,0.8-2.3,0.8H84
		c-0.3,0-0.6,0.3-0.6,0.6s0.3,0.6,0.6,0.6h6.6c1,0,1,0.6,0.4,1.5l-4.7,8.7c-0.4,0.7-1.2,0.8-2.7,0.8H81c-0.3,0-0.6,0.3-0.6,0.6
		s0.3,0.6,0.6,0.6h2.6c1,0,1.3,0.6,0.8,1.5l-3.9,7.2c-0.6,1-1.4,1.4-4,1.4H61.9c-0.3,0-0.6,0.3-0.6,0.6s0.3,0.6,0.6,0.6h14.5
		c1.6,0,2.2,0.8,1.6,1.9l-7.5,14.1c-0.4,0.6-1.7,0.7-3.8,0.7H52.1c-0.3,0-0.6,0.3-0.6,0.6s0.3,0.6,0.6,0.6H67c1.7,0,2.8,0.1,2.3,1
		l-4.3,8.2c-0.8,1.2-3,1.2-3.9,1.2h-4.6c-0.3,0-0.6,0.3-0.6,0.6s0.3,0.6,0.6,0.6H61c1.6,0,2.5,0.3,2,1.1l-5.8,10.9
		c-0.5,1-2.8,1-4.5,1H30.2c-0.3,0-0.6,0.3-0.6,0.6s0.3,0.6,0.6,0.6h22.5c1.5,0,3.4,0.2,2.7,1.4l-3.7,6.9c-0.3,0.6-1.6,0.6-3.4,0.6
		h-4.6c-0.3,0-0.6,0.3-0.6,0.6s0.3,0.6,0.6,0.6h4.6c1.1,0,2.5,0.1,2,1l-2.3,4.4c-0.8,1.1-1.5,2.1-3.3,2.1H33.3c-4.2,0-4,2.8-0.4,2.8
		h66.4c1.9,0,2-0.3,2.9-1.7l9.8-17.2h50.3C166,231.3,165,228.5,162.9,228.5L162.9,228.5z M291.4,197c-1.8,1.5-4.7,3.2-5.3,2.7
		c-0.8-0.8-3.2-2.4-4.5-3l10.8-19.8c0.4-0.7,1-1.1,2.2-1.1c4.2,0,5.6,4.6,3.6,10.3C296.8,190,294.6,194.3,291.4,197L291.4,197z
		 M378.9,214.7c-0.3-1.4-0.8-0.5-1.7,1.2c-0.3,0.5-1.1,0.5-2,0.5h-2.7c-0.3,0-0.6,0.3-0.6,0.6s0.3,0.6,0.6,0.6h2.6
		c1,0,1,0.7,0.5,1.7c-1.8,3.9-3.7,6.5-6.2,9.6c-0.4,0.5-1.4,0.9-2.2,0.9h-2.7c-0.3,0-0.6,0.3-0.6,0.6s0.3,0.6,0.6,0.6h2.6
		c1.3,0,0,0.8-0.2,1.1c-4.6,6.2-7.8,9-11.3,11.7c-0.4,0.3-2.3,0.2-3.7,0.2h-2.6c-0.3,0-0.6,0.3-0.6,0.6s0.3,0.6,0.6,0.6h2.6
		c2,0,0.5,1.1,0.2,1.4c-7.2,6-18,8-22.9,7.3c-16-2-19.3-14.1-20.5-19c-0.2-1-1-3.1-1.3-4.4c-0.5-2.5,6.7-3.3,8.7-1.9
		c3,2,10.1,4.1,15.6,4.1c5.1,0,15.6-3.7,18.7-12.5c3.1-9-4.7-19-8.2-22.5c-4.4-4.4-8.6-11.4-6.8-16.6c1.3-3.9,3.5-5.6,8.3-5.6
		c6.1,0,10.6,3.9,10.6,9.5c0,0.5-0.3,1.1-0.7,1.1h-2.2c-0.3,0-0.6,0.3-0.6,0.6s0.3,0.6,0.6,0.6h2c0.6,0,0.9,0.4,0.8,1.1
		c-0.4,1.9-0.5,3.2-0.9,5.1c-0.2,1.1,1.4,1.8,1.9,1l9.6-17.2c0.7-1.3-0.8-1.6-2-1.2c-2.6,0.9-6.9,1.5-8.4,0.5
		c-3.6-2.6-6.9-4.2-11.9-4.2c-8.5,0-14.5,2.1-18.4,9.1c-0.3,0.5-1.1,0.5-1.9,0.5h-1.6c-0.3,0-0.6,0.3-0.6,0.6s0.3,0.6,0.6,0.6h1.4
		c0.6,0,1,0.2,0.7,0.9c-0.3,0.6-0.5,1.3-0.7,2c-1,3-0.7,7.3,0.9,11.1c0.1,0.3-0.2,0.4-0.8,0.4h-2.6c-0.3,0-0.6,0.3-0.6,0.6
		s0.3,0.6,0.6,0.6h2.6c1.2,0,1.5,0.1,2,0.8c1.3,1.9,2.7,3.3,4.5,5.5c0.5,0.7-1.8,0.9-3,0.9h-10.4c-0.3,0-0.6,0.3-0.6,0.6
		s0.3,0.6,0.6,0.6h10.5c1.7,0,4.6,0,4.9,0.4c2.5,2.9,5.6,7.4,6.1,11.2c0.1,1.1-0.3,1.5-1.6,1.5h-1.4c-0.3,0-0.6,0.3-0.6,0.6
		s0.3,0.6,0.6,0.6h1.2c1.1,0,1.6,0.2,1.4,1c-1.4,4.4-3.4,7.5-11.7,7.5c-8.7-0.1-10.5-8.6-7.9-17.5c0.5-1.8,0-2.5-0.8-1.1l-6.1,9.5
		c-0.2,0.2-0.7,0.8-1.7,0.8h-0.9c-0.3,0-0.6,0.3-0.6,0.6s0.3,0.6,0.6,0.6c0.8,0,1.1,0.4,0.8,0.8l-2.2,3.5
		c-3.7-8.4-9.8-18.7-13.1-22.5l0.1-0.2c8.1-0.5,20-8.1,21.9-14.8c3.4-11.7-8-16.1-14.2-16.1h-27.3c-3.6,0-3.9,2.7-0.4,2.7
		c1.9,0,3.5,1.6,2.7,3.3l-6.1,10.9c-0.5,0.9-2.4,0.8-4.8,0.8H262c-0.3,0-0.6,0.3-0.6,0.6s0.3,0.6,0.6,0.6h2.6c1.7,0,3.7,0.1,3,1.4
		l-7.2,12.9c-0.3,0.6-1.3,0.7-3.7,0.7h-2.6c-0.3,0-0.6,0.3-0.6,0.6s0.3,0.6,0.6,0.6h2.6c1.9,0,2.6,0.3,2.1,1.2l-9.5,17.3
		c-1.1,1.2-2.5,1.5-4.8,1.5c-3.5,0-3.4,2.8,0.2,2.8H268c3.6,0,2.7-2.8,0.6-2.8c-1.3,0-2.6-2.3-1.8-3.7l11.9-22.6h1.2
		c5.3,0,6.6,8.7,7.6,18.2c0.1,0.7-1.2,0.7-3.9,0.7H277c-0.3,0-0.6,0.3-0.6,0.6s0.3,0.6,0.6,0.6h6.6c1.7,0,4.2,0,4.2,0.6
		c0.5,4.2,0.8,7.8,1.6,11.2c0.3,1-1.6,0.9-3.6,0.9h-8.4c-0.3,0-0.6,0.3-0.6,0.6s0.3,0.6,0.6,0.6h8.4c2.7,0,4,0,4.2,0.5
		c3.6,13.3,19.2,23.8,34.4,23.3c13-0.5,24-7.6,29.6-12.1c7.5-6,18.5-18.6,23-27.7C377.8,218.4,379.2,216.2,378.9,214.7L378.9,214.7z
		"/>
	<path class="st1" d="M159.7,155.9c-2.2,2.8-5.1,3.6-8.4,3.6h-0.9l5.8-11.4c0.3-0.5,0.9-0.9,1.6-0.9c0.7,0,0.6-1.4-0.3-1.4h-9.1
		c-0.8,0-1,1.4-0.3,1.4c0.8,0,0.9,0.9,0.5,1.6l-5.1,10.2c-0.3,0.5-0.9,0.7-1.6,0.9c-0.8,0.2-1.3,1.6-0.4,1.6H156
		c1.1,0,1.4-0.4,1.7-0.8l2.9-4.5C161,155.4,160.1,155.3,159.7,155.9 M203.3,146.1c-0.4,0.2-1.5,0.4-1.9,0c-1.2-1-3.4-1.7-4.6-1.7
		c-3.4,0-5.9,0.7-7.4,3.9c-1.3,2.7,0,5,3,6.4c1.3,0.6,3,1.4,2.4,3c-0.5,1.1-1.8,1.3-3,1.2c-1.6,0-4-1.2-4.4-3.5
		c-0.1-0.7-1-0.6-1.2-0.2l-2.1,4.1c-0.3,0.5,0.5,1.2,0.9,0.8c0.7-0.7,2.2-0.9,3-0.4c1,0.7,3.7,1.9,5.2,1.9c3.5,0,5.7-0.9,7.6-3.9
		c1.7-2.7,0.7-5.4-2.5-6.9c-1.7-0.8-3.1-2.2-2.3-3.7c0.5-1,2-0.8,2.7-0.7c1.4,0.2,3.2,1.6,3.4,2.7c0.1,0.5,0.7,0.6,1,0.2l1.1-2.5
		C204.3,146.3,203.6,145.9,203.3,146.1 M303.7,150.1l1.3-2.3c0.5-1-0.4-2.2-1.8-2.2h-16.9c-1.2,0-0.9,1.3-0.4,1.3
		c1.1,0,1.4,1.3,0.8,2.4l-5.1,9.4c-0.8,0.9-1.2,1.3-2.3,1.3c-0.9,0-1.2,1.3,0,1.3h17.1c0.7,0,1-0.2,1.2-0.6l2.3-3.1
		c0.6-0.7-0.7-0.7-1-0.4c-3,3-6.1,2.9-8.4,2.9h-2l2.4-5.2h0.5c1.5,0,3.2,0,3.7,1.1c0.1,0.3,0.9,0.5,1.2,0l2-4
		c0.3-0.6-0.6-0.7-0.8-0.3c-0.8,1.4-4.3,1-5.2,1h-0.5l2.9-5.8h3.3c2,0,3.8,1.4,4.3,3C302.4,150.3,303.5,150.6,303.7,150.1
		 M220.2,153.1l5.6-4.6v4.6H220.2z M260.5,145.6h-6c-1.2,0-0.9,1.3-0.4,1.3c1.3,0,2.5,1.5,1.8,2.9l-2.5,4.6l-5.5-8
		c-0.4-0.5-1.2-0.7-2-0.7H240c-1.2,0-0.9,1.3-0.4,1.3c1.3,0,0.9,0.9,0.6,1.6l-4.7,9.1c-0.3,0.7-1.6,0.8-2-0.1l-3.7-11.9
		c-0.1-0.5-2.3-0.4-2.8,0l-9.2,7.5h-4.7c-0.9,0-1.3,0.4-1.3,0.9s0.4,1,1.3,1h2.5l-2.5,2c-1.4,1-2.8,2.4-3.7,2.4h-0.6
		c-0.9,0-1.4,0.1-1.4,0.9c0,0.7,0.4,1,1.2,1h7.4c1.4,0,1.1-1.8,0.4-1.8c-0.8,0-2-1-0.9-2.3l2.2-2.2h4.4c2.6,0,4.5,3.1,2.9,4
		l-1.2,0.7c-0.6,0.3-0.8,1.6,0,1.6h14.4c1.1,0,0.9-1.4,0.4-1.4c-1.5,0-0.8-2.1-0.5-2.7l3.8-7.2l5.3,10.3c0.4,0.6,0.7,1,1.3,1h2
		c0.6,0,0.9-0.4,1.2-0.9l6.1-10.9c1-2,1.7-2.5,3-2.5C261.4,146.9,261.7,145.6,260.5,145.6L260.5,145.6z M176.5,154.7
		c-1.6,3.2-4.3,5.1-6,4.3c-1.7-0.9-1.8-4.2-0.2-7.4s4.3-5.1,6-4.3C178,148.2,178.1,151.5,176.5,154.7z M175.1,145
		c-5.1,0-10.3,2.5-11.3,7.8c-0.9,4.6,2.3,9.4,8,9.4c5.4,0,10.4-3.5,11.4-8.6C184.1,148.4,180.3,145,175.1,145L175.1,145z
		 M277.6,152.7h-6.5c-1.2,0-0.9,1.3-0.4,1.3s1,0.3,1,1.1c0,2.6-1.1,3.6-3.4,3.6c-2.5,0-3.4-3-1.7-6.7c1.1-2.4,3.9-4.6,7.2-4.6
		c2.1,0,3.8,0.4,4,2.4c0.1,0.5,0.8,0.5,1,0l1.6-2.8c0.2-0.3-0.1-0.7-0.6-0.7c-0.4,0-1.3,0.5-1.9,0.1c-1.3-1-4.1-1.9-6.3-1.9
		c-3.5,0-8.4,0.8-11.7,6.5c-3,5.2,1.4,10.7,5.4,10.7c2.2,0,4.8-1.7,6.3-2.3l1.7,1.1c0.2,0.3,0.8,0.7,1.3,0.7h0.6
		c0.6,0,0.8-0.8,1-1.3l2.6-6.2C279.2,153.2,279.1,152.7,277.6,152.7 M366.9,146.1c-0.4,0.2-1.5,0.4-1.9,0c-1.2-1-3.4-1.7-4.6-1.7
		c-3.4,0-5.9,0.7-7.4,3.9c-1.3,2.7,0,5,3,6.4c1.3,0.6,3,1.4,2.4,3c-0.5,1.1-1.8,1.3-3,1.2c-1.6,0-4-1.2-4.4-3.5
		c-0.1-0.7-1-0.6-1.2-0.2l-2.1,4.1c-0.3,0.5,0.5,1.2,0.9,0.8c0.7-0.7,2.2-0.9,3-0.4c1,0.7,3.7,1.9,5.2,1.9c3.5,0,5.7-0.9,7.6-3.9
		c1.7-2.7,0.7-5.4-2.5-6.9c-1.7-0.8-3.1-2.2-2.4-3.7c0.5-1,2-0.8,2.7-0.7c1.4,0.2,3.2,1.6,3.4,2.7c0.1,0.5,0.7,0.6,1,0.2l1.1-2.5
		C367.9,146.3,367.1,145.9,366.9,146.1 M321.6,155.9c-2.2,2.8-5.1,3.6-8.4,3.6h-0.9L318,148c0.3-0.5,0.9-0.9,1.6-0.9
		s0.6-1.4-0.3-1.4h-9.1c-0.8,0-1,1.4-0.3,1.4c0.8,0,0.9,0.9,0.5,1.6l-5.2,10.2c-0.3,0.5-0.9,0.7-1.5,0.9c-0.8,0.2-1.3,1.6-0.4,1.6
		h14.5c1.1,0,1.4-0.4,1.7-0.8l2.9-4.5C322.9,155.4,322,155.3,321.6,155.9 M343.4,146.9c2,0,3.8,1.4,4.3,3c0.1,0.4,1.2,0.7,1.4,0.2
		l1.3-2.3c0.6-1-0.3-2.2-1.8-2.2h-16.9c-1.2,0-0.9,1.3-0.4,1.3c1.1,0,1.4,1.3,0.8,2.4l-5.1,9.4c-0.8,0.9-1.2,1.3-2.3,1.3
		c-0.9,0-1.2,1.3,0,1.3h17.1c0.7,0,1-0.2,1.2-0.6l2.3-3.1c0.6-0.7-0.7-0.7-1-0.4c-3,3-6.1,2.9-8.4,2.9h-2l2.3-5.2h0.5
		c1.5,0,3.2,0,3.7,1.1c0.1,0.3,0.9,0.5,1.2,0l2-4c0.3-0.6-0.6-0.7-0.8-0.3c-0.8,1.4-4.3,1-5.2,1h-0.5l2.9-5.8L343.4,146.9
		 M212.7,106.6c-8-0.6-14.5-0.8-20.2-0.2c1.7-4.2,4.9-8,7.5-9.7c5.4,0.2,11,1,15.5,1.9c14.2,2.8,36.3,11.5,45.9,24.3
		C248.6,114.3,227.5,107.7,212.7,106.6z M188.8,106.9c-4.8,0.3-13.5,2.2-16.6,3.1c-0.8-2.1-3-8.6-3.7-10.6c8.8-2.5,19.1-3.4,27-2.7
		C193.3,98.4,189.6,105,188.8,106.9z M148.6,118.7c-1-1.7-5.7-5.9-8.2-6.8c5.9-4.4,19.6-10.6,24.8-11.7c0.9,1.5,3.3,7.9,4.1,10.5
		C164.7,111.8,152.5,116.2,148.6,118.7z M276.8,133.3c-1.3-1.5-3.1-4.7-16-15.9c-19-16.5-44.1-24.1-67.7-24.1
		c-17.4,0-32.6,3.9-49.5,13.2c-21.5,11.8-30.4,25.4-32.6,28.2c-1.6,2-1.9,3.2-0.8,3.8c0.8,0.4,2.2-1.1,3.6-2.9
		c6.4-8.4,14.8-16.8,23.6-21.7c2.7,0.4,6.6,4.2,8.1,6.3c-5.7,3.1-15,10.2-18.6,13c-3.1,2.4-4.1,3.7-3.3,4.7c0.7,0.8,3-0.8,5-2.4
		c3.4-2.8,13.5-9.9,18.5-12.6c3.4,4,2.3,11.3,1.1,12.9c-0.6,0.9-0.7,1.8,0,2.2s1.5-0.6,2.4-2c2.3-3.3,1.4-11.5-0.6-14.4
		c6.1-3.8,14.8-6.3,20.1-7.5c0.5,0.8,6.9,19.6,8.1,23c0.7,1.9,1.3,4.1,2.7,3.7c0.9-0.3,0.3-2.3-0.4-4.4c-0.9-2.5-5.8-18.3-7.3-23
		c1.8-0.9,12.3-3.1,14.9-3c-1.3,6.9,3.6,9.7,9,13.3c2.9,1.9,21.5,12.6,25.3,15c2.2,1.4,3.9,2.2,4.4,1.6c0.5-0.7-1-2.3-3-3.5
		c-1.6-0.9-18.9-11-26.1-15.5c-5.2-3.3-7.9-6.7-6.7-11.3c1.7-0.5,6.9-0.5,12.3-0.5c36.8,0.3,66.3,21.4,69.6,24.8
		c1.7,1.7,4,3.2,4.9,2.5C278.6,136.1,277.6,134.2,276.8,133.3z M284.8,259.2c1.4-2.5,2.5-3.9,1.3-4.6c-1.1-0.6-2.1,1.7-3.4,4
		c-4.3,7.5-9,13.6-19.6,23.3c-11.7,10.7-25.2,16.9-29.9,18.5c-4-11.2-19.2-59.1-19.6-60.5c-0.6-2-1.1-2.6-1.8-2.4
		c-0.8,0.3-0.3,1.4,0.1,3.2c0.4,1.8,18.5,58.4,19.1,60.4c-3.6,1.8-18.2,5.9-28.4,6.2c-9.1,0.3-19.8,0-25.2-1.2
		c-6.3-5.1-20.7-25.4-26.2-36.2c-6.4-12.7-10.7-24.5-11.8-29.4c-0.5-2.4-1.2-4.1-2.4-3.9c-1.3,0.3-0.5,2.1,0.2,4.7
		c1.9,6.6,5.1,15.8,11.8,29.1c7.1,14,19.8,30.5,23.5,35c-11.6-2.4-25.7-7.9-39.1-17.8c-11.5-8.6-21.4-19.5-26.4-27.5
		c-0.9-1.4-1.9-3.3-3.1-2.5c-0.6,0.4,0.1,1.9,1,3.5c7.2,13,24.9,31.4,47.5,41.5c26.3,11.8,55.1,11.1,80.8,1.2
		C255.6,294.8,275.1,276.9,284.8,259.2"/>
</g>
</svg>
