<?xml version="1.0" encoding="utf-8"?>
<!-- Generator: Adobe Illustrator 24.0.1, SVG Export Plug-In . SVG Version: 6.00 Build 0)  -->
<svg version="1.1" id="Layer_1" xmlns="http://www.w3.org/2000/svg" xmlns:xlink="http://www.w3.org/1999/xlink" x="0px" y="0px"
	 viewBox="0 0 400 400" style="enable-background:new 0 0 400 400;" xml:space="preserve">
<style type="text/css">
	.st0{fill-rule:evenodd;clip-rule:evenodd;fill:#FFFFFE;}
	.st1{fill-rule:evenodd;clip-rule:evenodd;}
</style>
<g>
	<path class="st0" d="M330.1,131.3L330.1,131.3L330.1,131.3c0,0-0.6-0.9-1.1-1.7c3.9-7.7,5.8-15.1,5.8-22c0-16.2-9.5-29.6-21.7-37.1
		C295.5,59.9,269.9,60,254.8,80c-25.7-3.5-47,3.5-55.2,6.9c-8.2-3.3-29.4-10.4-55.1-6.9c-17.6-21-42.5-19.5-59-8.2
		c-12,8-20.5,21.6-20.5,36.8c0,6.7,1.8,13.6,5.4,20.6c-0.7,1-1.5,2.1-1.5,2.1c-16.1,24.5-21,45.9-21,62.8
		c0,25.4,10.9,40.9,11.7,41.9l4.7,6.4c0,0,1.9-1.9,3.6-3.6c5.8,14.7,19.9,40.7,51.7,59.9l8.5,5.1c0,0,0.6-3.2,1.1-6
		c10.9,9.5,21.5,15.3,31.7,20.8c12,6.4,23.3,12.5,34.1,24.7l5.2,5.8l5.1-5.9c9.1-10.6,20.5-16.4,32.5-22.6
		c10.8-5.5,22.6-11.6,33.8-21.8l0.4,5.8l9.1-4.4c33.1-16.1,45.3-44.8,49.8-61.8c1.6,1.7,3.4,3.5,3.4,3.5l4.8-6.4
		C340.4,234,370.3,192.5,330.1,131.3"/>
	<path class="st1" d="M324.6,135.1c-1.1-1.7-2.3-3.3-3.4-4.9c28.6-46.8-38.8-82.7-63.2-43c-30-5.5-55.1,5.5-58.5,7
		c-3.4-1.6-28.2-12.4-57.9-7.1c-29.5-41.4-90.2,1.4-63.4,42.5c-1.3,1.8-2.6,3.6-3.8,5.5c-38.1,58-9.5,97.2-9.5,97.2l5.8-5.8
		c0,0,8.3,40.4,52.3,66.9l1.6-8.7c27.1,28.9,52.2,28.2,75.5,54.7c21.6-25,53-25,77.4-56.3v11.1c45.2-22,49.3-69.5,49.3-69.5l4.2,7.7
		C331,232.4,362.7,193,324.6,135.1"/>
	<path class="st0" d="M199.8,235.8c2.5-0.4,42.6-1.8,18,23.1C235,236.2,203.9,236,199.8,235.8"/>
	<path class="st0" d="M97.3,125.4c-0.8-7.5,8.7-15,8.7-15c-3.9-4-10.8-0.5-10.8-0.5c6.2-12.2,20.2-6.2,20.2-6.2
		c-5.3-6.5-16.5-6.1-16.5-6.1c13.8-13.7,30.5,7.2,30.5,7.2C114.6,108.2,97.3,125.4,97.3,125.4z M269.2,106.3c0,0,9-22.6,36.7-17.1
		c0,0-25.4-16.7-43,13.5c0,0-25.1-11.9-62.9,4.4c0,0-35.8-12.5-62.8-5.4c0,0-15.8-27.3-37.9-16.1c-22.2,11.2-10.6,37.3-6.7,44
		c0,0-36.7,37.4-22.9,83.7l7.4-9.2c0,0,10.5,50.4,37.8,66.3l1.6-12.4c0,0,28.4,34.3,61.8,48.9c3.2,1.5,20.9,10.3,21.4,14.7v-24
		c0,0-23.2,1.9-29.3-8.8c-4.2-7.2-30.8-54.8-17.6-104.6c0,0-12.8-1.9-15.2-23.6c0,0-9.6-4.6-21.5-3.7c0,0,21.3-6.6,41.2,1.1
		c19.9,7.7,25.2,27.3,38.8,18.7l4-55.3l3.8,55.3c13.5,8.7,18.8-11,38.7-18.7s41.2-1.1,41.2-1.1s-8.5-6-22.2-8.7
		c-11.4-2.3-28.2,5-28.2,5s2.3-15.7,9.9-24.1C249.9,122,264.7,120.4,269.2,106.3L269.2,106.3z"/>
	<path class="st0" d="M245,165.8c0.1-0.1,0.2-0.1,0.3-0.1C245.2,165.6,245.1,165.7,245,165.8"/>
	<path class="st0" d="M234.2,183.4c22.2,59.7-6.1,98.1-6.1,98.1c17.4-45.6,6.2-83.5-1.4-97.6c-3.9,0.4-8.6,0.2-8.6,0.2
		s5.9-3.6,9.7-7.1c0.3-0.3,0.7-0.6,1-0.9l0,0c2.1-0.8,5.8,1.5,7.8,5.3c9.2-2.6,8.7-15,8.6-15.9c2.7-1,5.5-1.8,8.4-2.1
		C253.7,163.6,251.6,183.1,234.2,183.4 M199.8,291.8c-28,0-24.2-6.2-24.2-6.2c3-1.9,22.6-2.3,24.2-2.3c1.6,0,21.2,0.4,24.2,2.3
		C223.9,285.7,227.7,291.8,199.8,291.8 M155.6,165.6L155.6,165.6L155.6,165.6 M199.7,265.9v11.4l-7.7,0.4
		c-8.1,0.2-18.7,3.5-18.7,3.5c-19.6-48.6-8.7-85.4-3.5-98.6c-19.5,4.2-22.6-19.1-22.6-19.1c2-0.4,5,0.4,8.3,2
		c0,0.9-0.5,13.3,8.6,15.9c2-3.8,5.5-6,7.6-5.4c1.4,1.1,2.8,2.2,4,3.2c13.2,11.2,23.5,8.9,23.5,8.9s0.1,42.4,0.1,47.6
		c0,0-38.3-3-17.7,23.1c0,0,3.3-9.5,6.8-6.5C193.4,256.5,199.7,265,199.7,265.9"/>
</g>
</svg>
