<?xml version="1.0" encoding="utf-8"?>
<!-- Generator: Adobe Illustrator 24.0.1, SVG Export Plug-In . SVG Version: 6.00 Build 0)  -->
<svg version="1.1" id="Layer_2_1_" xmlns="http://www.w3.org/2000/svg" xmlns:xlink="http://www.w3.org/1999/xlink" x="0px" y="0px"
	 viewBox="0 0 400 400" style="enable-background:new 0 0 400 400;" xml:space="preserve">
<style type="text/css">
	.st0{fill:#FFFFFF;}
</style>
<g>
	<path class="st0" d="M346.6,128.6c-11.8-13-37.9-23.6-71.4-30c0.1-3.8,2.5-5.5,6.7-8.4c2.2-1.5,4.6-3.2,7.1-5.6
		c10.8-10.3-1.9-26-2.4-26.7l-7-8.5l1.7,10.9c1.1,7.5-1.6,10.1-9.7,15.8c-1,0.7-1.9,1.5-2.7,2.4c0.3-5,0.6-10.6-1.1-17.5
		c-1.7-7-5.1-9.8-5.1-9.8l-0.9,10.1c0,0.1-0.8,7.9-11.3,17.4c0.9-1,1.8-2.1,2.5-3.2c5.1-7.5,3.6-16,1.9-25.8l-0.4-2.1
		c-1.8-10.3,1-16.6,2.7-17.7c1.7-2.1,5.1-5.6,5.1-5.6s-1.8-0.8-6.9-0.2c-6.4,1.1-17.4,5-17.1,13.9c0.1,3.9,1.4,7.7,2.5,11
		c1.2,3.5,2.3,6.9,1.3,8.6c-0.8,1.4-3.2,2.4-7,3.1c-15.4,2.8-27.2,10-33.3,20.3c-2,3.4-3.3,7.1-4,10.9
		c-38.2,0.1-74.5,4.9-102.5,13.6c-31.5,9.7-48.8,23-50.2,38.4c-0.7,8.1,2.9,19.7,23.2,30.9l-0.1,0.1l5.7,2.7l0,0l3,1.4l0,0
		c9.3,4.2,20.3,7.8,32.4,10.7c-4.3,2.4-8.3,5.3-11.9,8.4c-19.6,16.1-30.9,39.9-30.9,65.3c0,22.6,8.8,43.8,24.8,59.8
		s37.2,24.8,59.8,24.8c40,0,74.8-28.4,82.9-67.5c6.8-20.4,6-42.4,5.7-50.6c-0.7-18.8,8.6-29.2,14.4-33.9c26.7-3.4,50.4-9.2,68-17.1
		l0,0l2.8-1.4l0,0l6.1-2.9l-0.2-0.2c14.2-7.9,22.1-17.2,23-27.1C354.5,141,352,134.6,346.6,128.6z M319.1,145.1
		c2.4,2.6,2.2,4.4,2.2,4.9c-0.3,3.1-4.1,6.7-10.5,10.1l0,0c-13.4,7.1-36.6,12.4-64.1,15.2c1.2-0.8,2.5-1.5,3.9-2l0.4-0.2
		c7.9-3.2,16.9-6.9,17.3-19.9c0.1-2.1,0.2-8.5,1.3-10.7c1.5-2.9,5.3-7.5,8.6-8.7c0.1,0-5.6-1.1-5.6-1.1c-0.3,0-0.6,0-0.9-0.1
		c1.9-1.4,3.2-3,4.2-4.7C298.5,132.5,313.5,138.9,319.1,145.1z M77.6,148.3c1-10.8,39.8-25.1,102.7-27.3c-5.8,4.4-12.8,12-14.5,24.3
		l-0.6,4.6c-0.4,2.9-0.9,5.8-2,8.7c-2.4,6.4-9.2,11.6-16.6,15.6c-25.3-3.2-46.5-8.5-58.8-15.2l0,0C81.1,155.4,77.4,151.5,77.6,148.3
		z"/>
	<g>
		<path d="M272.2,98.1c0.6-7.6,7.8-9,14.7-15.6c8.9-8.5-2.7-22.6-2.7-22.6c1.5,9.5-2.9,13.1-11,18.7c-2.5,1.8-4.4,4.3-4.7,7.4
			c-0.3,3.5-0.5,7.3-1.3,11.2C268.9,97.5,270.6,97.8,272.2,98.1z"/>
		<path d="M247.7,84.9c-2.1,1.6-4.1,3.2-6,4.9c-1.3,1.3-2.6,2.6-3.8,3.8c7.8,0.7,15.5,1.6,22.8,2.6c4.7-8.5,6.9-18.2,4.1-34.7
			C264.7,61.5,264.1,72.6,247.7,84.9z"/>
		<path d="M203.9,91.9c9,0.1,17.8,0.4,26.3,1c0.3-0.3,0.5-0.6,0.8-0.9c5.7-6.2,14.7-11.4,19.4-18.3c4.8-6.9,2.8-15.4,1.1-25.6
			c-3-17.7,4.4-20.9,4.4-20.9s-14.9,2.1-14.7,10.7c0.4,11.6,12.3,22.5-5.7,25.8c-19.7,3.6-32,14.3-34.7,28.2
			C201.9,91.9,202.9,91.9,203.9,91.9z"/>
	</g>
	<path d="M203.9,96.6c-82.8-0.8-151.8,20.5-154.2,47.7c-1,10.8,8.8,20.9,26.1,29.2c10.7,5.1,24.3,9.6,40,13c3.2-1.4,6.4-2.6,9.9-3.7
		c2.8-0.8,7.8-2.5,13.4-4.9c-23.2-3.4-41.9-8.6-53.5-14.8c-8.5-4.6-13.1-9.8-12.6-15.2c1.6-18.2,59.5-32.4,129.4-31.8
		c69.8,0.7,125.2,16,123.5,34.3c-0.4,5-5,9.6-13,13.8c-14.6,7.7-40.4,13.6-71.7,16.3c-1.1,1.5-2,3.1-2.8,5
		c14.2-5.4,30.6,2.6,30.6,2.6s1.1,0.4,1.9,0.9c20.8-3.7,38.6-9,52-15.4c15.8-7.5,25.4-16.6,26.3-26.4
		C351.7,120.1,286.6,97.4,203.9,96.6z"/>
	<g>
		<path d="M69.8,269.5C72,280.7,78.4,294,91,302.9c3.8,2.7,8,4.9,12.4,6.6c-2.7-4.7-5.9-9.4-9.2-14.1c-6.1-8.9-12.3-18.2-16.3-28.1
			c-4.1-10.3-5.2-21-3.4-31.8l0,0c-3.2,8.8-5,18.2-5,28.1C69.5,265.6,69.6,267.6,69.8,269.5L69.8,269.5z"/>
		<path d="M83.4,265c3.7,9.4,9.8,18.3,15.7,27c4.5,6.7,9,13.2,12.4,19.9c3.7,0.9,7.6,1.4,11.5,1.7c-4.1-5.8-7.6-12.4-10.6-19.9
			c-11.7-29.2-10-65.3,4.5-86.1c7.5-10.8,16.5-18.1,28.1-24.4c10-5.4,16.2-7.1,22.5-10.8c6.9-4.1,10.6-11,6-26.4
			c-1.3-4.5-1.6-8.1-1.3-10.8c-1.6,3-2.8,6.6-3.4,10.7v-0.1c-0.7,4.4-1,9.2-2.9,14c-6.1,16-35.6,24.8-39.5,26
			c-11.2,3.4-20.2,8.5-27.2,14.8C79.2,218.5,75.6,245.5,83.4,265z"/>
		<g>
			<path d="M206.5,120.8c0.3,1,0.5,2,0.7,2.9c0.8,5.6-0.9,10.1-7.8,11.2c-7,1.1-9.4-5-10-10c-0.1-1.7,0.1-3.1,0.2-4.1
				c-1.2,0-2.4,0-3.5,0.1c-2.3,1.3-5.2,3.3-8,6.2c-1.4,3-3.1,7.2-0.5,17c4.6,17.3,2.6,27.7-11.2,33.7c-17.7,7.6-29,12.1-44.1,31.1
				c-7.2,9.1-11.1,24.1-11.8,39.2c-0.6,14.7,2.4,30.4,7.6,43.2c3.5,8.6,7.5,16.1,12.3,22.4c4.7-0.2,9.5-0.8,14.3-1.8
				c-5.3-6.2-8.3-13.7-8.8-22.1c-1.8-28,13.3-39.8,36.5-58.4l10.4-8.7c41.4-35.2,29.4-71,33.9-101.5
				C213.2,121,209.9,120.9,206.5,120.8z"/>
		</g>
		<g>
			<path d="M223.1,121.4c-1.3,6.1-1.8,12.5-2.2,19.1c-1.6,26.6-0.8,56.7-34.5,86.7l-10.2,8.2c-22.6,18.1-35.4,29.4-34.5,54
				c0.3,8.1,3.7,15.2,9.4,20.8c6.3-1.9,12.5-4.5,18.5-7.9c29.3-16.6,47.7-41.5,54.8-73.4c4.5-20.2,4.4-36.6,4.3-49.7
				c0-6.7,0.8-19.7,0.8-19.7c0.9-8.3,2.3-19.8,11.8-35c0.3-0.5,0.6-1,1-1.5C236.2,122.2,229.8,121.8,223.1,121.4z"/>
		</g>
		<path d="M233,207C233,206.9,233,206.9,233,207C233,206.9,233,207,233,207c-0.9,4.8-1.2,10.2-1.7,15.5c-0.3,2-0.6,4-0.9,5.9
			c-0.1,0.5-0.2,1.1-0.3,1.6c-7.4,33.6-26.5,59.7-57.3,77.2c-5.3,3-10.7,5.5-16.1,7.4c9,6,19.6,7.8,26.8,6.7
			c27.7-4.1,41.1-22.2,47.6-41.5c6.7-19.8,6-40.9,5.6-49.7c-1-29.2,21.6-40,21.6-40C240.7,189.2,234.9,196.9,233,207z"/>
		<path d="M214.5,314.8c-11.3,9.5-23.5,11.5-29,12.4c-10.9,1.7-23.8-0.9-35.2-9.9c-0.2-0.2-0.4-0.3-0.5-0.5
			c-4.9,1.3-9.8,2.2-14.7,2.6c11.2,12,25.9,18.8,45.6,20.1c0.1,0,0.2,0,0.2,0l0,0c13.4-5.3,25.1-14,34-25
			C214.7,314.6,214.6,314.7,214.5,314.8z"/>
		<path d="M111.6,334.9c0.2-6.2-1.5-12.2-4.3-18.3c-6.8-2-13.4-4.9-19.8-8.7c-3.6-2.2-6.8-5.5-9.7-8.6l0,0
			C85.1,314.3,97,326.8,111.6,334.9L111.6,334.9z"/>
		<path d="M168,343.3c-11-2.5-20.5-6.5-28.7-12.7c-4.2-3.2-8.1-6.8-11.6-10.9c-4.5-0.1-8.9-0.5-13.3-1.3c2.4,6.3,3.7,12.7,2.9,19.5
			l0,0c10.3,4.7,21.8,7.4,33.9,7.4c5.8,0,11.5-0.6,17-1.8C168.1,343.3,168,343.3,168,343.3z"/>
		<g>
			<path d="M262.8,143c-1.9,6.4-8.2,5.6-10,2.2c-2.9-5.4-1.8-9.6,1.2-12.5c3-2.9,7.9-4.4,12.6-6.6c0,0,0,0,0.1,0
				c-5.5-0.9-11.3-1.8-17.5-2.5c-0.1,0.1-0.2,0.2-0.3,0.3c-0.6,0.6-1.1,1.3-1.6,1.9c-9.8,14.8-11.1,25.8-12,34.2l-0.3,2.6
				c-0.5,4.4-0.5,10-0.5,16.5c0,0.9,0,1.8,0,2.7c-0.1,2.3-0.2,4.5-0.3,6.6c0.1,0,0.1,0,0.1,0c0.1-0.9,0.1-1.2,0.1-0.8
				c2.8-8.9,7.9-14.2,15.1-17.2c7.8-3.2,15.5-6.1,15.9-17.4c0.1-4.7,0.5-9.5,1.6-11.9c2-4.4,5.5-5.5,5.5-5.5
				C268.7,135.3,264.6,136.8,262.8,143z"/>
		</g>
	</g>
</g>
</svg>
