<?xml version="1.0" encoding="utf-8"?>
<!-- Generator: Adobe Illustrator 24.0.1, SVG Export Plug-In . SVG Version: 6.00 Build 0)  -->
<svg version="1.1" id="Layer_2_1_" xmlns="http://www.w3.org/2000/svg" xmlns:xlink="http://www.w3.org/1999/xlink" x="0px" y="0px"
	 viewBox="0 0 400 400" style="enable-background:new 0 0 400 400;" xml:space="preserve">
<style type="text/css">
	.st0{fill-rule:evenodd;clip-rule:evenodd;fill:#FFFFFE;}
	.st1{fill-rule:evenodd;clip-rule:evenodd;}
</style>
<g>
	<path class="st0" d="M138.3,322.5c-1.5-1.3-2.2-3.3-1.6-5.2l18.1-64.5c0.1-0.4,0.3-0.7,0.4-1.1l-8.3-13.3c-0.8-1.2-1-2.7-0.6-4.1
		l1.2-3.9l-11.4-0.7c-10.7-0.8-14.6-2.2-17.1-3.6c-10.8-5.9-13.6-23-14.2-28.1l-0.7-5.7c-0.3-2.3,0.3-4.6,1.7-6.2
		c1.1-1.3,2.6-2.1,4.2-2.3c-24.8-22.5-47.3-50.4-39.4-89.7c8.7-43.4,43.8-56.5,45.2-57.1c0.6-0.2,1.1-0.3,1.7-0.3
		c1.8,0,3.5,1,4.4,2.7c0.6,1.2,0.7,2.5,0.4,3.7C134,33,145,28.7,149.7,27.2c0.5-0.2,1-0.2,1.5-0.2c1.9,0,3.7,1.1,4.6,2.9
		c1.1,2.3,0.2,5.1-2,6.4C143.2,42.7,134,51.4,127,61.4c8.4-2,14.1-2.2,16.1-2.2c0.7,0,1,0,1,0c2.5,0.2,4.5,2.1,4.7,4.6
		c0.2,2.5-1.4,4.7-3.8,5.3c-0.1,0-13.9,3.5-29.2,14.5c-2.9,8.8-4.3,17.9-4.3,27.2c0,17.6,5.6,35.7,15.5,49.7
		c2.3,3.3,4.7,6.2,7.1,8.9c-0.9-18.1,4.2-46.4,37-59.5c0.6-0.2,1.2-0.4,1.9-0.4c1.8,0,3.6,1,4.5,2.8c1.2,2.3,0.4,5.2-1.9,6.5
		l-0.2,0.1c-5,3.3-9.3,7.5-12.5,12.4c3.6-1.1,6.6-1.5,8.7-1.7h0.4c0.2,0,0.4,0,0.6,0c2.1,0,4,1.3,4.7,3.3c0.8,2.2-0.1,4.7-2,5.9
		l-0.2,0.1c-0.1,0-0.1,0.1-0.2,0.1c-10.5,6-16.3,13.1-17.3,20.9c-1.1,8.6,3.6,16.6,7,21.2c8.8-10.2,14.5-27.6,16.2-34.1
		c0.6-2.3,2.6-3.8,4.9-3.8c0.2,0,0.4,0,0.6,0c2.5,0.3,4.4,2.4,4.4,5c0.1,21.4-5.6,36-11.5,45.3c8.8,4.5,17.5,4.7,19.3,4.7
		c0.2,0,0.5,0,0.6,0s0.4,0,0.6,0c1.9,0,10.5-0.3,19.3-4.7c-5.9-9.3-11.6-23.9-11.5-45.3c0-2.5,1.9-4.7,4.4-5c0.2,0,0.4,0,0.6,0
		c2.3,0,4.3,1.6,4.9,3.8c1.6,6.6,7.3,24,16.2,34.1c3.4-4.5,8.1-12.6,7-21.2c-1-7.8-6.8-14.9-17.3-20.9c-0.1,0-0.3-0.2-0.3-0.2
		c-2-1.3-2.9-3.7-2.1-5.9c0.7-2,2.6-3.4,4.7-3.4c0.2,0,0.4,0,0.6,0h0.4c2.1,0.2,5.1,0.6,8.7,1.7c-3.2-4.9-7.5-9.2-12.5-12.4
		l-0.2-0.1c-2.2-1.4-3-4.2-1.9-6.5c0.9-1.7,2.6-2.8,4.5-2.8c0.6,0,1.3,0.1,1.9,0.4c32.7,13.1,37.9,41.4,37,59.5
		c2.4-2.6,4.8-5.5,7.1-8.9c9.8-13.9,15.5-32,15.5-49.7c0-9.3-1.5-18.5-4.3-27.2c-15.3-11-29-14.4-29.2-14.5c-2.4-0.6-4-2.8-3.8-5.3
		c0.2-2.5,2.2-4.4,4.7-4.6c0,0,0.3,0,1,0c2,0,7.7,0.2,16.1,2.2c-6.9-10-16.2-18.7-26.8-25.1c-2.2-1.3-3-4.1-2-6.4
		c0.8-1.8,2.6-2.9,4.6-2.9c0.5,0,1,0.1,1.5,0.2c4.6,1.5,15.7,5.8,27.3,15.6c-0.3-1.2-0.2-2.5,0.4-3.7c0.9-1.7,2.6-2.7,4.4-2.7
		c0.6,0,1.1,0.1,1.7,0.3c1.5,0.5,36.6,13.6,45.2,57.1c7.8,39.3-14.6,67.2-39.4,89.7c1.6,0.2,3.1,1,4.2,2.3c1.4,1.6,2,3.9,1.7,6.2
		l-0.7,5.7c-0.6,5.1-3.4,22.2-14.2,28.1c-2.5,1.4-6.4,2.8-17.1,3.6l-11.5,0.7l1.2,3.9c0.4,1.4,0.2,2.9-0.6,4.1l-8.3,13.3
		c0.2,0.3,0.3,0.7,0.4,1.1l18.1,64.5c0.5,1.9-0.1,4-1.6,5.2L199,371.8L138.3,322.5"/>
	<path class="st1" d="M99.2,146.4c0,0-7.4-33.3-1.9-53c-1.5,1.6-2.9,3.2-4.3,5C79.7,115.5,99.2,146.4,99.2,146.4L99.2,146.4z
		 M298.8,146.4c0,0,19.5-30.8,6.2-48.1c-1.4-1.8-2.8-3.4-4.3-5C306.1,113,298.8,146.4,298.8,146.4z M75.5,94.9
		c8.2-41.2,42-53.3,42-53.3c-12.4,9.2-25,26.4-30.3,50.5c5.1-6.3,9.8-11,15.3-14.8c13.7-29.5,37.1-41.5,48.6-45.2
		c-14.9,9-27.4,22.4-34.9,37.8c17.2-6.1,27.6-5.6,27.6-5.6s-15.4,3.7-32.2,16.2c-3.3,9.5-5.1,19.7-5.1,30.3c0,18.7,6,37.9,16.4,52.6
		c5.8,8.3,11.5,14,18.5,19.2c-2.3-5.8-11.2-51,31.5-68.1l-0.3,0.2c-10.1,6.5-17.5,16.7-20.5,28.7c7.8-7.5,16-8.2,20.3-8.8
		c-0.1,0-0.1,0.1-0.2,0.1c-39.6,22.9-8.1,53.8-8.1,53.8c12.5-10.5,19.8-33.9,21.3-40.3c0.2,24.8-8.1,39.6-13.7,46.9
		c12.8,8.8,27.1,8.2,27.1,8.2l0,0c0,0,14.3,0.6,27.1-8.2c-5.6-7.2-13.8-22.1-13.7-46.9c1.6,6.4,8.9,29.9,21.3,40.3
		c0,0,31.5-31-8.1-53.8c-0.1,0-0.1-0.1-0.2-0.1c4.3,0.5,12.5,1.3,20.3,8.8c-3-12-10.4-22.1-20.5-28.7l-0.3-0.2
		c42.7,17.1,33.8,62.3,31.5,68.1c7-5.2,12.7-10.9,18.5-19.2c10.4-14.7,16.4-33.9,16.4-52.6c0-10.6-1.8-20.8-5.1-30.3
		c-16.8-12.5-32.2-16.2-32.2-16.2s10.4-0.6,27.6,5.6c-7.6-15.4-20-28.8-34.9-37.8c11.5,3.7,34.9,15.7,48.6,45.2
		c5.5,3.8,10.3,8.5,15.3,14.8c-5.2-24.2-17.9-41.4-30.2-50.5c0,0,33.8,12.2,42,53.3c9.5,47.9-28.7,77.8-59.6,103.5l23.6-9.6
		c1.6-0.7,2.7,0.9,2.4,2.7l-0.7,5.8c-0.4,3.2-2.7,19.4-11.6,24.3c-1.9,1.1-5.2,2.3-15,3l-17.7,1.1l2.9,9.9l-17.4,27.8l8.9-9.4
		l18.1,64.5l-49.8,41l15.5-70.5L199,317.4l-23.2-28.3l15.5,70.5l-49.8-41l18.1-64.5l8.9,9.4l-17.4-27.8l2.9-9.9l-17.7-1.1
		c-9.8-0.7-13.1-1.9-15-3c-8.9-4.9-11.3-21.1-11.6-24.3l-0.7-5.8c-0.3-1.8,0.8-3.4,2.4-2.7l23.6,9.6C104.2,172.7,66,142.8,75.5,94.9
		z"/>
	<path class="st0" d="M117.5,197.1L117.5,197.1c0,0,1.7,14.5,7.8,17.8c4.1,2.3,14.1,2,22.8,2.7C138.5,213.9,124.2,203.7,117.5,197.1
		L117.5,197.1z M171.1,227.7c5.3,4.1,9.8,1.8,12.2-0.6c0.8-0.8,0.5-2.1-0.5-2.5l-12-5.5c-0.9-0.4-2,0.2-2.2,1.2
		C168.3,222.3,168.3,225.5,171.1,227.7L171.1,227.7z M180.7,255.7l-2.8,12.6l7,9.4h7.4l-6.9-10.1l1.1-6.3c3.1,3.3,7.6,5.4,12.5,5.4
		s9.4-2.1,12.5-5.4l1.1,6.3l-6.9,10.1h7.4l7-9.4l-2.8-12.6c-6.7-4.3-8.2-10.3-8.2-10.3l-4.7-15.3l-5.4,2.6l-5.4-2.6l-4.7,15.3
		C188.9,245.4,187.4,251.5,180.7,255.7z M214.7,227.1c2.4,2.4,6.9,4.6,12.2,0.6c2.8-2.2,2.9-5.4,2.5-7.4c-0.2-1-1.3-1.6-2.2-1.2
		l-12,5.5C214.2,225,213.9,226.4,214.7,227.1L214.7,227.1z M209.1,283.5h-20.2l4.8,6.6h10.5L209.1,283.5L209.1,283.5z M249.9,217.6
		c8.7-0.7,18.7-0.5,22.8-2.7c6.1-3.3,7.8-17.8,7.8-17.8l0,0C273.8,203.7,259.5,213.9,249.9,217.6L249.9,217.6z"/>
</g>
</svg>
