<?xml version="1.0" encoding="utf-8"?>
<!-- Generator: Adobe Illustrator 24.0.1, SVG Export Plug-In . SVG Version: 6.00 Build 0)  -->
<svg version="1.1" id="Layer_1" xmlns="http://www.w3.org/2000/svg" xmlns:xlink="http://www.w3.org/1999/xlink" x="0px" y="0px"
	 viewBox="0 0 400 400" style="enable-background:new 0 0 400 400;" xml:space="preserve">
<style type="text/css">
	.st0{fill:#FFFFFF;}
</style>
<g>
	<path class="st0" d="M343.2,155.3L343.2,155.3l-1.5-4.5C320.7,90.5,263.8,50,200,50c-16.7,0-33.3,2.8-49.2,8.3
		C72.7,85.5,31.2,171.1,58.3,249.2C79.3,309.5,136.2,350,200,350c16.7,0,33.3-2.8,49.2-8.3C325.8,315.1,367.2,232.2,343.2,155.3"/>
	<path d="M200,344.8c-61.5,0-116.5-39.1-136.7-97.3c-26.2-75.4,13.9-158,89.2-184.2c15.4-5.3,31.3-8,47.5-8
		c61.6,0,116.5,39.1,136.7,97.3l0.7,2l0,0c24.8,74.8-15.2,156.2-89.9,182.2C232.1,342.1,216.1,344.8,200,344.8"/>
	<g>
		<path class="st0" d="M215,135c-0.8-0.1-1.7-0.1-2.7-0.2c-5.3-0.4-13.7-1-23.8-4.5c-2.1,2.3-3.8,4.7-5,6.7c2.6,2.7,7.5,7.9,10,10.6
			c4.2,2.6,8.5,5.3,12.7,8.3c6.7-7.6,12.7-13.7,18.5-19.8c-2.9-0.4-5.8-0.7-8.9-1L215,135z"/>
		<path class="st0" d="M152.2,160c-11.2,15.7-19.1,36.2-19.9,60.7c11.9-13.1,21.7-25.3,28.4-31.7c4.6-4.5,9.3-7.5,13.6-9.6
			c-4.4-10.2-10.3-18.6-18.2-22.6C154.6,157.8,153.3,158.9,152.2,160"/>
		<path class="st0" d="M183.9,121.8c6.6-2.7,13.8-5.5,20.8-7.8c8.8-3.2,16.5-5,22.6-5.9c-0.2,0-0.3-0.1-0.5-0.2
			c-4.3-1.3-8.6-2.2-12.9-2.8c-11.9-1.7-23.7-1.2-34.9,1.3c-0.7,2.1-1.5,6.2-0.1,9.9C179.8,118.6,181.5,120.4,183.9,121.8"/>
		<path class="st0" d="M170.1,148.7c-2.6,1.3-5.5,2.7-8.3,4.3c7.8,5.1,13.6,13.8,18,23.9c6.2-2.2,10.5-2.2,10.5-2.2
			c4.2-5.3,8-10,11.6-14.1c-4.2-2.9-8.4-5.6-12.6-8.2C184.8,150.8,173.9,149.3,170.1,148.7"/>
		<path class="st0" d="M193.8,125.6c7.8,2.3,14.3,2.8,18.9,3.1c1.1,0.1,2.1,0.1,2.9,0.2l0.7,0.1c3,0.3,7.2,0.7,12.2,1.6
			c3.7-4.5,8.1-7.3,11.1-8c3.5,1.3,5.3,3.4,6.6,6.3c4.9,2.1,8.2,5.7,10.3,10c11.3,4.9,22.7,12.2,31.5,23.1
			c-9.1-21.1-25.8-38.8-47.6-49v0.1c-0.3,0-20.4-0.5-45.4,11.6C194.6,125.1,194.2,125.4,193.8,125.6"/>
		<path class="st0" d="M295.6,192.1c-2.5-11.4-10.5-32.3-36.4-45.6c2.9,13-0.4,27.8-0.4,27.8s7.1,4.1,8.8,11.9c0,0,0.9,0.4,1.7,1.6
			c2,2.4,4.5,8,0.4,19c0,0-2.4-5.1-7.5,0.4c-0.4,0.6-0.9,1.2-1.3,1.8c9.7,13.4,17.1,27.3,20.9,40.9c4.3-7.1,7.8-14.8,10.2-23.2
			C295.4,215.2,296.5,203.5,295.6,192.1"/>
		<path class="st0" d="M126.1,227.4c-0.3-13.7,1.5-27,5.5-39.7c3.4-10.6,7.9-19.6,12.8-27.1c0.7-1.5,2-3.7,3.4-6.3
			c-18.5-2-35.2,17.7-41.7,26.5c-4.3,20.7-1.4,41.5,7,59.6C117.6,236.2,121.9,231.8,126.1,227.4"/>
		<path class="st0" d="M247.6,251.2c-0.2,9.2,4.3,16.3,7.7,27.2c8.3-5.9,15.7-13.1,21.9-21.4c-2.8-13.7-10-28.2-19.9-42.2
			C251,224.9,247.9,234.4,247.6,251.2"/>
		<path class="st0" d="M166.2,129.4c3.1-1.4,6.9-3.1,11.1-4.9c-1.8-1.7-3.2-3.7-4.1-6c-1.4-3.6-1.4-7.4-0.9-10.3
			c-13.7,4.2-26.4,11.3-36.9,21c0.5,0,1,0,1.5,0C145.9,128.7,158.8,129.1,166.2,129.4"/>
		<path class="st0" d="M151,148.6c1.3-2.3,2.6-4.6,3.8-6.7c-5.1-3.3-8.3-5.8-17-6.5c-3.6-0.1-6.6,0-8.7,0.2
			c-7.9,8.7-14.4,19.1-18.7,30.7C120,156.2,134.7,145.4,151,148.6"/>
		<path class="st0" d="M181.3,128.1l-6.6,9.6c0,0,5,3.5,9.1,8.2c-7.2-1.5-15.1-2.8-15.1-2.8l-12.6,6.8l5.9-9.8c0,0-4-3.4-8.5-6.3
			c5,0.1,14.5,0.9,14.5,0.9L181.3,128.1z"/>
		<path class="st0" d="M286.1,134.8c-17.4-23-42.8-37.9-71.3-41.8c-4.9-0.7-9.9-1-14.9-1c-53.6,0-99.6,40.1-106.9,93.3
			c-3,22.1,0.7,44.1,10.6,63.5c1.2-1,2.5-2.1,3.7-3.2c-9.1-18.4-12.5-39-9.6-59.7c7-50.9,51-89.2,102.2-89.2c4.7,0,9.5,0.3,14.2,1
			c27.3,3.8,51.5,18,68.2,40s23.8,49.2,20,76.5c-4.2,30.1-21.3,55.8-45.2,71.8c0.3,1.6,0.6,3.3,0.8,5.1c25.9-16.6,44.5-44,49-76.3
			C311,186.2,303.5,157.8,286.1,134.8"/>
		<path class="st0" d="M186.6,185.5c0,0-1.7,4.8-2,9.3c0,0-10.9,1.6-16.2,5.2C168.5,200,179.4,189.2,186.6,185.5"/>
		<path class="st0" d="M260.2,185.1c1.2-0.3,2.1-0.3,2.8-0.3c-0.2-0.6-0.6-1.4-1.3-2.2c-1-1.2-2.4-2-2.4-2
			C260.3,181.9,260.3,183.8,260.2,185.1"/>
		<path class="st0" d="M250.4,190c1.4-1,2.7-1.8,3.9-2.4c-0.2-0.5-0.5-1.2-1-2.1c-0.9-1.7-3.4-3.1-3.4-3.1
			C250.8,185.3,250.6,188.3,250.4,190"/>
		<path class="st0" d="M133.2,263.7c-9.3,3.8-31.3-1.4-31.3-1.4c22.2-1.3,43.9-17.2,43.9-17.2v0.1c-6.5,10-15.5,15.8-15.5,15.8
			C131.3,262.3,132.3,263.1,133.2,263.7"/>
		<path class="st0" d="M243.9,131.3c0,0-5.5-4.3-11.6,2.4C238.9,121.6,242.7,128.5,243.9,131.3"/>
		<path class="st0" d="M265.5,189.9c0,0-0.6-0.4-0.7-0.5c-3.5-1.8-9.6,3.5-13.7,5.8c-4,2.2-9.9,7-12.8,0.4c-2.9-6.5,3.7-16.7,6-23.2
			c5.1-14.2,5.2-22.6,4.2-27.1c4.7,5.3,6.1,15.4,6.1,15.4s1.7-19-7.5-24c0.2,0.7,0,3-0.2,4.9l0,0c-4.3,0.8-13.9-0.3-17-1.9
			c-11.7,12.6-24.5,30.1-34.1,46.1c-4.2,8.5-8.3,18.5-9.3,26.6c0,0-1.3-3.7-1.6-8.5c-5.3,2-23.4,10.9-27.3,38.2
			c0,0,11.5-11.9,24.2-16.5c0,0-8.1,21.1,7.3,58.5c0,0,6.2-22.9,19.2-28.7c7.9,39.1,31,39.8,37.7,66.4c0,0,7.1-13.8-1.4-37.2
			c0,0,2.9,0.8,5.4,3.7c0,0-0.4-6.9-6.8-21.7c-4.2-7.9-5.5-18.6-5.5-18.6c-3.8,3.4-4.7,14.9-4.7,14.9c-11.5-31.1,21.1-62,27-66.5
			c2.9-2.2,4.7-2.3,5.8-1.7C266.9,192.4,266.8,190.9,265.5,189.9"/>
	</g>
	<g>
		<g>
			
				<rect x="227.4" y="77.4" transform="matrix(0.2846 -0.9587 0.9587 0.2846 93.0561 283.5564)" class="st0" width="18.3" height="4.1"/>
			<polygon class="st0" points="332.6,228 333.6,224 315.7,219.8 312.9,231.7 317,232.7 318.8,224.8 			"/>
			<path class="st0" d="M326.2,191.3c-5.2,0-9.4,4.2-9.4,9.4s4.2,9.4,9.4,9.4c5.2,0,9.4-4.2,9.4-9.4S331.4,191.3,326.2,191.3
				 M326.2,205.9c-2.8,0-5.1-2.3-5.1-5.1s2.3-5.1,5.1-5.1c2.8,0,5.1,2.3,5.1,5.1C331.3,203.6,329,205.9,326.2,205.9"/>
			<polygon class="st0" points="289,124.2 296.8,134 300,131.4 294.8,124.9 297.2,123 301.7,128.6 304.9,126.1 300.4,120.4 
				302.8,118.5 308,125.1 311.1,122.6 303.4,112.8 			"/>
			<polygon class="st0" points="301.7,258.3 295,268.8 298.5,271 303,263.9 305.6,265.6 301.7,271.6 305.2,273.8 309,267.8 
				311.6,269.4 307.1,276.4 310.5,278.6 317.2,268.1 			"/>
			<polygon class="st0" points="218.1,84.6 220,70.4 225,71.1 225.6,67.1 211.3,65.2 210.8,69.2 215.9,69.8 214,84 			"/>
			<polygon class="st0" points="317.3,247.5 327.3,247 329,242.8 308.7,243.7 308.5,244.2 322.5,258.9 324.2,254.7 			"/>
			<polygon class="st0" points="258.8,88.8 255.6,76.4 255.5,76.4 255,76.1 246.4,92.5 250.1,94.4 254,86.8 255.9,93.8 256.3,94.1 
				263.2,91.6 259.2,99.2 262.9,101.1 271.4,84.7 270.9,84.4 			"/>
			<polygon class="st0" points="324.2,175.9 332,169.4 331.8,168.8 321.9,166.5 329.8,161.3 328.8,157 312.4,167.9 312.6,168.6 
				323.6,171.1 314.9,178.4 315.1,179 334.7,181.3 333.6,177 			"/>
			<path class="st0" d="M312.5,148.9c1.6,1.7,4.2,1.9,6.4,0.8c3.4-1.7,4.5-5.1,2.6-9l-3-6.1l-16.5,8.1l1.8,3.7l7.6-3.8l-5.2,8.6
				l2.2,4.4C308.4,155.6,312.2,149.3,312.5,148.9 M313.3,144.6l-1.2-2.4l4.6-2.3l1.2,2.4c0.8,1.7,0.4,2.9-1.1,3.6
				C315.3,146.7,314.1,146.3,313.3,144.6"/>
			<path class="st0" d="M287.2,108.3c1-0.3,2-0.9,2.7-1.7c1.2-1.3,1.6-3,1.3-4.6c-0.2-1.3-1-2.5-2.2-3.6l-2.3-2l-3.1-2.7l-2.7,3.1
				l-1.8,2.1l-0.1,0.2l-2.5,2.9l-0.1,0.2l-2,2.3l-2.7,3.1l3.1,2.7l2.7,2.3c1.2,1,2.6,1.6,4,1.6c1.7,0.1,3.3-0.7,4.4-1.9
				C286.8,111.2,287.3,109.8,287.2,108.3 M284.1,99.5l2.3,2c1,0.8,1.1,1.6,0.4,2.4c-0.8,0.9-1.8,0.4-2.6-0.2l-2.1-1.9L284.1,99.5z
				 M280.1,109.6l-2.7-2.3l2.2-2.5l2.5,2.2c1,0.9,1.3,2,0.6,2.7C282.1,110.4,281,110.4,280.1,109.6"/>
			<path class="st0" d="M284.4,280.7c0.7-0.8,1.7-1.4,2.7-1.9c2-1,4.9-1,5.3-1v4.2c-0.9,0-2.6,0.2-3.4,0.6c-1.3,0.6-2.2,1.6-2.5,2.5
				c-0.2,0.6,0.1,1.2,0.4,1.4c0.3,0.3,0.7,0.3,1.2,0.2c0.4-0.1,1-0.4,1.7-0.8c1.5-0.7,3.2-1.6,4.6-1.7c1.6-0.2,3,0.3,4.1,1.4
				c1.3,1.2,1.8,3,1.7,4.2c-0.1,1.3-0.7,3.7-3.7,5.5c-1.8,1.1-4.3,1.4-4.6,1.5l-0.5-4.1c0.7-0.1,2.1-0.5,2.9-0.9
				c2.2-1.1,2.2-3.5,0.5-3.4c-0.7,0-2.2,0.8-3.2,1.3c-0.9,0.4-1.6,0.8-2.2,1c-1.9,0.6-3.9,0.2-5.3-1.1c-1.5-1.4-2.1-3.5-1.5-5.5
				C282.8,282.8,283.5,281.7,284.4,280.7"/>
		</g>
		<g>
			<path class="st0" d="M131.7,84.6c-5.2,0-9.4,4.2-9.4,9.4s4.2,9.4,9.4,9.4c5.2,0,9.4-4.2,9.4-9.4S136.9,84.6,131.7,84.6
				 M131.7,99.2c-2.8,0-5.1-2.3-5.1-5.1c0-2.8,2.3-5.1,5.1-5.1s5.1,2.3,5.1,5.1C136.8,96.9,134.5,99.2,131.7,99.2"/>
			<path class="st0" d="M110.6,108.1l-2.2,1.2c-0.8,0.5-1.3,0.5-1.7,0.1c-0.5-0.5-0.4-1.2,0.3-2l0,0c0.8-0.9,1.7-1.3,2.8-1.4h0.4
				l-0.3-4.2h-0.4c-2.1,0.1-4,1.1-5.7,3c-1.1,1.2-1.8,2.7-1.9,4c-0.1,1.6,0.5,3.1,1.7,4.3c2,1.8,4.3,1.9,7.2,0.4l2-1.1
				c1-0.6,1.7-0.8,2.2-0.3c0.7,0.6,0.5,1.4-0.5,2.5l0,0c-1.3,1.4-2.7,1.5-3.7,1.4h-0.4l-0.4,4.6h0.4c1.5,0.1,4.5-0.2,7.3-3.3
				l0.1-0.1c1.4-1.6,2.2-3.2,2.3-4.7c0.1-1.6-0.6-3-2-4.3C116,106.4,113.7,106.3,110.6,108.1"/>
			
				<rect x="64.4" y="201.2" transform="matrix(0.9997 -2.418073e-02 2.418073e-02 0.9997 -4.8932 1.8379)" class="st0" width="18.3" height="4.1"/>
			<polygon class="st0" points="99.6,139.5 106.5,129.1 103.1,126.9 98.5,133.8 95.9,132.1 99.9,126.1 96.5,123.9 92.5,129.8 
				90,128.2 94.6,121.2 91.3,119 84.3,129.3 			"/>
			<polygon class="st0" points="159.8,90 154.4,76.7 159.2,74.8 157.7,71.1 144.4,76.5 145.9,80.2 150.6,78.3 156,91.5 			"/>
			<polygon class="st0" points="84.4,150.1 71.5,156 71.2,156.6 88.3,163.6 89.9,159.8 81,156.2 94,150.3 94.2,149.6 77.1,142.6 
				75.5,146.5 			"/>
			<polygon class="st0" points="76,177.6 64.7,186.3 64.6,186.9 82.9,189.8 83.6,185.7 74.1,184.3 85.3,175.5 85.4,174.8 67.1,172 
				66.5,176.1 			"/>
			<polygon class="st0" points="76.6,227.1 69.1,237.4 69.1,237.5 69.2,238.1 87.3,234.3 86.5,230.3 78.1,232 82.4,226.1 
				82.3,225.6 76,221.9 84.4,220.1 83.5,216.1 65.4,219.9 65.5,220.5 			"/>
			<polygon class="st0" points="177.5,76.2 183.1,84.4 187.6,83.6 176.2,66.8 175.6,66.9 170.4,86.6 174.9,85.8 			"/>
		</g>
	</g>
</g>
</svg>
