<?xml version="1.0" encoding="utf-8"?>
<!-- Generator: Adobe Illustrator 24.0.1, SVG Export Plug-In . SVG Version: 6.00 Build 0)  -->
<svg version="1.1" id="Layer_2_1_" xmlns="http://www.w3.org/2000/svg" xmlns:xlink="http://www.w3.org/1999/xlink" x="0px" y="0px"
	 viewBox="0 0 400 400" style="enable-background:new 0 0 400 400;" xml:space="preserve">
<style type="text/css">
	.st0{fill-rule:evenodd;clip-rule:evenodd;fill:#FFFFFE;}
	.st1{fill-rule:evenodd;clip-rule:evenodd;fill:#1A1919;}
	.st2{fill-rule:evenodd;clip-rule:evenodd;}
</style>
<g>
	<path class="st0" d="M399,177.7l-3.4-2.1c-52.8-30.8-129.4-46-164.6-46.6h-0.5c-5.8,0-9.8,2-11.9,5.9c-1.8,3.3-1.6,6.7-0.7,9.6
		c-0.6-0.7-1.5-1.4-2.4-2.1c-2.9-2.2-6.2-3.9-6.2-3.9s0.4,2.8-0.6,2.4c-0.5-0.2-1.1-0.4-1.7-0.7c-2.9-1.4-7-3.8-7-3.8
		s-4.2,2.5-7.1,3.8c-0.7,0.3-1.2,0.6-1.7,0.7c-1,0.3-0.6-2.4-0.6-2.4s-3.4,1.7-6.2,3.9c-1,0.7-1.8,1.4-2.4,2.1
		c0.9-2.9,1.1-6.2-0.7-9.6c-2.1-3.9-6.1-5.9-11.9-5.9h-0.5c-35.2,0.6-111.8,15.8-164.5,46.5L1,177.7c0,0,5.2,13.2,18,16.9l-1.8,0.8
		c0,0,7.2,11.7,18.5,14.2l-2.2,0.9c0,0,7.9,12.8,23.3,15.5l-2.3,1.1c0,0,11,11.8,27.8,12.9l-2.4,1.9c0,0,11.1,7.4,27.5,9.3l-2.6,2.3
		c0,0,29.1,10.7,53.5,1.8c6.7,16.9,23.3,28.4,41.7,28.4l0,0c18.5,0,35-11.4,41.7-28.4c24.4,8.9,53.5-1.8,53.5-1.8l-2.7-2.3
		c16.4-1.9,27.6-9.3,27.6-9.3l-2.4-1.9c16.8-1.1,27.7-12.9,27.7-12.9l-2.3-1.1c15.4-2.7,23.3-15.5,23.3-15.5l-2.1-0.9
		c11.2-2.4,18.5-14.2,18.5-14.2l-1.7-0.8C393.8,190.8,399,177.7,399,177.7"/>
	<path class="st1" d="M393.4,179.2c-51.6-30.1-127.4-45.4-162.5-46c-4.2-0.1-7.1,1-8.6,3.7c-2.4,4.6,1,9.7,2.5,11.9
		c3.2,4.7,7.4,12.1,7.4,21c0,17.3-14,30-31.2,30c-0.4,0-0.7,0-1.1,0c-0.4,0-0.7,0-1.1,0c-17.2,0-31.2-12.8-31.2-30
		c0-8.9,4.2-16.3,7.4-21c1.5-2.2,4.9-7.3,2.5-11.9c-1.5-2.7-4.4-3.8-8.6-3.7c-35.1,0.6-110.9,15.9-162.5,46c0,0.1,8.3,14.2,24.7,13
		c-2.5,1.2-5.1,2.5-7.6,3.8c0,0.2,7.5,12.5,25.6,10.7c-3,1.4-6,2.9-9,4.4c0,0.2,8.7,12.3,27.7,12c-4.4,2.2-7,3.6-7,3.6
		c0,0.1,12.6,12.3,32.9,8.9c-2.2,1.6-4.4,3.3-7,5.1c0,0,14.9,8.2,32.5,5.7c-2.3,1.7-4.5,3.5-6.8,5.2c0-0.2,26.9,7.4,46.1-1.1
		c16.5-7.3,25.7-25.1,27.8-29.6c3.3,0.7,6.1,1.1,8.3,1.4c0,0.2,3.5,0.5,5.3,0.5c1.8,0.1,5.3-0.2,5.3-0.5c2.2-0.3,5-0.7,8.3-1.4
		c2.1,4.5,11.3,22.3,27.8,29.6c19.2,8.4,46.1,0.8,46.1,1.1c-2.3-1.8-4.5-3.5-6.8-5.2c17.6,2.5,32.5-5.6,32.5-5.7
		c-2.6-1.8-4.8-3.5-7-5.1c20.3,3.4,32.9-8.8,32.9-8.9c0,0-2.6-1.4-7-3.6c19.1,0.3,27.7-11.8,27.7-12c-3-1.5-6-3-9-4.4
		c18.1,1.8,25.6-10.5,25.6-10.7c-2.5-1.3-5-2.6-7.6-3.8C385.2,193.4,393.4,179.3,393.4,179.2"/>
	<path class="st0" d="M185.1,211.9c0,0-46.1-15.4-26.1-64.6c0,0-48.8,2-115.6,29c0,0-4.7,2-7.4,2.9c-2.7,1-7.1,2.7-13.4-0.3
		c0,0,61.1-32,139.7-39.4c10.4-1,11.7,0.6,9,4.5C169,147.2,141,182.9,185.1,211.9"/>
	<path class="st0" d="M144.2,161.2c-39.5,5.1-78.2,18.9-78.2,18.9c6.6,11.7,24.4,6.8,24.4,6.8c33.5-9.5,48.4-12.7,53.2-13.6
		C143.5,169.6,143.6,165.5,144.2,161.2 M144.5,180.5c-6.6,1.3-34.3,7-62.2,17.4c0,0,8.8,10,26.3,5.1c14.7-4.2,33.5-10.2,39.1-12
		C146.3,187.8,145.2,184.3,144.5,180.5 M150.6,196.5c-6,1.9-35.8,11.6-48.4,16.4c0,0,7.2,9.7,28.1,1.5c14.5-5.7,22.5-9.1,26.1-10.6
		C154.2,201.7,152.3,199.2,150.6,196.5 M161,208c-5.2,2.3-24.6,10.7-35.7,16.1c0,0,14.1,6.9,31.8-4l11-7.2
		C165.6,211.5,163.2,209.9,161,208 M173.4,215.7c-3.5,2.2-18.2,11.4-25.4,16.7c0,0,12.2,5,24.6-6.7c4.1-3.8,6.3-6,7.5-7.2
		C178,217.7,175.7,216.8,173.4,215.7 M214.8,211.9c0,0,46.1-15.4,26.1-64.6c0,0,48.8,2,115.6,29c0,0,4.7,2,7.4,2.9
		c2.7,1,7.1,2.7,13.4-0.3c0,0-61.1-32-139.7-39.4c-10.4-1-11.7,0.6-9,4.5C231,147.2,259,182.9,214.8,211.9"/>
	<path class="st0" d="M255.8,161.2c39.5,5.1,78.2,18.9,78.2,18.9c-6.6,11.7-24.4,6.8-24.4,6.8c-33.5-9.5-48.4-12.7-53.2-13.6
		C256.5,169.6,256.4,165.5,255.8,161.2 M255.5,180.5c6.6,1.3,34.3,7,62.2,17.4c0,0-8.8,10-26.3,5.1c-14.7-4.2-33.5-10.2-39.1-12
		C253.7,187.8,254.8,184.3,255.5,180.5 M249.4,196.5c6,1.9,35.8,11.6,48.4,16.4c0,0-7.2,9.7-28.1,1.5c-14.5-5.7-22.5-9.1-26-10.6
		C245.7,201.7,247.7,199.2,249.4,196.5 M239,208c5.2,2.3,24.6,10.7,35.8,16.1c0,0-14.1,6.9-31.8-4l-11-7.2
		C234.4,211.5,236.8,209.9,239,208 M226.6,215.7c3.5,2.2,18.2,11.4,25.4,16.7c0,0-12.2,5-24.7-6.7c-4.1-3.8-6.3-6-7.5-7.2
		C222,217.7,224.3,216.8,226.6,215.7"/>
	<path class="st0" d="M237.8,238.7c0,20.9-16.9,37.8-37.8,37.8s-37.8-16.9-37.8-37.8s16.9-37.8,37.8-37.8S237.8,217.8,237.8,238.7"
		/>
	<path class="st0" d="M229.9,246.5c0,16.6-13.4,30-30,30c-16.5,0-29.9-13.4-29.9-30c0-16.5,13.4-30,29.9-30
		C216.5,216.5,229.9,229.9,229.9,246.5"/>
	<path class="st1" d="M219.9,267.3c-1.5-1.2-3.7-3.3-4.1-5.9l-0.1-0.7c7.7-3.2,14.2-8.8,18.5-15.9
		C232.6,254.1,227.3,262.1,219.9,267.3L219.9,267.3z M165.7,244.8c4.4,7.1,10.9,12.7,18.6,15.9c0,0.2-0.1,0.5-0.1,0.7
		c-0.4,2.6-2.5,4.7-4.1,5.9C172.7,262.1,167.3,254,165.7,244.8z M173.7,215.8c-1.6,8.6,2,16.7,5.3,24.1c2.3,5.2,4.5,10.1,5.2,15.1
		c-9-4.5-15.8-12.7-18.4-23C167,225.9,169.8,220.4,173.7,215.8L173.7,215.8z M210.6,257.1c-2.6,0.8-5.3,1.4-8.1,1.6v-54.8
		c5.6,0.4,10.8,2.1,15.3,4.8c6.9,10,3,18.9-1.5,29.1C213.7,244.1,210.9,250.4,210.6,257.1L210.6,257.1z M202.5,263.7
		c2.9-0.2,5.7-0.6,8.4-1.4c0.6,3.2,2.6,5.8,4.4,7.6c-3.9,1.9-8.2,3.1-12.8,3.5L202.5,263.7L202.5,263.7z M189.1,262.4
		c2.7,0.7,5.5,1.2,8.4,1.4v9.7c-4.6-0.3-8.9-1.5-12.8-3.5C186.5,268.2,188.5,265.6,189.1,262.4z M182.1,208.8
		c4.5-2.7,9.8-4.4,15.3-4.8v54.8c-2.8-0.2-5.5-0.7-8.1-1.5c-0.3-6.8-3.1-13.1-5.8-19.3C179.1,227.7,175.2,218.8,182.1,208.8z
		 M234.2,232.1c-2.5,10.1-9.4,18.3-18.4,22.9c0.7-5,2.9-9.9,5.1-15c3.3-7.4,6.8-15.5,5.3-24.1C230.2,220.4,233,225.9,234.2,232.1
		L234.2,232.1z M200,198c-22.4,0-40.7,18.3-40.7,40.7c0,22.5,18.3,40.7,40.7,40.7s40.7-18.3,40.7-40.7
		C240.7,216.2,222.4,198,200,198L200,198z"/>
	<path class="st1" d="M212.1,145.1c0,0-0.3,1.3-1.1,1.3s-5.7-2.3-8-3.6c-1-0.5-2.4-1.4-2.9-1.6c0,0-2.1,1.1-3.1,1.6
		c-2.3,1.3-7.2,3.6-8,3.6s-1.1-1.3-1.1-1.3s-12.8,7.7-12.8,29.1c0,15.9,8.3,23.2,8.3,23.2l1.1,4.5h31l1.1-4.5c0,0,8.3-7.2,8.3-23.2
		C224.9,152.8,212.1,145.1,212.1,145.1"/>
	<path class="st0" d="M218.2,168.8c0-6.6-2.7-12-5.6-15.2c0,0-0.1,1.9-3.3-0.2c-2.7-1.9-5.9-3-9.4-3s-6.7,1.1-9.4,3
		c-3.1,2.1-3.2,0.2-3.2,0.2c-2.9,3.2-5.6,8.6-5.6,15.2c0,5.5,1.3,8.2,1.8,9c2.7,7,9,11.9,16.4,11.9c7.3,0,13.5-4.8,16.3-11.7
		C216.4,177.8,218.2,175.2,218.2,168.8"/>
	<path class="st1" d="M206.8,183.8c0,0,0-0.1-0.1-0.1c0,0-1.8-3.4,1.2-5.7c0,0,6.7,1.4,6.9-7.5c0,0-0.2-0.9,0.8-2.8
		c0,0-1.7-1.6-5.5,1.2c-3.7,2.8-5.8,10.8-7.8,8.9c-2-1.9-1.3-12.2-2.3-12.6l0,0c-1,0.4-0.3,10.8-2.3,12.6c-2,1.9-4.1-6.1-7.8-8.9
		c-3.8-2.8-5.5-1.2-5.5-1.2c0.9,1.9,0.8,2.8,0.8,2.8c0.2,8.9,6.9,7.5,6.9,7.5c3,2.3,1.2,5.7,1.2,5.7s0,0.1-0.1,0.1
		c-8-8.6-12.7-7.4-10.4,2.2c2.3,9.5,10.9,50.1,12.3,59.6c-0.2,8.5-1.2,11.5-1.4,12.2l-0.9,1.7l1,1.9c1.5,2.2,2.6,4.7,3,5.6l3.3,8.4
		l3.3-8.4c0.4-1,1.4-3.5,3-5.7l1-1.8l-0.9-1.8c-0.3-0.6-1.2-3.6-1.4-11.7c1.1-8.5,10-50.4,12.3-60
		C219.5,176.3,214.9,175.2,206.8,183.8"/>
	<path class="st0" d="M194.6,226.2c-2.9-15.1-5.1-26.3-7-34.4c-1.4-6.2,2.3-3.7,4.3,0.2L194.6,226.2 M205.4,226.2
		c2.9-15.1,5.1-26.3,7-34.4c1.4-6.2-2.3-3.7-4.3,0.2L205.4,226.2 M190,174.9c-0.6-0.2-0.9-0.7-0.7-1.3c0.1-0.2,0.2-0.4,0.4-0.5
		c-0.4-0.4-0.8-0.9-1.3-1.2c0,0-0.9,4.4,3,3.9c0,0-0.1-0.4-0.4-0.9C190.6,174.9,190.3,175,190,174.9 M211.7,171.8
		c-0.5,0.4-1,0.8-1.4,1.2c0.2,0.1,0.3,0.3,0.4,0.5c0.2,0.6-0.2,1.2-0.7,1.3c-0.3,0.1-0.6,0-0.8-0.1c-0.3,0.5-0.4,0.9-0.4,0.9
		C212.6,176.2,211.7,171.8,211.7,171.8 M201.8,231.8c1.2-23.4,3.1-39.9,3.1-42c0-0.7-0.1-1.7-0.4-2.7l-1.4,4.4l-0.4-7.9
		c-0.7-0.9-1.6-1.8-2.8-2.6h-0.1c-1.2,0.8-2,1.7-2.7,2.6l-0.4,7.9l-1.4-4.4c-0.3,1-0.4,2-0.4,2.7c0,2.1,1.9,18.6,3.1,42
		c1.2,23.4-1.7,27.7-1.7,27.7c1.7,2.4,3.5,6.8,3.5,6.8s1.8-4.3,3.5-6.8C203.5,259.5,200.6,255.1,201.8,231.8"/>
	<path class="st2" d="M393.4,179.2c-51.6-30.1-127.4-45.4-162.5-46c-4.2-0.1-7.1,1-8.6,3.7c-2.4,4.6,1,9.7,2.5,11.9
		c3.2,4.7,7.4,12.1,7.4,21c0,17.3-14,30-31.2,30c-0.4,0-0.7,0-1.1,0c-0.4,0-0.7,0-1.1,0c-17.2,0-31.2-12.8-31.2-30
		c0-8.9,4.2-16.3,7.4-21c1.5-2.2,4.9-7.3,2.5-11.9c-1.5-2.7-4.4-3.8-8.6-3.7c-35.1,0.6-110.9,15.9-162.5,46c0,0.1,8.3,14.2,24.7,13
		c-2.5,1.2-5.1,2.5-7.6,3.8c0,0.2,7.5,12.5,25.6,10.7c-3,1.4-6,2.9-9,4.4c0,0.2,8.7,12.3,27.7,12c-4.4,2.2-7,3.6-7,3.6
		c0,0.1,12.6,12.3,32.9,8.9c-2.2,1.6-4.4,3.3-7,5.1c0,0,14.9,8.2,32.5,5.7c-2.3,1.7-4.5,3.5-6.8,5.2c0-0.2,26.9,7.4,46.1-1.1
		c16.5-7.3,25.7-25.1,27.8-29.6c3.3,0.7,6.1,1.1,8.3,1.4c0,0.2,3.5,0.5,5.3,0.5c1.8,0.1,5.3-0.2,5.3-0.5c2.2-0.3,5-0.7,8.3-1.4
		c2.1,4.5,11.3,22.3,27.8,29.6c19.2,8.4,46.1,0.8,46.1,1.1c-2.3-1.8-4.5-3.5-6.8-5.2c17.6,2.5,32.5-5.6,32.5-5.7
		c-2.6-1.8-4.8-3.5-7-5.1c20.3,3.4,32.9-8.8,32.9-8.9c0,0-2.6-1.4-7-3.6c19.1,0.3,27.7-11.8,27.7-12c-3-1.5-6-3-9-4.4
		c18.1,1.8,25.6-10.5,25.6-10.7c-2.5-1.3-5-2.6-7.6-3.8C385.2,193.4,393.4,179.3,393.4,179.2"/>
	<path class="st0" d="M185.1,211.9c0,0-46.1-15.4-26.1-64.6c0,0-48.8,2-115.6,29c0,0-4.7,2-7.4,2.9c-2.7,1-7.1,2.7-13.4-0.3
		c0,0,61.1-32,139.7-39.4c10.4-1,11.7,0.6,9,4.5C169,147.2,141,182.9,185.1,211.9"/>
	<path class="st0" d="M144.2,161.2c-39.5,5.1-78.2,18.9-78.2,18.9c6.6,11.7,24.4,6.8,24.4,6.8c33.5-9.5,48.4-12.7,53.2-13.6
		C143.5,169.6,143.6,165.5,144.2,161.2 M144.5,180.5c-6.6,1.3-34.3,7-62.2,17.4c0,0,8.8,10,26.3,5.1c14.7-4.2,33.5-10.2,39.1-12
		C146.3,187.8,145.2,184.3,144.5,180.5 M150.6,196.5c-6,1.9-35.8,11.6-48.4,16.4c0,0,7.2,9.7,28.1,1.5c14.5-5.7,22.5-9.1,26.1-10.6
		C154.2,201.7,152.3,199.2,150.6,196.5 M161,208c-5.2,2.3-24.6,10.7-35.7,16.1c0,0,14.1,6.9,31.8-4l11-7.2
		C165.6,211.5,163.2,209.9,161,208 M173.4,215.7c-3.5,2.2-18.2,11.4-25.4,16.7c0,0,12.2,5,24.6-6.7c4.1-3.8,6.3-6,7.5-7.2
		C178,217.7,175.7,216.8,173.4,215.7 M214.8,211.9c0,0,46.1-15.4,26.1-64.6c0,0,48.8,2,115.6,29c0,0,4.7,2,7.4,2.9
		c2.7,1,7.1,2.7,13.4-0.3c0,0-61.1-32-139.7-39.4c-10.4-1-11.7,0.6-9,4.5C231,147.2,259,182.9,214.8,211.9"/>
	<path class="st0" d="M255.8,161.2c39.5,5.1,78.2,18.9,78.2,18.9c-6.6,11.7-24.4,6.8-24.4,6.8c-33.5-9.5-48.4-12.7-53.2-13.6
		C256.5,169.6,256.4,165.5,255.8,161.2 M255.5,180.5c6.6,1.3,34.3,7,62.2,17.4c0,0-8.8,10-26.3,5.1c-14.7-4.2-33.5-10.2-39.1-12
		C253.7,187.8,254.8,184.3,255.5,180.5 M249.4,196.5c6,1.9,35.8,11.6,48.4,16.4c0,0-7.2,9.7-28.1,1.5c-14.5-5.7-22.5-9.1-26-10.6
		C245.7,201.7,247.7,199.2,249.4,196.5 M239,208c5.2,2.3,24.6,10.7,35.8,16.1c0,0-14.1,6.9-31.8-4l-11-7.2
		C234.4,211.5,236.8,209.9,239,208 M226.6,215.7c3.5,2.2,18.2,11.4,25.4,16.7c0,0-12.2,5-24.7-6.7c-4.1-3.8-6.3-6-7.5-7.2
		C222,217.7,224.3,216.8,226.6,215.7"/>
	<path class="st0" d="M237.8,238.7c0,20.9-16.9,37.8-37.8,37.8s-37.8-16.9-37.8-37.8s16.9-37.8,37.8-37.8S237.8,217.8,237.8,238.7"
		/>
	<path class="st2" d="M219.9,267.3c-1.5-1.2-3.7-3.3-4.1-5.9l-0.1-0.7c7.7-3.2,14.2-8.8,18.5-15.9
		C232.6,254.1,227.3,262.1,219.9,267.3L219.9,267.3z M165.7,244.8c4.4,7.1,10.9,12.7,18.6,15.9c0,0.2-0.1,0.5-0.1,0.7
		c-0.4,2.6-2.5,4.7-4.1,5.9C172.7,262.1,167.3,254,165.7,244.8z M173.7,215.8c-1.6,8.6,2,16.7,5.3,24.1c2.3,5.2,4.5,10.1,5.2,15.1
		c-9-4.5-15.8-12.7-18.4-23C167,225.9,169.8,220.4,173.7,215.8L173.7,215.8z M210.6,257.1c-2.6,0.8-5.3,1.4-8.1,1.6v-54.8
		c5.6,0.4,10.8,2.1,15.3,4.8c6.9,10,3,18.9-1.5,29.1C213.7,244.1,210.9,250.4,210.6,257.1L210.6,257.1z M202.5,263.7
		c2.9-0.2,5.7-0.6,8.4-1.4c0.6,3.2,2.6,5.8,4.4,7.6c-3.9,1.9-8.2,3.1-12.8,3.5L202.5,263.7L202.5,263.7z M189.1,262.4
		c2.7,0.7,5.5,1.2,8.4,1.4v9.7c-4.6-0.3-8.9-1.5-12.8-3.5C186.5,268.2,188.5,265.6,189.1,262.4z M182.1,208.8
		c4.5-2.7,9.8-4.4,15.3-4.8v54.8c-2.8-0.2-5.5-0.7-8.1-1.5c-0.3-6.8-3.1-13.1-5.8-19.3C179.1,227.7,175.2,218.8,182.1,208.8z
		 M234.2,232.1c-2.5,10.1-9.4,18.3-18.4,22.9c0.7-5,2.9-9.9,5.1-15c3.3-7.4,6.8-15.5,5.3-24.1C230.2,220.4,233,225.9,234.2,232.1
		L234.2,232.1z M200,198c-22.4,0-40.7,18.3-40.7,40.7c0,22.5,18.3,40.7,40.7,40.7s40.7-18.3,40.7-40.7
		C240.7,216.2,222.4,198,200,198L200,198z"/>
	<path class="st2" d="M212.1,145.1c0,0-0.3,1.3-1.1,1.3s-5.7-2.3-8-3.6c-1-0.5-2.4-1.4-2.9-1.6c0,0-2.1,1.1-3.1,1.6
		c-2.3,1.3-7.2,3.6-8,3.6s-1.1-1.3-1.1-1.3s-12.8,7.7-12.8,29.1c0,15.9,8.3,23.2,8.3,23.2l1.1,4.5h31l1.1-4.5c0,0,8.3-7.2,8.3-23.2
		C224.9,152.8,212.1,145.1,212.1,145.1"/>
	<path class="st0" d="M218.2,168.8c0-6.6-2.7-12-5.6-15.2c0,0-0.1,1.9-3.3-0.2c-2.7-1.9-5.9-3-9.4-3s-6.7,1.1-9.4,3
		c-3.1,2.1-3.2,0.2-3.2,0.2c-2.9,3.2-5.6,8.6-5.6,15.2c0,5.5,1.3,8.2,1.8,9c2.7,7,9,11.9,16.4,11.9c7.3,0,13.5-4.8,16.3-11.7
		C216.4,177.8,218.2,175.2,218.2,168.8"/>
	<path class="st2" d="M206.8,183.8c0,0,0-0.1-0.1-0.1c0,0-1.8-3.4,1.2-5.7c0,0,6.7,1.4,6.9-7.5c0,0-0.2-0.9,0.8-2.8
		c0,0-1.7-1.6-5.5,1.2c-3.7,2.8-5.8,10.8-7.8,8.9c-2-1.9-1.3-12.2-2.3-12.6l0,0c-1,0.4-0.3,10.8-2.3,12.6c-2,1.9-4.1-6.1-7.8-8.9
		c-3.8-2.8-5.5-1.2-5.5-1.2c0.9,1.9,0.8,2.8,0.8,2.8c0.2,8.9,6.9,7.5,6.9,7.5c3,2.3,1.2,5.7,1.2,5.7s0,0.1-0.1,0.1
		c-8-8.6-12.7-7.4-10.4,2.2c2.3,9.5,10.9,50.1,12.3,59.6c-0.2,8.5-1.2,11.5-1.4,12.2l-0.9,1.7l1,1.9c1.5,2.2,2.6,4.7,3,5.6l3.3,8.4
		l3.3-8.4c0.4-1,1.4-3.5,3-5.7l1-1.8l-0.9-1.8c-0.3-0.6-1.2-3.6-1.4-11.7c1.1-8.5,10-50.4,12.3-60
		C219.5,176.3,214.9,175.2,206.8,183.8"/>
	<path class="st0" d="M194.6,226.2c-2.9-15.1-5.1-26.3-7-34.4c-1.4-6.2,2.3-3.7,4.3,0.2L194.6,226.2 M205.4,226.2
		c2.9-15.1,5.1-26.3,7-34.4c1.4-6.2-2.3-3.7-4.3,0.2L205.4,226.2 M190,174.9c-0.6-0.2-0.9-0.7-0.7-1.3c0.1-0.2,0.2-0.4,0.4-0.5
		c-0.4-0.4-0.8-0.9-1.3-1.2c0,0-0.9,4.4,3,3.9c0,0-0.1-0.4-0.4-0.9C190.6,174.9,190.3,175,190,174.9 M211.7,171.8
		c-0.5,0.4-1,0.8-1.4,1.2c0.2,0.1,0.3,0.3,0.4,0.5c0.2,0.6-0.2,1.2-0.7,1.3c-0.3,0.1-0.6,0-0.8-0.1c-0.3,0.5-0.4,0.9-0.4,0.9
		C212.6,176.2,211.7,171.8,211.7,171.8 M201.8,231.8c1.2-23.4,3.1-39.9,3.1-42c0-0.7-0.1-1.7-0.4-2.7l-1.4,4.4l-0.4-7.9
		c-0.7-0.9-1.6-1.8-2.8-2.6h-0.1c-1.2,0.8-2,1.7-2.7,2.6l-0.4,7.9l-1.4-4.4c-0.3,1-0.4,2-0.4,2.7c0,2.1,1.9,18.6,3.1,42
		c1.2,23.4-1.7,27.7-1.7,27.7c1.7,2.4,3.5,6.8,3.5,6.8s1.8-4.3,3.5-6.8C203.5,259.5,200.6,255.1,201.8,231.8"/>
</g>
</svg>
