<?xml version="1.0" encoding="utf-8"?>
<!-- Generator: Adobe Illustrator 24.0.1, SVG Export Plug-In . SVG Version: 6.00 Build 0)  -->
<svg version="1.1" id="Layer_2_1_" xmlns="http://www.w3.org/2000/svg" xmlns:xlink="http://www.w3.org/1999/xlink" x="0px" y="0px"
	 viewBox="0 0 400 400" style="enable-background:new 0 0 400 400;" xml:space="preserve">
<style type="text/css">
	.st0{fill-rule:evenodd;clip-rule:evenodd;fill:#FFFFFE;}
	.st1{fill-rule:evenodd;clip-rule:evenodd;}
</style>
<g>
	<path class="st0" d="M200.4,352.5c-51.2,0-92.8-41.6-92.8-92.8c0-8.9,1.3-17.8,3.8-26.3c-24.2,8.3-54.5,27.8-54.5,27.8L4,208.3
		L61.8,81.4l31.5-12.8l3.4-9.4l30.1,13.4l3.1,6.5c23-4.8,22.8-7.2,69.2-7.9c41.4-0.7,69.1,7.5,69.1,7.5l2.4-5.3l16.1-10.5L338,81
		l19.6,42.5l-2.8,5.8l7.5,5l33.5,73.7l-53.5,55c0,0-35.4-23.6-52.7-28.9c2.4,8.3,3.6,16.8,3.6,25.6
		C293.2,310.8,251.6,352.5,200.4,352.5"/>
	<path class="st1" d="M355.9,139.9l-0.1-0.1l-0.1-0.1l-11.7-7.9l4.3-8.3l0.1-0.3l-0.1-0.3l-16.1-35.3l-0.1-0.2l-0.2-0.1L288.6,72
		l-0.3-0.1l-0.3,0.2l-11.5,8.8l-0.1,0.1l-0.1,0.2l-2,4.8c0,0-18-4.5-44.4-7.2c-2.7-0.3-9.9-0.9-21.3-1.8l-1.1-0.1l-1.2-0.1H206
		l-0.2,0.2l-8.6,8.5v-8.8c0,0-24.3,1.4-40.2,3.5c-15.9,2.2-31.6,6.1-31.6,6.1l-3-6.4l-21.2-9.7l-2.6,7.1L98,75.6l-30,12L13.9,206.5
		l44.3,44.4c0,0,26.4-15.9,52.8-26.4c0,0,4.2-1.6,8.7-3.1c11.8-3.9,42.6-13.1,72.4-13.1h0.3c1.2,0,2.4,0,3.6,0
		c20.3,0.6,43.9,5,60.2,8.4c23.6,4.8,33,8.3,33,8.3c24.7,9.2,51.9,27.3,51.9,27.3l44.9-46.2L355.9,139.9"/>
	<path class="st0" d="M351.1,144L308,115.2l-7.5-21.1l13.4,4.8l5.4,13.2l20.3,6.5l-11.9-26.2l-38.3-13.6l-7,5.4l12.7,41.4l41,29
		l10.5,26.2l-17.1-7.7l-5.8-16.3l-20.9-6.2l11.2,36.9c3.4,1.3,6.9,2.6,10.3,4c9.3,3.8,18.4,7.9,27.4,12.5c6.2,3.2,12.3,6.5,18.2,10
		l8.9-9.2L351.1,144 M60.1,163.6l14.4-12.8l3.4,4l-14.2,40.8c7.8-3.4,15.7-6.5,23.7-9.4l10.3-33.7l-8.9-14.7l18.4-17.5L118,84.5
		l-13.2-5.9l-11.9,33.8l-19,16.4L91.2,85l-18.6,7.4L21.2,205.1l8,8.1c4.8-2.8,9.6-5.4,14.5-8L60.1,163.6 M190.3,83.2L174.5,84
		l-7.4,84.5c6.7-0.6,13.4-1.1,20.2-1.3L190.3,83.2 M237,151l-18.3-1.1l-2.9-51.8l15.5,0.8l-1.8-14.3l-20.8-1.5l-9.3,9.3v64.7l9.8,10
		c10.1,0.3,20.1,1.1,30,2.3L237,151 M133.4,116.6l6.6,32.1l-4.2,24.3c6.4-1.2,12.8-2.3,19.3-3.1l0,0l10.2-84.8l-14.6,2.1l-4.8,27.8
		l-5.4-26.1l-17.2,4.3l-23.9,89c6.9-2.1,13.9-4.1,20.9-5.8L133.4,116.6 M260.5,146.3l5.1-7l7.5,6.2L280,177
		c7.3,1.8,14.4,3.9,21.5,6.2L288.6,137l-13.3-10.9l7.6-10.1l-6.3-23.5l-16-3.5l6.3,23.6l-10,13.4l-7.4-38.9l-14.9-1.9
		c0,0,7.5,57,11,85.1c6.7,0.9,13.4,2.1,20,3.5L260.5,146.3"/>
	<path class="st1" d="M200.4,175.1c-46.7,0-84.6,37.9-84.6,84.6s37.9,84.6,84.6,84.6s84.6-37.9,84.6-84.6
		C285,212.9,247.1,175.1,200.4,175.1"/>
	<path class="st0" d="M205.6,181.4c-6.5,2.3-12.8,5.6-19,8.4c-4.2-2.5-6.6-3.2-9.5-5C186,181.6,195.6,181.1,205.6,181.4
		 M266.2,217.3c-19.9-20.1-49.8-18.6-75.2-25.7c0,0,14.9-7.1,22.6-9.1C234.3,186,254.4,198.4,266.2,217.3 M154.1,220.3
		c-19.2,29.4-21.8,65.6-6.5,97.3c-19.7-16.5-31.4-48.6-22.6-79.7C132.3,227.8,141.6,218.8,154.1,220.3"/>
	<path class="st0" d="M174.6,241.2c10.3,30.7,12.6,64.7,39.3,95.6c-20.8,4.2-41.5-2-57.9-12.4c-20.4-29.8-18.5-74.1,1.9-103
		C167.9,224.3,173.3,237.2,174.6,241.2"/>
	<path class="st0" d="M160.3,218.1c3.1-4.4,6.6-8.5,10.5-12.3c43.3,12.2,84.7,57.2,91.7,101.3c-2.1,3.3-7,8-10.4,11.3
		c-10.8,9.7-22.6,14.7-34,17.4c-20.2-21-26.9-48.2-34.1-75.1c-5.5-20.6-9.3-36.2-23.8-42.5L160.3,218.1"/>
	<path class="st0" d="M261.6,218c-20.9-18.5-50.1-16.1-74.6-24.7c-4.7,2.9-9.3,6.3-13.3,9.9c43.3,13.6,82.7,56,92,99.8
		c6.8-9.8,10.9-21.2,12.6-33.3C279.4,251,279.2,234.1,261.6,218 M167.3,204.4c-4.2,4-7.3,8-10.6,12.6h-0.1
		c-11.5-2.6-20.5,3.4-27.8,10.8c3.5-8.8,10.7-19.2,18.4-25.9C154.3,202.1,159.5,202,167.3,204.4 M170.3,201.8
		c4.1-3.7,8.1-6.8,13-9.8l-11.1-5.5c-7.4,3-15.3,7-20.7,11.9C159.9,199.4,163.5,199.9,170.3,201.8"/>
</g>
</svg>
