<?xml version="1.0" encoding="utf-8"?>
<!-- Generator: Adobe Illustrator 24.0.1, SVG Export Plug-In . SVG Version: 6.00 Build 0)  -->
<svg version="1.1" id="Layer_2_1_" xmlns="http://www.w3.org/2000/svg" xmlns:xlink="http://www.w3.org/1999/xlink" x="0px" y="0px"
	 viewBox="0 0 400 400" style="enable-background:new 0 0 400 400;" xml:space="preserve">
<style type="text/css">
	.st0{filter:url(#Adobe_OpacityMaskFilter);}
	.st1{fill-rule:evenodd;clip-rule:evenodd;fill:#FFFFFF;}
	.st2{mask:url(#prefix__b_2_);fill-rule:evenodd;clip-rule:evenodd;fill:#FFFFFF;}
	.st3{fill-rule:evenodd;clip-rule:evenodd;}
</style>
<defs>
	<filter id="Adobe_OpacityMaskFilter" filterUnits="userSpaceOnUse" x="0" y="92" width="400" height="216.7">
		<feColorMatrix  type="matrix" values="1 0 0 0 0  0 1 0 0 0  0 0 1 0 0  0 0 0 1 0"/>
	</filter>
</defs>
<mask maskUnits="userSpaceOnUse" x="0" y="92" width="400" height="216.7" id="prefix__b_2_">
	<g class="st0">
		<path id="prefix__a_2_" class="st1" d="M0,92h400v216.7H0V92z"/>
	</g>
</mask>
<path class="st2" d="M20,308.7l24.8-21.9c13.7-12.1,28.6-23.7,44.3-34.8c-0.4-0.1-0.7-0.2-1.1-0.2l-0.5-0.2
	c-2.9-1.2-4.8-3.2-5.8-5.8c-2.1-5.5,0.9-12.1,3.1-16.8l0.6-1.4c3.9-8.8,8-17.6,12.1-26.3c-22.4,7-44.7,14.6-66.3,22.4L0,235l28-17.8
	c22.5-14.3,47-27.1,72.9-38.2c-6.4-13.5-11.5-27.9-15.3-43l-3.2-12.8l2.5-1.3C126.2,100.7,159,92,198.3,92
	c39.2,0,72.1,8.7,113.4,29.9l2.5,1.3l-0.7,2.8c-0.5,1.9-0.9,3.7-1.4,5.6c18.8-0.6,37.2-0.2,54.9,1.2l33,2.6l-32.7,4.6
	c-20.1,2.8-40.4,6.1-60.5,9.8c-1.1,3.4-2.3,6.7-3.5,9.9c21.3-4.5,42.6-7.6,63.2-9.2l33-2.6l-31.6,9.7c-24.5,7.5-49.5,15.8-74.2,24.7
	c-19.7,40.6-49.4,71.8-93.5,98.2l-1.9,1.1l-1.9-1.1c-18.6-11.1-35.2-23.8-49.5-37.6c-33.7,15.8-66.7,32.5-98.1,49.9L20,308.7
	L20,308.7z"/>
<path class="st3" d="M265.5,122.4l-0.2-0.5c10.1,3.1,20.3,7.3,28.4,11.1c-14.5,49.6-44.1,91.2-85.9,120.9l-3.4,2.4
	c-12.1-9.2-19.5-16.3-19.5-16.3l5.7-1c17.5-2.9,34.4-10.8,48.3-23.8C265.1,190.7,275.2,158.7,265.5,122.4z M257.9,183.2
	c-5.7,12.9-14.5,24.4-25.2,33.4c-1.2,0.2-8.2,0.6-8.1-10.7C239.6,200.1,249.3,193.4,257.9,183.2z M226.8,221
	c-8.3,5.9-17.7,10.4-27.8,13.2c3.5-7.1,3.5-19.6,3.6-21.8c6.3-1.6,12.1-3.2,17.1-5C220,213.4,222.4,219,226.8,221z M190.9,236.1
	c-2.9,0.5-5.7,0.9-8.6,1.2c-3.2-3.1-6.2-6.3-9.3-9.6c2.9-2.6,4.8-6.4,4.9-12c6.9-0.1,13.5-0.8,19.6-2.1c-0.4,10.1-1.8,17.4-4.6,20.4
	c-0.1,0.1-0.2,0.2-0.2,0.3C192.1,235.1,191.5,235.7,190.9,236.1z M139.5,205.5c-4.6,2.1-9.3,4.2-13.9,6.3
	c6.7-15.5,13.7-31.1,21-46.3c4.1-1.2,8.1-2.6,12.2-3.8C152.2,176.2,145.8,190.9,139.5,205.5z M122.7,136.9c2.3-1.1,4.6-2.1,7-3.2
	l0.7,1.4c2.9,6.1,6.4,11.7,10.2,17.1c1.6-0.7,3.1-1.3,4.8-1.9c-3.8-5.5-7.5-11.2-10.4-17.5l-0.5-1.2c17.3-7.2,34.7-12.2,52.9-15
	c1.1,6,2.4,13.6,3.7,21.9l4.9-1.1c-1.2-8.2-2.6-15.6-3.7-21.5c9.5-1.2,19.2-1.9,29.2-1.9c4.7,0,9.4,0.2,13.9,0.4
	c3.9,0.6,7.9,1.4,11.7,2.3c-0.4,3.4-1.1,7.1-2.1,11.4c2.1-0.4,4.1-0.6,6.2-1c0.6-3,1.1-6.1,1.3-9.2c3.2,0.8,6.5,1.7,9.7,2.7
	c2.3,8,3.5,16.4,3.5,25.2c0,7.2-0.8,14.3-2.4,21c-10.3,16.2-19.7,25.7-38.2,33.1c0.5-3.3,1.5-7.1,3-11.9c-2.1,0.8-4,1.6-5.8,2.2
	c-1.2,4.4-2,8.2-2.2,11.5c-5.1,1.8-10.8,3.5-17.3,5.2c0-2.9-0.1-5.8-0.2-8.9l-4.9,2.1c0.1,2.8,0.2,5.4,0.2,7.9
	c-6.2,1.4-13,2.1-19.9,2.3l-0.2-1.2c-3.2,1.5-7.5,3.5-12.3,5.8c2.7,0.3,5.3,0.4,7.7,0.4c-0.2,3.7-1.3,6.3-3.1,8.3
	c-2.2-2.6-4.4-5.2-6.5-7.8c-6.2,2.9-12.9,6.1-18.8,8.9c15,16.6,33,31.2,54.2,44.3c56.3-34.7,87.2-77.6,104.1-141.2
	c-34.6-17.1-65.3-26.2-104.3-26.2S129,111,94.4,128.3c4.6,18.2,10.5,34.8,18.1,50.1c1.4-2.3,3-4.6,4.9-6.8c0.9-1,8-8.5,8-8.5
	c1.4-1.6,3-3,4.6-4.4C127.3,151.6,124.9,144.3,122.7,136.9z M113.5,240.4l-3.6,1.8c-6.6,3.4-13.8,8.5-21.4,6.4
	c-8.3-3.6-2.9-13.7-0.3-19.4c5.1-11.4,10.3-22.7,15.7-34c-25.8,8-50.8,16.4-74.9,25.2c23.1-14.7,48.7-28.1,76.4-39.7
	c-7.1-14.3-12.7-29.6-16.8-46.1l-2.5-10.1c37.3-19.3,70.2-29.7,112.5-29.7s75.2,10.4,112.5,29.7c-0.9,3.5-1.8,7-2.8,10.4
	c20.6-0.9,40.6-0.5,59.9,1c-20.7,2.9-41.9,6.3-63.2,10.3c-2.1,6.2-4.2,12.3-6.5,18.2c23.8-5.4,47.2-8.8,69.7-10.6
	c-25,7.7-50.4,16.2-76.2,25.5c-19.6,41.1-49.2,72.2-93.4,98.7c-19-11.4-36.1-24.4-51-39.1c-35.4,16.5-69.2,33.7-101.2,51.4
	C66.4,272.6,88.8,255.9,113.5,240.4z M150.7,151.9c-8.7,2.4-16.6,6.2-22.9,13.1c-3.6,4.1-6.2,8.8-8.6,13.7
	c-7.1,14.3-13.7,28.7-20.2,43.2c-1.7,3.8-6.9,13-1.3,15.4c6.1,1.6,13.7-3.6,19.1-6.2c5.8-2.9,11.7-5.9,17.6-8.8
	c10-4.9,18.9-11,25-20.6c2.4-4.1,4.2-8.5,6-12.9c3.8-9.4,7.7-18.7,11.7-28.1c1.5-3.5,4.1-7.9,3.2-11.8c-1.7-5.2-10.4-2-14.1-1.1
	C160.9,149.2,155.8,150.5,150.7,151.9z M219.1,135.9c-6.4,8.4-12.8,16.9-19.1,25.4c2.9-7.8,5.9-15.6,8.9-23.4
	c-6.7,1.3-13.3,2.9-19.9,4.4c-1.7,4-3.5,8-5.1,12.1l4.3-1.2c-5.3,12.7-10.4,25.4-15.3,38c-2.1,5.2-4.1,10.4-6.2,15.5
	c6.7-3.1,13.3-6.2,20-9.4c3-8.4,6.1-16.7,9.2-25.1c2.9,5.7,5.6,11.4,8.4,17.1c4.3-1.9,8.7-3.8,12.9-5.7c-2.7-6-5.3-12-8-18
	c4.8-7.2,9.6-14.5,14.5-21.7l4.1-1l3-9.4C226.9,134.3,223,135.1,219.1,135.9z M244.9,131.4c-3.6,0.6-6.8,1.7-9.5,4.5
	c-2.2,2.3-3.4,5.2-4.3,8.2l-8.6,26.9c-1.2,3.6-2.9,10,2.8,9.6c2-0.4,3.7-1.2,5.5-1.9c5.8-2.4,11.5-4.8,17.3-7.2
	c1.4-5.6,2.9-11.2,4.4-16.9c-3,1-6.1,1.9-9.1,2.9l-2.1,7.7l-6.3,2.3c2.7-9.1,5.4-18.2,7.9-27.3l5.6-1.2l-1.3,4.8
	c2.8-0.6,5.4-1.2,8.2-2c1.1-4.1,2.1-8.2,3.1-12.3C253.9,130,249.3,130.7,244.9,131.4z"/>
</svg>
