<?xml version="1.0" encoding="utf-8"?>
<!-- Generator: Adobe Illustrator 24.0.1, SVG Export Plug-In . SVG Version: 6.00 Build 0)  -->
<svg version="1.1" id="Layer_2_1_" xmlns="http://www.w3.org/2000/svg" xmlns:xlink="http://www.w3.org/1999/xlink" x="0px" y="0px"
	 viewBox="0 0 400 400" style="enable-background:new 0 0 400 400;" xml:space="preserve">
<style type="text/css">
	.st0{fill:#FFFFFF;}
</style>
<g>
	<path class="st0" d="M149,188.8c28.8-4.4,57.6-3.1,82.8,7.5l3.1-6.8c-40.7-13.1-92-12.4-130.1,8.5l10.9-25.3
		c-48,13-80.2,40-112.6,67.9c23.6-55.9,75.1-101.8,133.2-118.5l-3,9.3c50.9-16.6,106.8-19.8,152-12.3l-10.6-13.8l26,6.6L317.4,87
		l6.6,30.8l25.5,8.3c0,0-18.6,7.8-17.7,8.2c96.7,39.8,65.7,172.1-26.2,172.8c-46.5,0.4-82.6-41.6-81-85.6
		C200.9,206,177.2,198.5,149,188.8"/>
	<g>
		<path d="M322.2,134.3c5.3-2.3,15.2-6.7,15.2-6.7l0.7-0.3l-0.8-0.3c0,0-16-5.3-19.4-6.4c-0.5-3.6-3-21-3-21l-0.1-0.8l-5.8,9.5
			c0,0-3.3,5.4-5.1,8.3c-3.8-1-20.3-5.2-20.3-5.2l-0.9-0.2l0.6,0.7c0,0,6.7,8.6,10.8,13.9c-16.6-3.6-35.8-5.6-57.8-5.6
			c-7.2,0-14.7,0.2-22.5,0.7c-30,1.7-59.4,7.3-87.7,17.5l3.2-9.6l-0.6,0.2c-44.2,13.8-92.6,55.3-114,96.3l0.5,0.4
			c30.2-28.4,71.2-51,107.9-59.3l-9.6,22.5l0.7-0.4c17.1-8.2,39.5-11.9,62.1-11.9c23.1,0,46.5,3.8,64.5,10.4l-6.9,15.1
			c-16.5-7.5-40.3-12.6-60-12.6c-3.5,0-6.9,0.2-10.1,0.5v0.6c23.3,6.6,47.5,14,66.6,29.4c-0.1,1.6-0.2,3.3-0.2,4.9
			c0,40.4,34.9,76.9,75.8,76.9c0.3,0,0.6,0,0.8,0c45.1-0.5,78.5-41.9,78.5-85C385.3,185,367.1,152.3,322.2,134.3z"/>
	</g>
	<g>
		<path class="st0" d="M297.6,208.3c-16.6,0-33.3-6.1-50-12.2c-4.4,9.3-6.7,19.1-6.7,29c0,5.3,0.6,10.6,1.9,16c1.4,0,2.8,0,4.2,0
			c32.3,0,66.6-9,94.3-25.4c-3.2-5.9-7.1-11.5-11.3-16.8C319.2,205.7,308.4,208.3,297.6,208.3z"/>
		<path class="st0" d="M245.9,247.3c-0.4,0-0.7,0-1.1,0c10.1,26.1,33.3,43.4,61.5,43.8c9-22.3,19.1-46.6,42-58
			c-1.2-4-2.7-7.9-4.3-11.8C314.5,238.7,280,247.3,245.9,247.3z"/>
		<path class="st0" d="M315.7,165.4c-10-3.8-16.4-5-17-5.1c-2.8,0.4-6.6,0.8-9.7,1.4c17.1,6.8,29.7,15,42.3,29.2
			c6.5-5.1,12.2-11,16.2-18.1c-11.6-11.3-33.5-25.1-88-29.4c23,5.5,44.2,12.9,56.5,21.6L315.7,165.4z"/>
		<path class="st0" d="M162.7,157.8c3.4-0.1,7-0.1,10.9-0.1c38.7,0,98.6,4.6,121.7,32.1l-0.4,0.5c-8-4.5-24.1-11.9-34.1-11.9
			c-0.3,0-0.6,0-1,0c-3.4,3.8-6.5,8-9.2,12.4c15.5,5.7,31.2,11.4,46.7,11.4c9.8,0,19.5-2.2,29.1-8.1C299.5,164.8,254,152,211.1,152
			C194.3,152,177.6,154,162.7,157.8z"/>
		<path class="st0" d="M346.1,212.6c7.5-5.1,14-10.4,19.8-17.3c-3.7-7-10.1-14.9-14.7-19c-4.3,7.5-9.7,13.7-16.4,19.2
			C338.8,200.8,342.9,206.9,346.1,212.6z"/>
		<path class="st0" d="M312.9,290.9c13.6-1.7,26.1-6.3,36.7-15.2c1.6-6,2.3-12.3,2.3-18.5c0-6-0.6-12-1.7-17.8
			C329.6,249.2,321,270.9,312.9,290.9z"/>
		<path class="st0" d="M357.9,261.2c0,2.1-0.1,4.1-0.2,6.2c8-10.8,12.3-20.2,14.6-34c-5.8,0.5-11.6,1.5-17.1,3.3
			C357.1,244.8,357.9,253,357.9,261.2z"/>
		<path class="st0" d="M348.9,218.3c1.8,4.1,3.4,8.3,4.8,12.6c6.4-2.1,12.6-3.2,19.3-3.6c0-0.5,0-0.9,0-1.4c0-8.8-1.3-15.6-4.2-24.1
			C362.7,208.1,356.2,213.5,348.9,218.3z"/>
		<path class="st0" d="M353.7,230.9c-1.4-4.3-3-8.5-4.8-12.6c7.3-4.9,13.8-10.2,19.9-16.5c2.9,8.5,4.2,15.3,4.2,24.1
			c0,0.5,0,0.9,0,1.4"/>
		<path class="st0" d="M373,227.4c-6.7,0.4-12.9,1.5-19.3,3.6c-1.4-4.3-3-8.5-4.8-12.6c7.3-4.9,13.8-10.2,19.9-16.5
			c2.9,8.5,4.2,15.3,4.2,24.1C373,226.4,373,226.9,373,227.4z"/>
		<path class="st0" d="M351.3,176.3c4.6,4.1,11,12,14.7,19c-5.9,6.8-12.4,12.2-19.8,17.3c-3.2-5.7-7.3-11.8-11.2-17.1
			C341.5,190.1,347,183.9,351.3,176.3z"/>
		<path class="st0" d="M259.4,143.2c54.5,4.3,76.4,18.1,88,29.4c-4,7.2-9.7,13-16.2,18.1c-12.7-14.1-25.3-22.4-42.3-29.2
			c3.1-0.6,6.9-1,9.7-1.4c0.6,0.1,7,1.3,17,5.1l0.3-0.5C303.6,156.1,282.5,148.7,259.4,143.2z"/>
		<path class="st0" d="M247,241.1c-1.4,0-2.8,0-4.2,0c-1.3-5.3-1.9-10.7-1.9-16c0-9.9,2.2-19.7,6.7-29c16.7,6.1,33.4,12.2,50,12.2
			c10.8,0,21.6-2.6,32.4-9.4c4.1,5.3,8.1,10.9,11.3,16.8C313.6,232.1,279.3,241.1,247,241.1z"/>
		<path class="st0" d="M306.3,291.2c-28.3-0.4-51.4-17.7-61.5-43.8c0.4,0,0.7,0,1.1,0c34.1,0,68.6-8.7,98.1-25.9
			c1.6,3.9,3.1,7.8,4.3,11.8C325.3,244.6,315.3,268.9,306.3,291.2z"/>
		<path class="st0" d="M357.7,267.3c0.1-2.1,0.2-4.1,0.2-6.2c0-8.2-0.8-16.4-2.6-24.5c5.5-1.8,11.3-2.8,17.1-3.3
			C370,247.2,365.7,256.5,357.7,267.3z"/>
		<path class="st0" d="M326.6,194.1c-9.6,5.9-19.3,8.1-29.1,8.1c-15.6,0-31.2-5.7-46.7-11.4c2.7-4.4,5.8-8.6,9.2-12.4
			c0.3,0,0.6,0,1,0c10,0,26.1,7.4,34.1,11.9l0.4-0.5c-23.2-27.5-83-32.1-121.7-32.1c-3.9,0-7.5,0-10.9,0.1
			c14.9-3.8,31.5-5.8,48.6-5.8C254.2,152,299.7,164.8,326.6,194.1z"/>
		<path class="st0" d="M349.5,275.7c-10.5,8.9-23,13.6-36.7,15.2c8.2-20,16.7-41.7,37.3-51.5c1.1,5.8,1.7,11.8,1.7,17.8
			C351.8,263.4,351.1,269.6,349.5,275.7z"/>
	</g>
	<polygon class="st0" points="295.6,140.1 307.5,136 316.5,146.2 315.4,132.9 326.9,127.9 314.4,123.8 312.5,110.5 305.8,121.3 
		293.2,118 301.5,128.8 	"/>
	<polygon class="st0" points="232.4,149.7 240.7,145.7 247.5,151.8 246.2,142.7 254.1,138.1 245.1,136.5 243.1,127.6 238.9,135.7 
		229.7,134.8 236.1,141.4 	"/>
	<polygon class="st0" points="139.8,168 145.2,165.3 149.7,169.3 148.9,163.3 154.1,160.3 148.1,159.3 146.8,153.4 144,158.7 
		138,158.1 142.2,162.4 	"/>
	<g>
		<path d="M344.9,249.9v-1.1l-7.6,12.8l2.2-11.3L339,250c-11.2,13.6-15.5,23.4-19,35.4l-0.2,0.6l0.6-0.2
			c12.6-4.4,19.1-9.4,21.7-11.5h0.1v-0.1c1.9-4.1,2.8-12.3,2.8-22.4C344.9,251.2,344.9,250.5,344.9,249.9z"/>
		<path d="M319.3,220.2c-12.2,2.5-26.5,3.9-39.6,3.9c-2,0-3.9,0-5.8-0.1l28.1-8.3l-0.1-0.6c-18.5-0.9-32.8-1.2-50.9-9.7l-0.3-0.1
			l-0.1,0.3c-2.7,4.8-4.2,11.6-4.2,18.5c0,3.9,0.5,7.8,1.6,11.4l0.1,0.2h0.2c0,0,0.6,0,1.8,0c8.1,0,41.4-0.9,69.5-14.9L319.3,220.2z
			"/>
		<path d="M325.5,243c-14.2,10.5-24.8,19-45.7,22.9c19.3-10,32.3-17,44.5-29.3l-0.4-0.5c-21.6,12.6-49.8,18-69.6,18.7h-0.5l0.3,0.5
			c16.3,25.9,37,28.2,43.8,28.2l0,0c1.4,0,2.2-0.1,2.2-0.1h0.1l0.1-0.1c8.8-13.9,14.4-27.2,25.6-39.9L325.5,243z"/>
	</g>
	<path d="M362,193.6c-1.9,2-3.7,3.8-5.5,5.4c-2-4.4-4.4-8.5-7.1-12.5c1.4-1.7,2.8-3.5,4.1-5.4C357,185.1,360,189.6,362,193.6
		 M369.5,221.1c-2.2,0.3-4.2,0.6-6.2,1c-0.4-3.2-1.1-6.4-1.9-9.6c2.2-1.8,4.2-3.7,6.3-5.7C368.9,211.5,369.4,215.9,369.5,221.1
		 M362.5,250.4l-0.1-1.1c0.9-4.5,1.4-9,1.6-13.5c1.2-0.3,2.4-0.6,3.6-0.8C366.3,240.6,364.7,245.6,362.5,250.4 M311,156.8
		c-1-0.5-2.1-1-3.2-1.5c16.7,5,28,11.4,34.3,16.3c-1,1.4-2,2.8-3.2,4.2C331.2,167.7,321.8,161.2,311,156.8"/>
</g>
</svg>
