<?xml version="1.0" encoding="utf-8"?>
<!-- Generator: Adobe Illustrator 24.0.1, SVG Export Plug-In . SVG Version: 6.00 Build 0)  -->
<svg version="1.1" id="Layer_1" xmlns="http://www.w3.org/2000/svg" xmlns:xlink="http://www.w3.org/1999/xlink" x="0px" y="0px"
	 viewBox="0 0 400 400" style="enable-background:new 0 0 400 400;" xml:space="preserve">
<style type="text/css">
	.st0{fill-rule:evenodd;clip-rule:evenodd;fill:#FEFEFE;}
	.st1{fill-rule:evenodd;clip-rule:evenodd;}
</style>
<g>
	<g transform="translate(0 -1) translate(206.172 207.062)">
		<path class="st0" d="M52.7,125.5c-2.8,0-5-0.8-6.7-2.5c-5.2-5.2-5.2-18.9-5.2-33.3v-2.6c0-8.1,0.3-19.7,2.5-27.8
			c1.2-4.5,3.5-10.5,9.5-10.5c5.8,0,9.2,3.2,11.2,10.5c2,7.2,2.2,17.3,2.2,27.8C66.1,113,61.7,125.5,52.7,125.5 M107.9,37.2
			c-9.1-11.8-21.9-18-37-18c-12.6,0-23.9,4.4-31.3,12l0.9-12.5c1.8-29.5,8.6-45.8,19.4-45.8c3.2,0,4.7,1.5,5.1,10.3
			c0.1,1.6,0.2,3.2,0.4,4.5c1.3,6.9,5.4,27.7,26.3,27.7c12.6,0,25.3-8.6,25.3-24.9c0-11.8-4.8-22.4-13.6-30
			C95-46.7,83.6-50.7,71.2-50.7c-29.7,0-52.5,10.6-67.9,31.4C-10-1.1-17.1,24.6-17.1,55.1c0,26.9,5.7,49.6,16.6,65.6
			C12.2,139.5,31.6,149,57,149c17.7,0,33.8-6.4,45.4-17.9c12.3-12.3,18.8-29.4,18.8-49.5C121.2,63.8,116.6,48.5,107.9,37.2"/>
	</g>
	<g transform="translate(0 -1) translate(0 174.149)">
		<path class="st0" d="M166.4,6.5l-2.5-7.8L173-8l-2.1,6.6l10.3-7.4l8.5,6.2C182.6,1.6,174.7,4.7,166.4,6.5L166.4,6.5z M150.4,8.6
			l7.1-5.2l5.3,3.8C158.8,8,154.6,8.4,150.4,8.6L150.4,8.6z M139.3,8.4l-3.4-10.6l7-5l8.2,6L148,8.7C145.1,8.7,142.2,8.6,139.3,8.4
			L139.3,8.4z M124.7,6l4.8-3.5l8,5.7C133.2,7.8,128.9,7,124.7,6z M120.8,5c-8.3-2.4-16.2-5.8-23.7-10.3l8.7-6.4l10.4,7.5l-1.3-4
			l8.2,5.9L120.8,5L120.8,5z M214.2-20.1c-2.1-1-4.3,0.8-7.6,4.1c-4.7,5-10,9.2-15.8,12.8l-3.3-10.2L198-21h-13l-3.9-12.4l-4,12.4
			h-13l10.6,7.7l-1.4,4.5h-11.8l-4-12.3l-4,12.3h-8.3l1.3-0.9h-13.1l-4-12.4l-3.9,12.4h-11.2l-2.1-6.5l10.5-7.6h-13l-4-12.3
			l-3.9,12.3H89l10.5,7.6L96.1-5.9c-6-3.7-11.7-8.1-16.9-13c-1.8-1.7-3.4-2.3-4.9-1.7c-1,0.4-2.2,1.3-2.4,3.8v75.2l1.8,0.3
			c42.1,6.2,75.8-1.1,102-22.3c-9.4,8.9-19.9,17.2-29.3,24.5c-10.8,8.5-28.2,26-42.4,46c-12.8,18-28,44.9-27.7,70.9
			c0,2,0,3.6,1.6,4.3c0.4,0.2,0.7,0.2,1,0.2c1,0,1.9-0.7,2.7-1.4c0.4-0.3,0.9-0.7,1.5-1.2c14.2-10.5,43.2-11.8,62.2-2.7
			c1.2,0.6,2.9,1.4,4.4,0.3c1.5-1,1.3-3,1.1-5c-3.5-35.8,4.5-75.1,19.9-97.8c0.7-1,1.4-2.1,2.2-3.3c12.4-18.3,38.1-56.3,42.8-87
			C215.8-16.6,216.2-19.1,214.2-20.1L214.2-20.1z"/>
	</g>
	<g transform="translate(0 -1) translate(98.85 .182)">
		<path class="st0" d="M36,70.8l10.3-7.3l10.2,7.4l-3.9-12.1l10.5-7.6h-13l-3.9-12.4l-4,12.4h-13l10.5,7.6L36,70.8z"/>
	</g>
	<path class="st0" d="M174.9,77.5l10.7,7.7l-4,12.1l10.4-7.5l6.5,4.7l-2.9,8.8h-13l10.6,7.6l-3.9,12.1l10.3-7.5l10.2,7.5l-3.8-12.1
		l10.5-7.6h-12.9l-2.1-6.6l0.8,0.6l-3.9-12.1l10.5-7.7h-13l-4-12.2L188,77.5H174.9z"/>
	<path class="st0" d="M165.5,64.1l-3.9,12.2l10.3-7.5l10.3,7.5l-3.9-12.2l10.5-7.7h-13l-3.9-12.3L168,56.4h-13L165.5,64.1z
		 M200.1,130.4l-4-12.3l-3.9,12.3h-12.9l10.5,7.7l-3.8,12.1l10.2-7.5l10.3,7.5l-3.9-12.1l10.5-7.7H200.1z M88.4,87.7l-3.9,12.2h-13
		l10.6,7.6l-3.9,12.2l10.2-7.5l10.3,7.4l-3.8-12.1l10.6-7.6h-13l-2.4-7.1l7.4-5.4l10.3,7.5l-3.9-12.1l10.6-7.7h-6l8.6-6.3l10.3,7.5
		l-3.9-12.2l10.5-7.6h-13l-4-12.3l-3.9,12.3h-12.9l10.5,7.7l-3.5,10.9h-5.7l-3.9-12.2l-4,12.2H80.7l10.4,7.7L89,89.5L88.4,87.7z"/>
	<path class="st0" d="M94.8,127.1l-3.9-12.4l-4,12.4H74l10.5,7.7l-3.9,12.1l10.2-7.5l10.3,7.5l-3.9-12.2l10.5-7.6L94.8,127.1
		L94.8,127.1z"/>
	<path class="st1" d="M258.6,333.6c-14.7,0-14.1-18.8-14.1-40.5s2.1-40.4,14.1-40.4c14.7,0,15.5,18.7,15.5,40.4
		C274.2,314.8,271.1,333.6,258.6,333.6 M276.9,227.2c-13.1,0-26.6,5.2-33.7,16.2h-0.5h0.3l1.3-19c0.8-12.9,3.7-47.8,21.5-47.8
		c8.6,0,6.7,11.4,7.6,16.5c2.4,12.1,7.6,26,24.2,26c11.3,0,23.1-7.5,23.1-22.8c0-23.6-19.7-39-43.7-39c-61.5,0-86.2,46.9-86.2,103.6
		c0,49.3,19.2,91.8,72,91.8c34.3,0,62.1-24.4,62.1-65.3C325,252.9,306.7,227.2,276.9,227.2"/>
	<path class="st1" d="M73.8,156.4v73.1c41,6,90,2,124.6-48.5c1.5-2.1,2.3-0.6,1.4,1.2c-9.7,19.7-32.5,37.8-52.3,53.3
		c-19,14.9-69.9,68.3-69.3,115.3c0,3.6,0.2,2.6,3.3,0.3c15.5-11.5,45.7-11.8,64.3-2.9c2.6,1.2,2.8,0.8,2.5-2.5
		c-3.6-36.4,4.6-76.2,20.3-99.2c10.8-16,39.7-57.2,44.7-89.5c0.5-3.3-1.2-2.8-5.4,1.6c-32.8,34.6-92.1,33.8-130.4-2.9
		C75.1,153.3,74,154.3,73.8,156.4 M144.9,44.8l2.3,7.5h7.9l-6.4,4.7l2.4,7.3l-6.2-4.5l-6.3,4.5l2.3-7.4l-6.4-4.6h7.9L144.9,44.8z
		 M191.6,72l2.4,7.4h8l-6.5,4.7l2.4,7.3l-6.2-4.5l-6.3,4.5l2.4-7.3l-6.5-4.7h8L191.6,72z M171.6,51l2.4,7.4h8l-6.4,4.7l2.3,7.4
		l-6.2-4.6l-6.2,4.6l2.3-7.4l-6.4-4.7h7.9L171.6,51z M199.3,97.8l2.4,7.4h7.9l-6.4,4.7l2.3,7.3l-6.2-4.5l-6.2,4.5l2.4-7.3l-6.5-4.7
		h7.9L199.3,97.8z M195.9,124.9l2.4,7.4h7.9l-6.4,4.7l2.4,7.3l-6.2-4.5l-6.2,4.5l2.3-7.4l-6.4-4.7h7.9L195.9,124.9z"/>
	<path class="st1" d="M180.9,146.6l2.3,7.4h8l-6.5,4.7l2.3,7.3l-6.2-4.5l-6.3,4.5l2.4-7.3l-6.5-4.7h8L180.9,146.6z M157.3,158.8
		l2.4,7.4h7.9l-6.4,4.7l2.4,7.4l-6.2-4.5l-6.2,4.5l2.3-7.4l-6.5-4.7h7.9L157.3,158.8z M97.3,69.6L94.9,77H87l6.4,4.7L91.1,89
		l6.2-4.5l6.3,4.5l-2.4-7.3l6.5-4.7h-8L97.3,69.6z M116.9,51l-2.4,7.4h-7.9l6.5,4.7l-2.4,7.4l6.2-4.6l6.2,4.6l-2.3-7.4l6.4-4.7h-7.9
		L116.9,51z M88.2,94.4l-2.3,7.4h-8l6.5,4.7l-2.4,7.4l6.2-4.5l6.2,4.5l-2.3-7.4l6.5-4.7h-7.9L88.2,94.4z M90.6,121.6l-2.4,7.5h-7.9
		l6.5,4.7l-2.3,7.3l6.2-4.5l6.2,4.5l-2.4-7.4l6.4-4.7H93L90.6,121.6z M105.6,143.8l-2.4,7.4h-7.9l6.4,4.7l-2.4,7.3l6.2-4.5l6.3,4.5
		l-2.4-7.3l6.4-4.7H108L105.6,143.8z M129.3,157.8l-2.4,7.5H119l6.4,4.7l-2.3,7.3l6.2-4.5l6.3,4.5l-2.4-7.4l6.5-4.6h-7.9
		L129.3,157.8z"/>
</g>
</svg>
