<?xml version="1.0" encoding="utf-8"?>
<!-- Generator: Adobe Illustrator 24.0.1, SVG Export Plug-In . SVG Version: 6.00 Build 0)  -->
<svg version="1.1" id="Layer_2_1_" xmlns="http://www.w3.org/2000/svg" xmlns:xlink="http://www.w3.org/1999/xlink" x="0px" y="0px"
	 viewBox="0 0 400 400" style="enable-background:new 0 0 400 400;" xml:space="preserve">
<style type="text/css">
	.st0{fill:none;}
	.st1{fill:#FFFFFF;}
</style>
<g>
	<path class="st0" d="M257.5,273.5"/>
	<polygon points="20,339.5 189.8,246.5 74.7,339.5 214.4,259.2 212.1,275.4 235.4,262.5 288,312.2 316.1,228.1 351.6,223 336,174.4 
		369,145.7 325.2,127.2 337.2,76.1 296.8,94.6 277.8,49 243.7,83 187.5,53.6 177.5,108.9 125.6,120.1 156.3,138.6 125.4,154.1 
		151.6,156.4 43.7,240.3 152.3,182.7 35.8,271.3 159.8,206.7 27.3,306.3 173.3,228.5 	"/>
	<g>
		<path class="st1" d="M330.8,175.1c-1.9,46.7-41.3,82.9-88,81c-46.7-1.9-82.9-41.3-81-88c1.9-46.7,41.3-82.9,88-81
			C296.4,89.1,332.7,128.5,330.8,175.1z"/>
		<path d="M330.8,172.6c0-3-0.1-6-0.4-9c-4.9-3.4-10.7-6-17.5-6.9c-1.3-0.2-2.6-0.2-3.8-0.3c-0.8-5.6-2.1-11.1-3.8-16.4
			c0.9,0.1,1.8,0.1,2.6,0.2c6,0.4,11.8,1.1,17.6,2c-0.8-2.2-1.7-4.3-2.7-6.3c-6.5-1-13.1-1.8-19.8-2.3c0,0,0,0-0.1,0
			c-2.2-5.4-4.8-10.7-7.8-15.7c4.3-0.9,8.2-2.7,11.3-5.6c-1.6-1.6-3.3-3.2-5-4.7c-2.7,2.5-6.2,3.8-10.3,4.4
			c-0.6-0.9-1.2-1.7-1.9-2.6c-5.7-7.5-12.4-13.9-19.7-19.1c-6.4-1.8-13-3-19.9-3.2c-0.4,0-0.8,0-1.1,0c12.8,5.1,24.3,13.5,33.6,24.9
			c-8.8-0.8-18.9-3.8-29-6.7c-3-0.9-5.9-1.7-8.7-2.5c-17.1-4.7-30.2-5.5-40.1-4.6c-7.3,4.2-14,9.4-19.7,15.5
			c10.7-4.4,32.1-12,58.2-4.8c2.8,0.8,5.6,1.6,8.6,2.5c11.5,3.4,24.4,7.2,35.6,7.3c3.1,4.6,5.7,9.4,7.9,14.5
			c-2.2-0.1-4.4-0.2-6.5-0.2c-54.3-0.9-100.9,15.3-126.7,41.2c0.1,5.1,0.7,10.2,1.8,15.1c7.3-10.5,18.1-19.9,32-27.7
			c26.3-14.8,61.2-22.6,98.2-21.9c1.3,0,2.6,0.1,3.8,0.1c1.9,5.4,3.3,10.9,4.2,16.6c-23.9,1-39.3,15.9-57.1,31.8
			c-15.9,14.3-35.4,28.5-63.9,37c2.7,3.3,5.6,6.4,8.8,9.2c26.8-10.8,44.7-27.6,59.7-41.1c17.1-15.3,31.8-30,53.3-30.7
			c0.6,6,0.6,12,0,18.2c-2.9,33.1-22.1,61.2-48.2,75.1c6.7-0.6,13.2-2.1,19.3-4.2c2.1-1.7,4.1-3.6,6.1-5.5
			c17.2-16.9,27.8-39.9,30-64.8c0.5-6.2,0.5-12.4,0-18.5c1.1,0.1,2.1,0.2,3.3,0.4C320.4,164.5,326.3,168.2,330.8,172.6z"/>
	</g>
</g>
</svg>
