<?xml version="1.0" encoding="utf-8"?>
<!-- Generator: Adobe Illustrator 24.0.1, SVG Export Plug-In . SVG Version: 6.00 Build 0)  -->
<svg version="1.1" id="Layer_1" xmlns="http://www.w3.org/2000/svg" xmlns:xlink="http://www.w3.org/1999/xlink" x="0px" y="0px"
	 viewBox="0 0 400 400" style="enable-background:new 0 0 400 400;" xml:space="preserve">
<style type="text/css">
	.st0{fill-rule:evenodd;clip-rule:evenodd;}
	.st1{fill-rule:evenodd;clip-rule:evenodd;fill:#FFFFFE;}
</style>
<g>
	<path class="st0" d="M301.4,131.8c-4.4-6.5-9.4-12.6-15-18.2c-2.4-2.4-4.9-4.7-7.5-6.9L333.5,52H174.2l-61.5,61.5l0,0l-0.1,0.1
		c-5.6,5.6-10.6,11.7-15,18.2c-4.4,6.6-8.2,13.6-11.3,20.9c-6.4,15.1-9.7,31.2-9.7,47.8s3.2,32.7,9.7,47.8
		c3.1,7.3,6.9,14.3,11.3,20.9c4.4,6.5,9.4,12.6,15,18.2c2.4,2.4,4.9,4.7,7.6,7L65.5,349h159.2l61.7-61.7l0,0
		c5.5-5.5,10.5-11.6,14.9-18.1c4.4-6.6,8.2-13.6,11.3-20.9c6.4-15.1,9.7-31.2,9.7-47.8s-3.2-32.7-9.7-47.8
		C309.6,145.4,305.8,138.4,301.4,131.8"/>
	<path class="st1" d="M279.2,120.7c-2.4-2.4-4.9-4.7-7.5-6.8l-66.9,66.9c3.3,0.9,6.4,2.7,9,5.3l0,0c8.1,8.1,8.1,21.2,0,29.2
		L90,339.1h14.5l116.6-116.6c12-12,12.1-31.5,0.1-43.6l7.3-7.3c16,16.1,15.9,42.1-0.1,58.1L119,339.1h14.5L235.6,237
		c20.1-20.1,20.1-52.6,0.1-72.7l7.3-7.3c24,24.1,24,63.1-0.1,87.2L148,339.1h14.5l87.6-87.6c28.1-28.1,28.1-73.6,0.1-101.7l7.3-7.3
		c32,32.1,32,84.1-0.1,116.2L177.1,339h14.5l73.1-73.1c36.1-36.1,36.1-94.6,0.1-130.7l7.3-7.3c40,40.2,40,105.2-0.1,145.3L206.2,339
		h14.5l58.5-58.5l0,0C323.3,236.4,323.3,164.8,279.2,120.7"/>
	<path class="st1" d="M119.9,280.4c2.4,2.4,4.9,4.7,7.5,6.8l66.9-66.9c-3.3-0.9-6.4-2.7-9-5.3l0,0c-8.1-8.1-8.1-21.2,0-29.2l124-124
		h-14.5L177.9,178.6c-12,12-12.1,31.5-0.1,43.6l-7.3,7.3c-16-16.1-15.9-42.1,0.1-58.1L280.2,61.9h-14.5L163.4,164.1
		c-20.1,20.1-20.1,52.6-0.1,72.7L156,244c-24-24.1-24-63.1,0.1-87.2l95-95h-14.5l-87.7,87.7c-28.1,28.1-28.1,73.6-0.1,101.7
		l-7.3,7.3c-32-32.1-32-84.1,0.1-116.2l80.5-80.5h-14.5L134.4,135c-36.1,36.1-36.1,94.6-0.1,130.7L127,273
		c-40-40.2-40-105.2,0.1-145.3L193,61.9h-14.5l-58.7,58.7l0,0C75.7,164.7,75.7,236.3,119.9,280.4"/>
</g>
</svg>
