<?xml version="1.0" encoding="utf-8"?>
<!-- Generator: Adobe Illustrator 24.0.1, SVG Export Plug-In . SVG Version: 6.00 Build 0)  -->
<svg version="1.1" id="Layer_2_1_" xmlns="http://www.w3.org/2000/svg" xmlns:xlink="http://www.w3.org/1999/xlink" x="0px" y="0px"
	 viewBox="0 0 400 400" style="enable-background:new 0 0 400 400;" xml:space="preserve">
<style type="text/css">
	.st0{fill-rule:evenodd;clip-rule:evenodd;fill:#FFFFFE;}
	.st1{fill-rule:evenodd;clip-rule:evenodd;}
</style>
<g>
	<path class="st0" d="M334,44l-38.1,38.2l-31.8-31.8l-32,31.8l-31.8-31.8l-31.8,31.8l-31.8-31.8L105,82.2L68,44.8V214
		c0,73.6,59,133.5,132.6,133.5S334,287.6,334,214V44"/>
	<path class="st1" d="M79.9,237.2c3.1,15.9,9.4,30.9,18.5,44.6c5.5-9.7,16.6-21.8,38.3-26.9c-1.7-5.6-3.2-11.5-4.4-17.7H79.9
		 M107.1,293.2c23.5,27.5,57.3,43.4,93,43.6c-3.4-1.7-6.7-3.6-9.8-5.6c-15.1-9.8-35.9-28.8-49.3-64
		C119.8,271.7,110.8,283.7,107.1,293.2 M153.9,265.3c9.5,23.9,23.9,42.3,42.8,54.7c12.5,8.2,24.5,11.9,32.3,13.6
		c19.7-4.6,38.2-14.1,53.5-27.6c-12-1.3-24.4-8.2-37.4-15.6c-20.4-11.4-45.7-25.6-79.9-25.6C161.5,264.8,157.7,265,153.9,265.3
		 M205.4,174.9h-44v52.4h18.3v-42h13.7v42h17.4v-45.1C210.8,178.2,208.4,174.9,205.4,174.9 M218.5,174.9v44.9c0,4,2.4,7.4,5.4,7.4
		h44v-31.8h-17.6v21.4h-13.7V185h31.3v-10.1H218.5 M112.7,174.9l-9.9,21.2H97v-21.2H78.8v52.4H97v-21.1h5.7l9.9,21.1h18.2L118,201.1
		l12.8-26.2L112.7,174.9 M135.7,227.3h18.8v-52.4h-18.8V227.3z M323.2,189.1v-14.2h-48.3v23.9c0,4,2.4,7.2,5.4,7.2h24.6v11.4h-30
		v9.8h48.3v-24c0-3.7-2.1-7.2-4.8-7.2H293v-11h12.7v4L323.2,189.1 M271.8,121.8h-15.4L288.2,90l-24.1-24.1l-32,31.8l-31.8-31.8
		l-55.8,55.9h-15.4l31.8-31.9l-24-24l-31.7,31.8L78.8,71.6v93.7h244.4v-95L271.8,121.8"/>
	<path class="st0" d="M132.2,155.2c0,1.4,1.1,2.5,2.5,2.5h13.7V154h-11.2v-12h11.2v-3.7h-16.2V155.2 M114.8,148.9h6.2V142h-6.2
		V148.9z M109.8,138.3v19.3h5v-5.1h6.2v5.1h5v-16.9c0-1.4-1.2-2.5-2.7-2.5L109.8,138.3L109.8,138.3z M302.9,154h6.2v-12h-6.2V154z
		 M311.7,138.3h-11.3c-1.3,0-2.5,1.1-2.5,2.4v14.4c0,1.4,1.1,2.5,2.5,2.5h11.3c1.4,0,2.5-1.1,2.5-2.5v-14.4
		C314.1,139.4,313,138.3,311.7,138.3z M87.4,147.4c0,1.4,1.1,2.5,2.5,2.5h8.7v4.1H87.4v3.7h16.2v-9.1c0-1.3-0.9-2.3-2.2-2.4h-0.1
		h-8.9V142h11.2v-3.7H87.4V147.4 M181.6,148.9h6.2V142h-6.2V148.9z M190.3,138.3h-13.7v19.3h5v-5.1h6.2v5.1h5v-16.9
		C192.8,139.4,191.7,138.3,190.3,138.3L190.3,138.3z M276.1,142h5.6v15.7h5V142h5.6v-3.7h-16.2V142 M224.3,138.3h-24.9v19.3h5V142
		h6.1v15.7h5.1V142h6.1v15.7h5v-16.9C226.7,139.4,225.6,138.3,224.3,138.3 M268.6,138.3h-13.7v19.3h5V142h6.2v15.7h5v-16.9
		C271.1,139.4,269.9,138.3,268.6,138.3 M233.6,155.2c0,1.4,1.1,2.5,2.5,2.5h13.7V154h-11.2v-4.1h11.2v-3.7h-11.2V142h11.2v-3.7
		h-16.2V155.2 M159.2,147h6.2v-5h-6.2V147L159.2,147z M167.7,150.6h2.7v-9.8c0-1.4-1.2-2.5-2.7-2.5h-13.4v19.3h5v-7h3.6l3,7h4.9
		L167.7,150.6L167.7,150.6z"/>
	<path class="st1" d="M162.5,252c26-0.5,51.8,6,84.6,24.7c24.3,13.8,35,18,42.2,16.2c6.7-1.7,12.9-5.6,23.9-28.8
		c4.2-8.9,7.2-19.4,8.7-27H145.3c1.2,5.4,2.4,10.7,4.1,15.6C153.6,252.3,158.1,252,162.5,252"/>
</g>
</svg>
