<?xml version="1.0" encoding="utf-8"?>
<!-- Generator: Adobe Illustrator 24.0.1, SVG Export Plug-In . SVG Version: 6.00 Build 0)  -->
<svg version="1.1" id="Layer_2_1_" xmlns="http://www.w3.org/2000/svg" xmlns:xlink="http://www.w3.org/1999/xlink" x="0px" y="0px"
	 viewBox="0 0 400 400" style="enable-background:new 0 0 400 400;" xml:space="preserve">
<style type="text/css">
	.st0{fill-rule:evenodd;clip-rule:evenodd;fill:#FFFFFE;}
	.st1{fill-rule:evenodd;clip-rule:evenodd;}
</style>
<path class="st0" d="M288.6,56l-18.2,32.2l-3.2,25.7l-32.4,57.7h-42.4l31.7-56V56h-32.9l-17.4,31.9l-2.9,26l-46.2,82.3l7.7,19.4
	h28.7L148,248.7l-24.5-26.5l2.9,38.9L84,262.9l33.8,23.7l-24,35.8l38.8-12.7l16,38.4l12.2-41.9l43.3,11.1l-28-32.3l34.4-28.4
	L175,259l38.4-43.4H264l56-99.2V56H288.6"/>
<path class="st0" d="M288.6,59.1v-3V59.1z M130.9,313.6l-44.5,14.6l27.3-40.7L75,260.2l48.2-2l-3.3-44.4l27.1,29.3l9.7-24.5h-26.3
	l-9-22.7l46.6-83l2.9-26l18.5-34h37.7v63.5l-29.5,52.1H233l31.2-55.6l3.2-25.7L286.8,53H323v64.2l-57.2,101.5h-51l-32.6,36.8
	l37.5-2.3l-39.2,32.4l32.3,37.3L162.9,310l-13.8,47.3L130.9,313.6L130.9,313.6z"/>
<path class="st1" d="M288.6,56l-18.2,32.2l-3.2,25.7l-32.4,57.7h-42.4l31.7-56V56h-32.9l-17.4,31.9l-2.9,26l-46.2,82.3l7.7,19.4
	h28.7L148,248.7l-24.5-26.5l2.9,38.9L84,262.9l33.8,23.7l-24,35.8l38.8-12.7l16,38.4l12.2-41.9l43.3,11.1l-28-32.3l34.4-28.4
	L175,259l38.4-43.4H264l56-99.2V56H288.6"/>
<path class="st0" d="M281.8,84.7h15.3l10.7-20H293L281.8,84.7 M185.3,84.8h16.5l10.5-20h-15.9L185.3,84.8 M181.4,110h14.9l1.4-17.2
	h-14.4L181.4,110 M277.5,110h14.9l1.4-17.2h-14.4L277.5,110 M142.5,289.5c-3.8,0-6.8-3-6.8-6.8s3.1-6.8,6.8-6.8c3.8,0,6.8,3,6.8,6.8
	C149.3,286.4,146.3,289.5,142.5,289.5z M274.3,120.3l-33.6,59.1h-80.6l33.6-59.1H178l-40.5,71.5h44.9L148.3,268l-14.1-15.7l0.8,18.5
	l-22.7,1.2l18.3,12.9l-13,19.4l21-6.9l8.7,20.8l6.6-22.7l23.4,6L162.2,284l18.6-15.4L152,270l53-78.2h45l39.8-71.5H274.3
	L274.3,120.3z"/>
</svg>
