<?xml version="1.0" encoding="utf-8"?>
<!-- Generator: Adobe Illustrator 24.0.1, SVG Export Plug-In . SVG Version: 6.00 Build 0)  -->
<svg version="1.1" id="Layer_2_1_" xmlns="http://www.w3.org/2000/svg" xmlns:xlink="http://www.w3.org/1999/xlink" x="0px" y="0px"
	 viewBox="0 0 400 400" style="enable-background:new 0 0 400 400;" xml:space="preserve">
<style type="text/css">
	.st0{fill-rule:evenodd;clip-rule:evenodd;fill:#FFFFFE;}
	.st1{fill-rule:evenodd;clip-rule:evenodd;}
	.st2{fill-rule:evenodd;clip-rule:evenodd;fill:#1A1919;}
</style>
<g>
	<path class="st0" d="M333,267.7l39.8-91.3h-185l-7.7,17.7l-5.4-17.7h-37c0,0-24.4,55.8-31.4,71.8c0.7-3.2,1-6.5,1-10
		c0-0.5,0-0.9,0-1.4c2.7-6.3,24.3-55.8,28.7-65.8h101.6l21.8-49.9H139l-39.5,90.5c-8.8-13.7-24.1-22.8-41.6-22.8
		c-27.3,0-49.3,22.1-49.3,49.3c0,27.3,22.1,49.3,49.3,49.3c16.6,0,31.2-8.2,40.2-20.7l-8.4,19.4h20.2l11.9-27.3h22.8l8.2,27.3h212.9
		l8.1-18.5L333,267.7L333,267.7z M129.9,240.3l5.4-12.3l3.7,12.3H129.9L129.9,240.3z M200.6,261.7l-20.3-66.8h49.5
		C215.3,228.2,206.2,248.8,200.6,261.7L200.6,261.7z M277.1,267.7h-23.3l31.7-72.8H309C291.9,233.9,282.4,255.6,277.1,267.7z"/>
	<path class="st1" d="M11.6,240.4c0.6,12.2,5.9,23.1,14.1,31.1c8.7-7.7,14.4-18.7,15-31.1H11.6"/>
	<path class="st1" d="M44.8,240.4c-0.6,13.4-6.7,25.4-16.1,33.8c7.5,6.1,16.9,9.9,27.2,10.3v-44.2H44.8 M11.6,236.3h29.1
		c-0.5-12.5-6.2-23.7-15-31.4C17.4,212.9,12.1,224,11.6,236.3"/>
	<path class="st1" d="M28.7,202.1c9.4,8.5,15.5,20.6,16.1,34.2h11.1v-44.5C45.6,192.3,36.2,196.1,28.7,202.1 M104.2,240.4H75.1
		c0.6,12.4,6.3,23.4,15,31.1C98.4,263.5,103.6,252.6,104.2,240.4"/>
	<path class="st2" d="M71,240.4H59.9v44.2c10.3-0.4,19.7-4.3,27.2-10.3C77.7,265.8,71.7,253.8,71,240.4 M87.1,202.1
		c-7.5-6.1-16.9-9.9-27.1-10.3v44.5h11C71.6,222.8,77.6,210.6,87.1,202.1"/>
	<path class="st1" d="M141,124l-41.2,94.3c-2.4-5.1-5.7-9.6-9.6-13.5c-8.8,7.8-14.5,18.9-15,31.4h29.1l29.8-68.2h87l19.2-44H141
		 M235.6,168.1l19.2-44h-8.2l-19.2,44H235.6"/>
	<path class="st1" d="M155,283.3h34.6l-31.3-104h-18.7L94,283.3h13.8l12-27.3h26.9L155,283.3L155,283.3z M125.4,243.3
		c3.4-7.8,7-15.9,10.4-23.7l7.1,23.7H125.4L125.4,243.3z M192.8,272.8l4.8-10.9l-25.1-82.6h-8.2L192.8,272.8 M313.7,270.6l40-91.3
		h-58.2L290,192h23.5c-12.1,27.7-40,91.3-40,91.3h90.3l5.6-12.7L313.7,270.6 M251.9,264.7l37.2-85.4h-8.2l-37.2,85.4H251.9"/>
	<path class="st1" d="M331.1,264.7l37.2-85.4h-8.2l-37.2,85.4H331.1 M274.6,179.3h-84.9l-5.5,12.7h50.1c-12.1,27.7-40,91.3-40,91.3
		h73.2l5.5-12.7h-38.4L274.6,179.3 M270.3,161.3h-10.8L276,124h-8l-17,38.5c-1.3,3,0,5.5,3,5.5h15.7c3,0,6.5-2.4,7.9-5.5l17-38.5
		h-7.8L270.3,161.3 M329.5,124h-27.7l-3,6.7h10.8L293.2,168h7.9l16.5-37.2h9L329.5,124 M340.6,135l-4.6,19.2h-7.7L340.6,135
		L340.6,135z M349.6,124h-7.8l-29.9,44h7.5l4.4-6.7h10.5l-1.5,6.7h7.9C340.6,168,349.6,124,349.6,124z M385.1,124l-8.2,18.6h-10.7
		l8.2-18.6h-7.9L347,168h7.9l8.2-18.6h10.7l-8.2,18.6h7.9l19.4-44H385.1"/>
</g>
</svg>
