<?xml version="1.0" encoding="utf-8"?>
<!-- Generator: Adobe Illustrator 24.0.1, SVG Export Plug-In . SVG Version: 6.00 Build 0)  -->
<svg version="1.1" id="Layer_2_1_" xmlns="http://www.w3.org/2000/svg" xmlns:xlink="http://www.w3.org/1999/xlink" x="0px" y="0px"
	 viewBox="0 0 400 400" style="enable-background:new 0 0 400 400;" xml:space="preserve">
<style type="text/css">
	.st0{fill-rule:evenodd;clip-rule:evenodd;fill:#FFFFFE;}
	.st1{fill-rule:evenodd;clip-rule:evenodd;}
	.st2{fill-rule:evenodd;clip-rule:evenodd;fill:#FFFFFF;}
</style>
<g>
	<path class="st0" d="M200.3,56.3H200c-79.3,0-143.5,64.2-143.7,143.5v0.2c0,79.3,64.2,143.6,143.5,143.7h0.2
		c79.3,0,143.6-64.2,143.7-143.5V200C343.7,120.7,279.5,56.5,200.3,56.3"/>
	<path class="st1" d="M343.7,200.1L343.7,200.1c-0.1,79.4-64.4,143.6-143.7,143.6h-0.2C120.5,343.6,56.3,279.3,56.3,200v-0.2
		C56.5,120.5,120.7,56.3,200,56.3h0.3c79.3,0.1,143.4,64.4,143.4,143.7V200.1L343.7,200.1z M350,199.7C349.8,117,282.7,50,200,50
		h-0.3C117,50.2,50,117.3,50,199.9v0.2v0.1C50.1,283,117.2,350,200,350l0,0l0,0h0.2c82.7-0.1,149.8-67.2,149.8-149.9
		c0-0.1,0-0.1,0-0.2C350,199.9,350,199.8,350,199.7z"/>
	<path class="st1" d="M152,167.4c14.9-14.9,21.2-32.4,21.2-32.4l3.3-12.1l0.8-2.8l-15.3-8.6c0,0-8.9-6.2-28.9,5.4
		c-23.4,13.8-42.4,31.6-52.2,50.5c-5.4,10.5-9.8,22.5-12,36.2c0.7,25.9,8.9,50,22.5,70.1C87.6,236.3,123.7,195.3,152,167.4
		 M267.1,116.9c-20-11.6-28.9-5.4-28.9-5.4l-15.3,8.6l0.8,2.8L227,135c0,0,6.3,17.5,21.2,32.4c28.2,27.9,64.2,68.6,60.5,105.9
		c13.7-20.3,21.8-44.7,22.3-70.9c-2.3-13.2-6.5-24.9-11.8-35.1C309.4,148.5,290.4,130.6,267.1,116.9"/>
	<path class="st1" d="M219.1,94.5c52.4,5.9,86.9,35.7,104.6,62.1c-13.4-38.1-43.8-68.1-82.2-80.9C233.1,78.1,223.7,83.4,219.1,94.5
		 M181.1,94.5c-4.6-11.2-14.1-16.4-22.6-18.9c-38.6,12.9-69.2,43.2-82.5,81.6C93.7,130.6,128.3,100.4,181.1,94.5 M189.7,93
		l10.4-15.3L210.5,93c4.2-11.4,10.8-17.7,17.4-21.1c-8.9-1.9-18.2-3-27.8-3s-18.9,1-27.9,3C178.9,75.3,185.5,81.5,189.7,93
		 M271.3,207.9c-21.3-34.5-69.7-69.3-71.2-70.4c-1.5,1.1-49.9,35.9-71.2,70.4c-28.8,46.5-25,73.4-17.6,88.7c18.5,17,42,28.8,68,32.9
		l11.2-159l9.4-9.4l0.1-0.1l0,0l0,0l0.1,0.1l9.3,9.4l11.3,158.9l-0.2,0.1c26.2-4.1,49.9-16,68.5-33.3
		C296.4,280.8,299.9,254.1,271.3,207.9"/>
	<path class="st1" d="M207.9,171.2l-7.8-7.8l0.1,180.8l18.9-14.3L207.9,171.2"/>
	<path class="st2" d="M200.1,125.4L178.9,141l4.5-16.3l0.8-2.8l1.5-5.4l-5-2.7l-16.1-8.7c8.1-1.8,16.4-3,24.8-3.5l4.1-0.3l0.2-0.3
		l1.6-3.4l0.3-0.5l0,0l4.6-9.3l4.7,9.6l0,0l0.1,0.2l1.7,3.4l0.2,0.3l4.1,0.3c8.4,0.5,16.7,1.7,24.8,3.5l-16.1,8.7l-5,2.7l1.5,5.4
		l0.8,2.8l4.5,16.3l-17.1-12.6l-4.1-3v-0.1L200.1,125.4L200.1,125.4L200.1,125.4"/>
	<path class="st1" d="M200.2,125.3L200.2,125.3l4.1,3.1l17.1,12.6l-4.5-16.3l-0.8-2.8l-1.5-5.4l5-2.7l16.1-8.7
		c-8.1-1.8-16.4-3-24.8-3.5l-4.1-0.3l-0.2-0.3l-1.7-3.4l-0.1-0.2l0,0l-4.7-9.6l-4.6,9.3l0,0l-0.3,0.5l-1.6,3.4l-0.2,0.3l-4.1,0.3
		c-8.4,0.5-16.7,1.7-24.8,3.5l16.1,8.7l5,2.7l-1.5,5.4l-0.8,2.8l-4.5,16.3l21.2-15.6v-0.1L200.2,125.3L200.2,125.3"/>
</g>
</svg>
